<?xml version="1.0" encoding="utf-8"?>
<!-- Generator: Adobe Illustrator 27.0.0, SVG Export Plug-In . SVG Version: 6.00 Build 0)  -->
<svg version="1.1" id="a" xmlns="http://www.w3.org/2000/svg" xmlns:xlink="http://www.w3.org/1999/xlink" x="0px" y="0px"
	 viewBox="0 0 141.9 50.1" style="enable-background:new 0 0 141.9 50.1;" xml:space="preserve">
<style type="text/css">
	.st0{fill:#FFFFFF;}
</style>
<path class="st0" d="M33.1,38.4L33,39.1c0,0,0,0.1-0.1,0.1l-0.3,0.8c-0.5,1-0.4,0.3-1.1,2.2c-0.7,1.8-3.4,5-5.5,6
	c-2,1-2.6,1-3.5,1.4c-0.9,0.4-1.8,0.6-2.6,0.6c-1.2,0-3.9-0.5-5.2-1.6c-1.5-1.2-1.8-2-1.8-2.7c0-1,0.4-2.3,0.8-3.1
	c0.4-0.8,1.5-1.8,2.6-1.9c0.9,0,2.5-0.4,3.7-0.4c1,0,1.8-0.1,2.7-0.1c0.4,0,0.6,0.1,0.7,0.1c0.9,0,1.7-0.5,2.7-0.6
	c1-0.1,2-0.3,2.8-0.6c0.1-0.8,0.2-1.8,0.3-2.5c0.2-0.8,0.2-1.1,0.2-1.5c0-0.4-0.1-0.6-0.1-2.1c0-0.8,0-1.6-0.3-2.8
	c-0.4-1.4-1.1-2.6-2.3-3.8c-0.4-0.3-0.6-0.6-0.8-0.8c-1.1,0.6-2.3,1.1-3.1,1.3c-0.6,0.1-1.2,0.2-1.8,0.2c-0.4,0-0.8,0-1.2-0.1
	c-0.7,1.7-1.4,2.7-1.8,3.8c-0.6,1.5-1.5,2.4-1.8,3.6c-0.4,1.3-0.9,1.8-1.3,2.6c-0.4,0.6-3.3,5.5-4.9,6.9c-1.6,1.3-3,1.8-4.2,1.8
	c-1.8,0-3.4-1.3-3.4-2.1c0-0.8,0.6-1.4,1.2-1.4c0.1,0,0.2,0.1,0.3,0.1c0.7,0.2,0.4,0.8,1.2,1.4c0.2,0.1,0.7,0.4,1.3,0.4
	c0.4,0,0.7-0.1,1.1-0.4c0.7-0.6,1.1-0.4,2.1-2.2c1-1.8,2-4.3,2.7-5.3c0.7-1.1,1-1.1,1.3-2.4c0.1-0.4,0.1-0.9,0.9-2.3
	c0.8-1.6,1.3-4.3,2.3-6.3c1-1.8,1.8-5,3-6.7c1.2-1.7,1.3-3.4,2-4.8c0.7-1.3,0.6-1.3,1.8-4c1.3-2.7,1.7-3.9,2.7-5.2
	c0,0,0-0.1,0.1-0.1c-0.5-0.2-1.1-0.4-1.7-0.5c-0.6-0.1-1.2-0.1-1.8-0.1c-1.5,0-3,0.1-4.1,0.3c-1.5,0.2-5.2,1.7-6.7,2.7
	c-1.5,1-2.1,1.5-2.7,1.8c-0.7,0.3-0.9,0.8-1.5,1.6c-0.5,0.7-2.1,2.7-2.5,3.6c-0.4,1.1-0.4,0.6-1,1.7c-0.5,1-1.1,1.3-1.4,2.9
	C2.6,20,2.4,20,2.4,21.8c0,1.9,0.3,2.6,0.7,3.6c0.4,0.9,1.4,1.5,2.2,1.5c1,0,2.2-0.4,3.3-2c1.2-1.8,1.5-1.7,2.4-2.9
	c0.9-1.3,0.8-1.9,1.5-2.6c0.7-0.7,0.7-1.2,1.1-2.5c0.6-1.3,0.8-1.9,1.1-2.7c0.2-0.9,0.2-1.7,0.2-2.3c0-0.6,0-0.9,0.4-0.9
	c0.5,0,1.4,1.3,1.4,3.5c0,2.9-1.8,5.2-2.4,6.4c-0.7,1.2-2.7,3.3-4.2,4.8c-2,2.1-4.6,2.7-5.1,2.7c-1.1,0-1.9-0.2-2.7-1
	c-1-1.1-2.2-2.5-2.2-3.8C0,23.1,0,22.6,0,22.1c0-0.6,0-1.3,0.2-2c0.3-1.3,0.8-3.3,3.2-6.9c2.3-3.6,3.2-3.5,3.7-3.9
	c0.5-0.4,0.5-0.8,1.3-1.5C9.2,7,10,6.3,11.2,5.6c1.2-0.6,4.8-2.5,6.5-2.7c1.6-0.3,4.1-0.6,5.6-0.6c2,0,3.3,0.4,3.9,0.7
	c0.4-0.6,0.8-1.1,1.2-1.4c0.7-0.6,2.2-1.3,2.9-1.3c0.3,0,0.5,0.5,0.5,0.8s-0.9,0.3-1.6,1c-0.1,0.1-0.2,0.1-0.2,0.1
	c-0.3,0.2-0.6,0.7-0.9,1.4c0.6,0.1,1.1,0.4,1.6,0.7c1.1,0.9,2.3,2,2.8,3.1c0.5,1,1.3,2.8,1.3,5.7c0,2.9-0.7,4.8-1.6,6.2
	c-0.9,1.3-0.5,0.3-1,1.2s-0.4,1.2-1.7,2.2c-1.4,1-1.4,0.6-2.1,1.4c-0.1,0.1-0.1,0.2-0.3,0.3c0.2,0.1,0.4,0.2,0.6,0.3
	c1.2,0.8,2.4,2,3.3,3.3c0.3,0.3,0.3,0.7,0.3,1.6c0,0.8,0.7,0.8,0.8,1.5c0.2,1,0.3,2,0.3,2.9c0,1.3-0.1,2.5-0.2,3.5l-0.1,0.4
	 M28.5,40.4c-1.3,0.4-2.2,0.7-2.9,0.7c-0.8,0-2.5,0.3-3.2,0.4c-0.9,0.1-3,0.4-3.8,0.4c-0.8,0-1.9,0.1-2.6,0.4
	c-0.8,0.4-1.2,0.7-1.2,1.5c0,1.4,0.5,1.5,0.9,2c0.3,0.5,2.3,1.6,3.7,1.9c0.6,0.1,1.2,0.3,1.8,0.3c0.3,0,0.5-0.1,0.7-0.1
	c0.9-0.3,1.8-0.1,2.6-0.8c0.7-0.7,1.8-2.2,2.2-2.9c0.4-0.7,1.1-2.8,1.7-3.7L28.5,40.4z M24.7,24.9l-0.8-0.3C22.9,24.3,22,24,21.3,24
	c-0.4,0-0.7,0.1-0.7,0.4c0,1,1,1.3,1.6,1.3C22.5,25.7,23.6,25.4,24.7,24.9z M27.9,5.6c-0.2,0.3-0.4,0.6-0.7,1.6
	c-1,2.1-1,2.4-1.5,3.5c-0.5,1.1,0,0.5-1,2.9c-1.1,2.4-1.1,2.9-1.9,5c-0.4,1.4-0.9,2.4-1.5,3.6c0.7,0.1,1.2,0.3,1.6,0.5
	c0.3,0,0.7,0.3,1,0.3c0.3,0,0.5,0,0.7,0.1l2,0.6c0.5-0.4,1-0.8,1.4-1.2c1.5-1.8,1.5-2.7,1.8-3.4c0.3-0.6,0.6-1.6,0.9-3
	c0.3-1.3,0.6-2.2,0.6-2.9c0-1.1-0.5-3.9-1.4-5.4s-1-1.3-1.3-1.5C28.6,6.3,28.3,5.9,27.9,5.6z"/>
<path class="st0" d="M34.5,36.3c-0.3,0.3-0.7,0.8-1,0.8c-0.1,0.1-0.3,0.4-0.6,0.7c-0.1,0.2-0.4,0.5-0.6,0.6
	c-0.5,0.4-0.7,0.9-1.1,1.1c-0.5,0.3-1,0.7-1.1,0.8c0,0-0.1,0.1-0.3,0c-0.1,0-0.1-0.1-0.2-0.2c0-0.1,0-0.2,0-0.3
	c0.1-0.2,0.2-0.3,0.4-0.4c0.2,0,0.3-0.2,0.4-0.3c0.1,0,0.3-0.2,0.4-0.3c0.4-0.4,0.3-0.3,0.5-0.4c0.2-0.1,0.4-0.5,0.6-0.6
	c0.2-0.2,0.9-1,1.1-1.1c0.3-0.2,0.6-0.6,1-0.9c0.2-0.1,1.1-1.3,1.4-1.7c0.2-0.4,0.5-0.8,0.9-1.5c0.3-0.8,0.4-1.3,0.4-1.6
	c0-0.3-0.4-0.8-1.1-1.1c-0.7-0.3-1.4-0.5-1.8-0.5c-0.5,0-0.7,0-1.1,0.1c-0.3,0.2-0.3,0.2-1.3,0.5c-1.1,0.3-1.6,0.7-2.1,1
	c-0.5,0.2-1.2,0.9-1.4,1.3c-0.2,0.5-0.1,0.9,0.2,1.1c0.1,0.1,0.3,0.1,0.5,0.1c0.5,0,0.5-0.2,0.9-0.4c0.3-0.1,0.5-0.2,0.6-0.1
	c0.1,0,0.1,0.1,0.1,0.2c0,0.1-0.1,0.4-0.2,0.6c-0.1,0.2-0.2,0.3-0.3,0.4c-0.3,0.2-0.7,0.2-1,0.3c-0.3,0.1-0.5,0.1-0.8,0
	c-0.1,0-0.2-0.1-0.3-0.2c-0.7-0.4-0.6-1.8-0.3-2.4c0.3-0.6,0.5-0.7,0.6-1c0.1-0.2,0.4-0.2,0.5-0.5c0.1-0.1,0.4-0.6,0.7-1
	c0.2-0.2,0.6-0.5,0.9-0.8c0.6-0.5,2.7-2.2,3-2.4s0.4-0.3,0.7-0.7c0.3-0.2,0.6-0.5,1.7-1.5c0.4-0.4,0.9-0.9,1.1-0.9
	c0.1,0,0.5-0.3,0.6-0.6c0.1-0.1,0.1-0.2,0.3-0.3c0.2-0.2,0.4-0.3,0.5-0.3c0.1,0.1,0.2,0.4,0.1,0.5s-0.4,0.4-0.4,0.4l-1.8,1.7
	c-0.2,0.2-0.8,0.8-1.2,1.1c-0.3,0.2-1.4,1.2-1.9,1.7c0.3-0.1,0.6-0.2,0.9-0.4c0.6-0.3,1.5-0.3,2-0.3c0.4,0,0.9,0.2,1.3,0.4
	c0.2,0,0.3,0.1,0.4,0.1c0.2,0.1,0.5,0.2,0.7,0.5c0.3,0.5,0.5,1.7,0.3,2.3c0,0.3-0.2,0.9-0.4,1.3c-0.2,0.4-0.4,0.8-0.6,1
	c-0.4,0.7-1.2,1.8-1.8,2.5C34.9,35.7,34.6,36.2,34.5,36.3z"/>
<g id="b">
	<path class="st0" d="M40.8,37h0.1c0.3,0,0.5,0.2,0.5,0.5v12.1c0,0.3-0.2,0.5-0.5,0.5h-0.1c-0.3,0-0.5-0.2-0.5-0.5V37.5
		C40.3,37.2,40.5,37,40.8,37z"/>
	<path class="st0" d="M42.4,37h0.1c0.3,0,0.5,0.2,0.5,0.5v12.1c0,0.3-0.2,0.5-0.5,0.5h-0.1c-0.3,0-0.5-0.2-0.5-0.5V37.5
		C41.9,37.2,42.2,37,42.4,37z"/>
	<path class="st0" d="M44.1,37h0.1c0.3,0,0.5,0.2,0.5,0.5v12.1c0,0.3-0.2,0.5-0.5,0.5h-0.1c-0.3,0-0.5-0.2-0.5-0.5V37.5
		C43.6,37.2,43.8,37,44.1,37z"/>
	<path class="st0" d="M45.7,37h0.1c0.3,0,0.5,0.2,0.5,0.5v12.1c0,0.3-0.2,0.5-0.5,0.5h-0.1c-0.3,0-0.5-0.2-0.5-0.5V37.5
		C45.2,37.2,45.4,37,45.7,37z"/>
	<path class="st0" d="M47.3,37h0.1c0.3,0,0.5,0.2,0.5,0.5v12.1c0,0.3-0.2,0.5-0.5,0.5h-0.1c-0.3,0-0.5-0.2-0.5-0.5V37.5
		C46.8,37.2,47,37,47.3,37z"/>
	<path class="st0" d="M48.9,37h0.1c0.3,0,0.5,0.2,0.5,0.5v12.1c0,0.3-0.2,0.5-0.5,0.5h-0.1c-0.3,0-0.5-0.2-0.5-0.5V37.5
		C48.4,37.2,48.7,37,48.9,37z"/>
	<path class="st0" d="M50.6,37h0.1c0.3,0,0.5,0.2,0.5,0.5v12.1c0,0.3-0.2,0.5-0.5,0.5h-0.1c-0.3,0-0.5-0.2-0.5-0.5V37.5
		C50.1,37.2,50.3,37,50.6,37z"/>
	<path class="st0" d="M52.2,37h0.1c0.3,0,0.5,0.2,0.5,0.5v12.1c0,0.3-0.2,0.5-0.5,0.5h-0.1c-0.3,0-0.5-0.2-0.5-0.5V37.5
		C51.7,37.2,51.9,37,52.2,37z"/>
	<path class="st0" d="M53.8,37H54c0.3,0,0.5,0.2,0.5,0.5v12.1c0,0.3-0.2,0.5-0.5,0.5h-0.1c-0.3,0-0.5-0.2-0.5-0.5V37.5
		C53.3,37.2,53.5,37,53.8,37z"/>
	<path class="st0" d="M55.5,37h0.1c0.3,0,0.5,0.2,0.5,0.5v12.1c0,0.3-0.2,0.5-0.5,0.5h-0.1c-0.3,0-0.5-0.2-0.5-0.5V37.5
		C55,37.2,55.2,37,55.5,37z"/>
	<path class="st0" d="M57.1,37h0.1c0.3,0,0.5,0.2,0.5,0.5v12.1c0,0.3-0.2,0.5-0.5,0.5h-0.1c-0.3,0-0.5-0.2-0.5-0.5V37.5
		C56.6,37.2,56.8,37,57.1,37z"/>
	<path class="st0" d="M58.7,37h0.1c0.3,0,0.5,0.2,0.5,0.5v12.1c0,0.3-0.2,0.5-0.5,0.5h-0.1c-0.3,0-0.5-0.2-0.5-0.5V37.5
		C58.2,37.2,58.4,37,58.7,37z"/>
	<path class="st0" d="M60.3,37h0.1c0.3,0,0.5,0.2,0.5,0.5v12.1c0,0.3-0.2,0.5-0.5,0.5h-0.1c-0.3,0-0.5-0.2-0.5-0.5V37.5
		C59.8,37.2,60.1,37,60.3,37z"/>
	<path class="st0" d="M62,37h0.1c0.3,0,0.5,0.2,0.5,0.5v12.1c0,0.3-0.2,0.5-0.5,0.5H62c-0.3,0-0.5-0.2-0.5-0.5V37.5
		C61.5,37.2,61.7,37,62,37z"/>
	<path class="st0" d="M63.6,37h0.1c0.3,0,0.5,0.2,0.5,0.5v12.1c0,0.3-0.2,0.5-0.5,0.5h-0.1c-0.3,0-0.5-0.2-0.5-0.5V37.5
		C63.1,37.2,63.3,37,63.6,37z"/>
	<path class="st0" d="M65.2,37h0.1c0.3,0,0.5,0.2,0.5,0.5v12.1c0,0.3-0.2,0.5-0.5,0.5h-0.1c-0.3,0-0.5-0.2-0.5-0.5V37.5
		C64.7,37.2,64.9,37,65.2,37z"/>
	<path class="st0" d="M66.8,37H67c0.3,0,0.5,0.2,0.5,0.5v12.1c0,0.3-0.2,0.5-0.5,0.5h-0.1c-0.3,0-0.5-0.2-0.5-0.5V37.5
		C66.3,37.2,66.6,37,66.8,37z"/>
	<path class="st0" d="M68.5,37h0.1c0.3,0,0.5,0.2,0.5,0.5v12.1c0,0.3-0.2,0.5-0.5,0.5h-0.1c-0.3,0-0.5-0.2-0.5-0.5V37.5
		C68,37.2,68.2,37,68.5,37z"/>
	<path class="st0" d="M70.1,37h0.1c0.3,0,0.5,0.2,0.5,0.5v12.1c0,0.3-0.2,0.5-0.5,0.5h-0.1c-0.3,0-0.5-0.2-0.5-0.5V37.5
		C69.6,37.2,69.8,37,70.1,37z"/>
	<path class="st0" d="M71.7,37h0.1c0.3,0,0.5,0.2,0.5,0.5v12.1c0,0.3-0.2,0.5-0.5,0.5h-0.1c-0.3,0-0.5-0.2-0.5-0.5V37.5
		C71.2,37.2,71.4,37,71.7,37z"/>
	<path class="st0" d="M73.3,37h0.1c0.3,0,0.5,0.2,0.5,0.5v12.1c0,0.3-0.2,0.5-0.5,0.5h-0.1c-0.3,0-0.5-0.2-0.5-0.5V37.5
		C72.8,37.2,73.1,37,73.3,37z"/>
	<path class="st0" d="M75,37h0.1c0.3,0,0.5,0.2,0.5,0.5v12.1c0,0.3-0.2,0.5-0.5,0.5H75c-0.3,0-0.5-0.2-0.5-0.5V37.5
		C74.5,37.2,74.7,37,75,37z"/>
	<path class="st0" d="M76.6,37h0.1c0.3,0,0.5,0.2,0.5,0.5v12.1c0,0.3-0.2,0.5-0.5,0.5h-0.1c-0.3,0-0.5-0.2-0.5-0.5V37.5
		C76.1,37.2,76.3,37,76.6,37z"/>
	<path class="st0" d="M78.2,37h0.1c0.3,0,0.5,0.2,0.5,0.5v12.1c0,0.3-0.2,0.5-0.5,0.5h-0.1c-0.3,0-0.5-0.2-0.5-0.5V37.5
		C77.7,37.2,78,37,78.2,37z"/>
	<path class="st0" d="M79.9,37H80c0.3,0,0.5,0.2,0.5,0.5v12.1c0,0.3-0.2,0.5-0.5,0.5h-0.1c-0.3,0-0.5-0.2-0.5-0.5V37.5
		C79.4,37.2,79.6,37,79.9,37z"/>
	<path class="st0" d="M81.5,37h0.1c0.3,0,0.5,0.2,0.5,0.5v12.1c0,0.3-0.2,0.5-0.5,0.5h-0.1c-0.3,0-0.5-0.2-0.5-0.5V37.5
		C81,37.2,81.2,37,81.5,37z"/>
	<path class="st0" d="M83.1,37h0.1c0.3,0,0.5,0.2,0.5,0.5v12.1c0,0.3-0.2,0.5-0.5,0.5h-0.1c-0.3,0-0.5-0.2-0.5-0.5V37.5
		C82.6,37.2,82.8,37,83.1,37z"/>
	<path class="st0" d="M84.7,37h0.1c0.3,0,0.5,0.2,0.5,0.5v12.1c0,0.3-0.2,0.5-0.5,0.5h-0.1c-0.3,0-0.5-0.2-0.5-0.5V37.5
		C84.2,37.2,84.5,37,84.7,37z"/>
	<path class="st0" d="M86.4,37h0.1c0.3,0,0.5,0.2,0.5,0.5v12.1c0,0.3-0.2,0.5-0.5,0.5h-0.1c-0.3,0-0.5-0.2-0.5-0.5V37.5
		C85.9,37.2,86.1,37,86.4,37z"/>
	<path class="st0" d="M88,37h0.1c0.3,0,0.5,0.2,0.5,0.5v12.1c0,0.3-0.2,0.5-0.5,0.5H88c-0.3,0-0.5-0.2-0.5-0.5V37.5
		C87.5,37.2,87.7,37,88,37z"/>
	<path class="st0" d="M89.6,37h0.1c0.3,0,0.5,0.2,0.5,0.5v12.1c0,0.3-0.2,0.5-0.5,0.5h-0.1c-0.3,0-0.5-0.2-0.5-0.5V37.5
		C89.1,37.2,89.3,37,89.6,37z"/>
	<path class="st0" d="M43.5,32h51v6.6H40.3v-3.3C40.3,33.5,41.8,32,43.5,32z"/>
	<path class="st0" d="M140.6,49.5c-0.5-0.4-4.1-4.1-13.6-4.1s-11.9,4.1-12.7,4.1h-3.6c-0.7,0-4.2-2.3-9.5-2.3s-7.8,2.3-8.7,2.3
		s-1.3-0.4-1.3-0.9V33c0-0.5,0.6-0.9,1.3-0.9c0,0,24.7,0,36.5,0s12.8-0.7,12.8,9s0,7.5,0,7.5C141.9,49.1,141.1,49.9,140.6,49.5
		L140.6,49.5z"/>
</g>
<g id="c">
	<g>
		<path class="st0" d="M48.2,24c0.1-0.1,0.3-0.2,0.3-0.2c0.1-0.1,0.2-0.2,0.3-0.4c0.1-0.1,0.2-0.2,0.3-0.2c0.1,0,0.2,0.2,0.2,0.5
			c0,0.2-0.1,0.3-0.1,0.4c-0.1,0.1-0.4,0.5-0.4,0.5c-0.1,0.2-0.4,0.3-0.5,0.5c-0.1,0.1-0.3,0.2-0.5,0.3c-0.1,0.1-0.2,0.2-0.3,0.3
			c-0.3,0.3-0.7,0.5-1.1,0.6c-0.5,0.1-1,0.2-1.7,0.2c-0.3,0-0.8-0.1-1.2-0.4c-0.2,0.7-0.5,1.6-0.9,2c-0.3,0.3-0.2,0.6-0.5,0.8
			c-0.9,1-1.5,1.2-2.3,1.2c-0.2,0-1-0.5-1.2-1.7c-0.2-0.7-0.3-1.5-0.3-2.2c0-0.4,0-0.6,0.1-0.9c0.2-0.7,0.1-1.2,0.2-1.7
			c0.2-0.5,0.4-1.7,0.5-1.9c0,0,0-0.1,0-0.1c-0.2,0.4-0.4,0.4-0.6,0.6c-0.2,0.3-0.9,0.8-1,0.9c-0.1,0.1-0.5,0.6-0.5,0.6
			c-0.1,0-0.3,0.3-0.3,0.3c-0.2,0-0.3-0.2-0.3-0.4c0-0.2,0.2-0.3,0.3-0.5c0.1-0.2,0.2-0.2,0.2-0.3c0.2,0,0.5-0.3,0.5-0.5
			c0.1-0.2,0.5-0.6,0.8-0.9c0.9-0.9,1.2-1.5,1.4-1.5c0.2-0.1,0.4-0.2,0.5-0.6c0-0.4-0.1-0.7-0.1-0.9c0-0.1,0-0.2,0-0.2
			c0.1-0.9,0-1.5,0.2-2.1s0.5-1.1,0.8-1.4c0.3-0.4,0.8-0.7,1-0.9c0.3-0.1,0.6-0.2,0.8-0.2c0.3,0,0.8,0.5,1,1
			c0.2,0.4,0.3,1.1,0.4,1.7c0.1,0.3,0.2,1.4,0.2,2.4c0,0.3,0,0.7,0,0.9c0,1,0,2-0.2,2.5c-0.1,0.5-0.2,1.1-0.4,1.6c0,0.1,0,0.1,0,0.1
			c-0.1,0.5-0.2,1-0.4,1.4c0.3,0.2,0.6,0.4,1.1,0.5c0.3,0,0.6-0.1,0.8-0.1c0.2,0,0.2,0.1,0.3,0.1c0.3,0,0.6-0.2,0.9-0.4
			c0.4-0.3,0.5-0.3,0.8-0.6C47.8,24.2,47.9,24.2,48.2,24z M42.9,25.4c-0.3-0.3-0.5-0.5-0.7-0.9c-0.2-0.3-0.5-0.7-0.7-1.1
			c-0.1-0.3-0.6-1.5-0.7-2.1l-0.3,1.2c-0.1,0.5-0.3,2.1-0.3,2.8c0,0.5-0.1,1-0.1,1.5c0,1.3,0.2,1.6,0.3,1.8c0.1,0.1,0.2,0.1,0.3,0.1
			c0.1,0,0.3,0,0.4-0.1c0.2-0.2,0.4-0.6,0.7-0.8c0.3-0.3,0.4-0.8,0.6-1.1C42.5,26.5,42.7,25.9,42.9,25.4z M43.2,24.2l0.2-0.8
			c0.1-0.6,0.2-1.5,0.3-2s0.1-1.4,0.1-2c0-0.2,0-0.3,0-0.5c0-0.5,0-0.9-0.1-1.1c-0.1-0.5,0-1.2-0.2-1.5c-0.3-0.4-0.3-0.9-0.6-1.4
			c-0.2-0.2-0.3-0.2-0.3-0.2c-0.1,0-0.1,0-0.2,0c-0.2,0.1-0.3,0.6-0.4,1.1c-0.1,0.3-0.1,0.7-0.1,1c0,0.2,0,0.5,0,1.5
			c0,0.3,0,0.6,0,0.9c0.1,0.8,0.2,1.4,0.3,2c0,0.7,0.2,1.4,0.5,1.9C42.7,23.4,43,23.9,43.2,24.2z"/>
		<path class="st0" d="M55.9,28.1c-0.3,0-1.1-0.4-1.3-0.7C54.3,26.8,54,25.7,54,25c0-0.5,0.1-1.5,0.2-1.6c0.1-0.1,0-0.7,0.2-1.5
			c0.2-0.7,0.5-1.2,0.5-1.6c0-0.1,0.6-1.6,0.6-1.9c-0.1-0.3-0.4-0.5-0.7-1c-0.6,0.9-1.3,1.8-1.6,2c-0.2,0.3-1.1,1.1-1.3,1.5
			c-0.2,0.3-0.8,0.9-0.9,1l-1,1c-0.2,0.2-0.3,0.3-0.5,0.5c-0.1,0-0.3,0.3-0.4,0.3c-0.1,0-0.3-0.2-0.3-0.4c0-0.2,0.1-0.2,0.3-0.5
			c0.1-0.2,0.2-0.2,0.2-0.2c0.2-0.1,0.5-0.4,0.5-0.5c0-0.2,0.5-0.6,0.8-0.9l0.7-0.8c0.2-0.2,0.5-0.4,0.7-0.7
			c0.3-0.2,0.3-0.2,0.6-0.6c0.1-0.2,1.2-1.4,1.8-2.1c-0.1-0.2-0.2-0.5-0.2-0.6c-0.2-0.5-0.4-1.1-0.4-2c0-0.9,0-1.7,0.1-2.5
			c0.1-0.9,0.4-1.6,0.6-2c0.3-0.6,1-1.1,1.5-1.1c0.2,0,0.5,0,0.7,0.3c0.2,0.3,0.4,0.4,0.4,1.1c0,0.3,0.1,0.5,0.1,0.9
			c0,0.4,0,1.1-0.3,2c-0.3,0.9-0.4,0.9-0.5,1.6c-0.1,0.8-0.5,1-0.8,1.7c-0.1,0.1-0.1,0.4-0.2,0.5c0.3,0.9,0.7,1,1,1.5
			c0.3,0.5,0.5,1.5,0.5,2c0,0.1,0,0.2,0,0.2c-0.1,0.4-0.3,0.9-0.5,1.4s-0.3,1-0.4,1.5c-0.1,0.5-0.2,1-0.2,1.5c0,0.6,0.2,1.4,0.5,1.6
			c0.2,0.1,0.4,0.2,0.5,0.2c0.1,0,0.2,0,0.3,0c0.3-0.3,0.6-0.2,0.8-0.4c0.2-0.2,0.5-0.1,0.7-0.5c0.1-0.2,0.7-0.5,0.9-0.8
			c0.2-0.2,0.5-0.4,0.6-0.5c0.2-0.1,0-0.1,0.4-0.5c0.4-0.5,0.5-0.5,0.6-0.8c0.1-0.1,0.2-0.2,0.3-0.2c0,0,0.1,0,0.1,0
			c0,0,0.1,0,0.1,0.1c0.1,0.1,0.1,0.2,0.1,0.4c0,0.4-0.4,0.6-0.5,0.9c-0.1,0.1-0.2,0.2-0.3,0.4c-0.3,0.5-0.6,0.6-1,1.1
			c-0.1,0.1-0.5,0.4-0.5,0.5c-0.3,0.2-0.5,0.2-0.5,0.3c-0.1,0.4-0.9,0.7-1.2,1C57.4,27.8,56.2,28.1,55.9,28.1z M55.2,14.6
			c0,0.4,0,0.8,0.1,1.2c0.7-1.1,0.9-1.6,1.1-2.2c0.2-0.7,0.1-0.9,0.3-1.6c0.1-0.2,0.1-0.4,0.1-0.6c0-0.2-0.1-0.5-0.1-0.9
			c0-0.5-0.2-0.9-0.4-0.9c-0.2,0.1-0.5,0.3-0.6,0.9c-0.1,0.5-0.2,0.5-0.3,1c-0.1,0.4-0.1,1.2-0.1,1.8C55.2,13.5,55.2,14.1,55.2,14.6
			z"/>
		<path class="st0" d="M71.3,29c-0.1,0-0.2,0-0.3,0c-0.3,0-0.5-0.1-0.8-0.4c-0.4-0.2-0.8-1.5-0.8-2.5c0-0.7,0.2-2.8,0.3-3.4
			c0-0.6,0.2-1,0.2-1.2c0,0,0-0.1-0.1-0.1c-0.2,0-0.3,0.5-0.4,0.8c-0.2,0.3-1,1.2-1,1.7c0,0.5-0.7,1.1-0.8,1.5
			c-0.2,0.4-0.4,0.6-0.6,0.9c-0.2,0.1-0.3,0.4-0.6,0.7c-0.3,0.4-0.6,0.7-1.3,0.7c-0.6,0-1.3-1.2-1.3-1.8c0-0.8,0.1-1.6,0.2-1.9
			c0.2-0.4,0.1-0.6,0.3-1.4c0.1-0.6,0.4-1.4,0.6-2.2c-1,1.1-1.5,1.7-1.7,1.9c-0.4,0.4-0.9,1-1.4,1.5c0,0-0.2,0.3-0.3,0.3
			c-0.1,0-0.3-0.2-0.3-0.4c0-0.2,0.1-0.3,0.3-0.5c0.1-0.2,0.2-0.2,0.2-0.3c0.2,0,0.5-0.3,0.5-0.5c0.1-0.2,0.5-0.6,1.5-1.6
			c0.2-0.1,0.4-0.5,0.7-0.7c0.3-0.3,0.4-0.1,0.6-0.5c0.1-0.1,0.7-0.9,1.2-1.5c0.2-0.2,0.4-0.4,0.5-0.5c0.6-0.9,0.8-0.9,0.9-0.9
			c0.2-0.3,0.4-0.6,0.6-0.6c0.3,0,0.1-0.1,0.4-0.5c0.1-0.2,0.3-0.2,0.5-0.2c0.1,0,0.3,0,0.4,0.1c0.3,0.2,0.6,1.1,0.6,1.8
			c0,0.4-0.1,0.6-0.2,0.9c-0.1,0.3-0.2,0.4-0.3,0.4c-0.1,0-0.2-0.3-0.2-0.5c0-0.2,0.1-0.4,0.1-0.8c0-0.2,0-0.5-0.2-0.5
			c-0.2,0-0.5,0.3-0.7,0.4c-0.2,0.1-0.5,1.1-0.8,1.6c-0.2,0.4-0.6,0.8-0.9,1.6c-0.4,1-0.4,1.2-0.7,2c-0.4,0.9-0.6,1.7-0.6,3
			c0,0.8,0.1,1,0.2,1.1c0,0,0.1,0,0.1,0c0.2,0,0.5-0.3,0.9-0.9c0.5-0.7,0.6-1.2,1-1.4c0.3-0.2,0.3-0.5,0.5-0.9
			c0.2-0.4,0.5-0.9,0.8-1.3c0.3-0.5,0.5-1.2,0.7-1.5c0.2-0.4,0.3-0.5,0.3-0.5s0.5-3.2,0.7-4.2c0.3-1,1-5,1.2-5.2
			c0.2-0.1,0.3-1,0.3-1.2s0.2-0.5,0.3-1.1c0.1-0.6,0.5-1.8,0.8-2.3c0.3-0.5,0.7-1.8,0.8-1.9c0.1-0.1,0.3-0.7,0.3-0.9
			c0.1-0.2,0.5-1.3,0.9-1.8c0.3-0.5,0.4-0.5,0.5-0.5c0,0,0.2-0.6,0.4-0.6c0.3,0,1,0.1,1,1.4c0,0.6-0.1,1.4-0.2,2
			c-0.2,0.7-0.3,1.2-0.5,1.6c-0.2,0.4-0.5,1.5-0.7,2c-0.2,0.5-0.3,1.9-0.9,3.1c-0.7,1.4-0.9,2.5-1.2,3.1c-0.3,0.6-1,2.2-1.1,2.6
			c-0.1,0.5-0.1,0.8-0.3,1.1c-0.3,0.5-0.4,1.5-0.5,2.5c-0.1,0.6-0.3,1.9-0.4,3.1c-0.2,1.1-0.3,2.9-0.3,3.9c0,0.7,0.3,1,0.5,1
			c0.4,0,0.9-0.2,1.1-0.3c0.3-0.2,0.6-0.3,0.7-0.5c0.3-0.4,0.5-0.3,0.8-0.7c0.1-0.2,0.8-0.6,0.9-0.9c0.1-0.2,0.4-0.3,0.5-0.4
			c0.1-0.1,0-0.1,0.3-0.5c0.2-0.1,0.4-0.4,0.6-0.7c0.1-0.1,0.2-0.3,0.3-0.3c0.1,0,0.1,0,0.2,0.1c0.1,0.1,0.1,0.2,0.1,0.4
			c0,0.2-0.1,0.3-0.1,0.4c-0.3,0.3-0.5,0.6-0.8,1c-0.3,0.5-0.6,0.4-1,0.9c-0.2,0.2-0.4,0.4-0.6,0.5c-0.3,0.2-0.5,0.3-0.6,0.4
			c-0.1,0.5-0.8,0.9-1,1.2C72.7,28.1,71.7,28.9,71.3,29z M73.1,12.7c0.1-0.4,0.5-1.1,0.8-1.7c0.3-0.5,0.4-1,0.6-1.8
			c0.2-0.7,0.4-0.9,0.6-1.5c0.2-0.7,0.2-1,0.5-1.9c0.3-1,0.7-1.7,0.8-2.5c0-0.1,0.2-0.7,0.2-1c0-0.1,0-0.2-0.1-0.2
			c-0.2,0-0.5,1.1-1.2,2.7c-0.2,0.4-0.3,0.8-0.4,1.4c-0.1,0.6-0.5,1.4-0.5,1.8c-0.1,0.3-0.4,1-0.5,1.6c-0.1,0.5-0.2,0.9-0.4,1.5
			C73.2,11.8,73.2,12.2,73.1,12.7z"/>
		<path class="st0" d="M83.5,28.9c-0.1,0-0.2,0-0.3,0c-0.4,0-1-0.2-1.3-0.4c-0.4-0.3-0.7-0.8-0.8-1.2c-0.2-0.6-0.5-1.4-0.5-2.1
			c0-0.6-0.1-1.5-0.1-2.1c0-0.4,0.1-0.5,0.1-1.4c0-0.6,0.3-1.6,0.6-2.6c-0.5,0.6-1.4,1.5-1.6,1.8c-0.2,0.3-0.8,0.9-0.9,1
			c-0.2,0.2-0.7,0.6-1,1c-0.2,0.2-0.4,0.3-0.5,0.5c-0.1,0-0.3,0.3-0.3,0.3c-0.2,0-0.3-0.2-0.3-0.4c0-0.2,0.2-0.3,0.3-0.5
			c0.1-0.2,0.2-0.2,0.2-0.3c0.2,0,0.5-0.3,0.5-0.5c0.1-0.2,0.5-0.5,0.8-0.9c0.2-0.2,0.5-0.4,0.7-0.7c0.2-0.2,0.4-0.5,0.7-0.7
			c0.3-0.3,0.3-0.1,0.6-0.5c0.3-0.5,1.7-2.1,2.2-2.7c0.9-1,1.1-1.2,1.6-1.6c0.2-0.1,0.4-0.2,0.7-0.2c0.2,0,0.4,0.1,0.6,0.1
			c0.3,0.2,0.4,1.1,0.4,1.7c0,0.6-0.2,1.3-0.4,1.8c-0.2,0.8-0.7,1.7-1.1,2.3c-0.4,0.6-0.8,1.2-1.2,1.8c-0.3,0.4-0.7,0.7-0.9,0.9
			c0,0.3,0,0.6,0,1c0,0.5,0.3,1.8,0.4,2.1c0.2,0.4,0.4,0.5,0.5,0.7c0.1,0.1,0.4,0.1,0.7,0.1c0.8,0,1.1-0.1,1.3-0.2
			c0.3-0.2,0.7-0.3,0.8-0.5c0.3-0.2,0.5-0.1,0.8-0.5c0.1-0.2,0.8-0.6,0.9-0.9c0.1-0.2,0.4-0.3,0.5-0.4c0.1-0.1,0-0.1,0.3-0.5
			c0.1-0.1,0.3-0.2,0.3-0.4c0.1-0.1,0.3-0.4,0.3-0.4c0.1-0.1,0.2-0.2,0.3-0.2c0.1,0,0.1,0,0.2,0.1c0,0.1,0.1,0.2,0.1,0.4
			c0,0.2-0.1,0.3-0.1,0.4c-0.1,0.1-0.5,0.5-0.5,0.5c-0.1,0.2-0.3,0.4-0.3,0.5c-0.3,0.5-0.6,0.4-1,0.9c-0.2,0.2-0.4,0.4-0.6,0.5
			c-0.3,0.2-0.5,0.3-0.6,0.4c-0.1,0.5-0.8,0.9-1.1,1.1C85.4,28.1,84.5,28.7,83.5,28.9z M82.2,22.1c0.3-0.2,0.6-0.5,0.8-0.8
			c0.3-0.6,0.7-1.2,0.8-1.3c0.1-0.2,0.7-1.6,0.7-1.9c0.1-0.3,0.2-0.9,0.2-1.2c0-0.2-0.1-0.4-0.2-0.4c-0.1,0-0.2,0.1-0.3,0.3
			c-0.3,0.6-0.6,1.1-0.8,1.5c-0.3,0.6-0.9,1.9-1.1,3.3C82.2,21.8,82.2,21.9,82.2,22.1z"/>
		<path class="st0" d="M89.8,23.6c-0.1,0-0.3,0.3-0.3,0.3c-0.2,0-0.3-0.2-0.3-0.4c0-0.2,0.2-0.3,0.3-0.5c0.1-0.2,0.2-0.2,0.2-0.3
			c0.2,0,0.5-0.3,0.5-0.5c0.1-0.2,0.4-0.6,0.9-1c0.7-0.7,1-1.1,1.2-1.3c0.3-0.3,0.3-0.1,0.6-0.5c0.1-0.1,0.3-0.2,0.7-0.6
			c0.5-0.4,0.5-0.5,0.7-0.7c1-1.1,1.5-1.5,2-1.9c0.3,0,0.7-0.9,1-0.9c0.2,0,0.5-0.5,0.7-0.5c0.1,0,0.2,0.1,0.3,0.1
			c0,0,0.1-0.1,0.1-0.2c0-0.1,0.4-0.2,0.7-0.2c0.2,0,0.6,0.3,0.8,0.8s0.5,1.4,0.5,2.2c0,0.9,0,1.1-0.2,1.7c-0.1,0.5-0.3,1-0.6,1
			c-0.2,0-0.2-0.4-0.2-0.6s0.2-0.9,0.4-1.5c0-0.1,0-0.2,0-0.5c0-0.5-0.1-1.1-0.2-1.2c-0.2-0.4-0.4-0.5-0.6-0.5c-0.1,0-0.2,0-0.2,0
			c-0.3,0.1-0.5,0.4-1.1,1c-0.5,0.6-0.9,1.4-1.3,1.8c-0.5,0.6-1.2,2-1.4,2.6c-0.2,0.6-0.3,0.6-0.7,2.2C94,24.9,94,25,93.9,25.9
			c0,0.1,0,0.2,0,0.4c0,0.7,0.2,0.8,0.3,0.8s0.9-1,1-1.3c0.3-0.6,0.7-1.2,1-1.9c0.1-0.3,0.2-0.6,0.5-1.5c0.3-1,0.7-1.2,1-1.4
			c0.2-0.3,0.4-0.5,0.6-0.5c0.2,0,0.3,0.3,0.3,0.7c0,0.1,0,0.2,0,0.3c0,0.2,0,0.4,0,0.5c0,0.4,0,0.6,0,1c0,0.5,0.2,2.2,0.4,2.6
			c0.2,0.4,0.5,0.6,0.6,0.8c0.1,0.2,0.7,0.2,1,0.2c0.5,0,0.8-0.1,1-0.3c0.3-0.4,0.5-0.1,0.8-0.5c0.1-0.2,0.8-0.6,0.9-0.8
			c0.2-0.2,0.4-0.4,0.6-0.5c0.2-0.2,0.4-0.4,0.6-0.6c0-0.1,0.3-0.4,0.4-0.5c0-0.1,0.2-0.2,0.3-0.2c0.1,0,0.1,0,0.2,0.1
			c0.1,0.1,0.1,0.2,0.1,0.4c0,0.1-0.1,0.3-0.2,0.5c-0.2,0.4-0.5,0.5-0.7,0.8c-0.3,0.4-0.6,0.5-1,1.1c-0.1,0.2-0.4,0.4-0.5,0.4
			c-0.3,0.3-0.5,0.3-0.6,0.5c-0.1,0.4-0.9,0.7-1.1,0.9c-0.3,0.2-1.2,0.4-1.6,0.5c-0.1,0-0.2,0-0.3,0c-0.4,0-0.9-0.2-1.2-0.4
			c-0.4-0.2-0.7-0.7-0.8-1.1c-0.3-0.8-0.5-1.6-0.5-1.6c-0.1,0-0.4,0.6-0.7,0.9c-0.4,0.4-0.9,1.3-1.2,1.8c-0.2,0.3-0.7,0.8-1.2,1.1
			c-0.2,0.1-0.3,0.2-0.4,0.2c-0.1,0-0.3,0-0.5-0.2c-0.4,0-0.7-0.9-0.7-1.8c0-0.9,0.2-2.2,0.3-2.7c0.2-0.5,0.4-1.4,0.7-1.9
			c0.3-0.6,0.4-0.9,0.5-1.4c0.1-0.5,0.5-1.3,0.9-1.9c-1,0.9-1.9,1.6-2.2,2c-0.2,0.4-0.7,0.8-1,1.1C91,22.4,90.1,23.3,89.8,23.6z"/>
		<path class="st0" d="M121.8,24.7c0.1-0.2,0.3-0.3,0.6-0.6l0.7-0.8c0.1-0.1,0.2-0.2,0.3-0.2c0.1,0,0.1,0.1,0.2,0.1
			c0.1,0.1,0.1,0.2,0.1,0.4c0,0.2-0.2,0.4-0.2,0.4c-0.2,0.3-0.5,0.6-0.8,0.9c-0.3,0.2-0.5,0.5-0.9,0.9c-0.2,0.2-0.8,0.3-0.9,0.5
			c-0.1,0.2-0.6,0.5-1,0.5c-0.2,0-0.6,0.2-0.9,0.2c-0.2,0-0.9-0.2-1.1-0.3c-0.2-0.2-0.5-0.7-0.7-0.9c-0.2-0.3-0.4-1.1-0.6-1.8
			c-0.2-0.8-0.2-1.5-0.2-1.9c0-0.1,0-0.1,0-0.1c-0.1,0-0.2,0.2-0.4,0.6c-0.2,0.4-0.4,1.1-0.7,1.4c-0.2,0.1-0.4,0.2-0.5,0.6
			c-0.3,0.4-0.4,1.1-0.8,1.8c-0.4,0.7-0.5,1-0.9,1.5c-0.3,0.4-0.9,0.5-1.3,0.9c-0.1,0.1-0.2,0.1-0.3,0.1c-0.3,0-0.5-0.2-0.7-0.3
			c-0.3-0.2-0.7-1-0.7-1.8c0-0.7,0.1-1.9,0.2-2.4c0.2-0.5,0.2-1.5,0.4-2.1c0.2-0.5,0.5-1.7,0.5-2.2c0-0.2,0.2-0.9,0.2-1.4
			c0-0.4-0.1-0.6-0.3-0.6c-0.3,0-1.3,0.9-1.9,1.5c-0.2,0.3-1.1,1.1-1.3,1.5c-0.3,0.3-0.8,0.9-0.9,1l-1.5,1.5c0,0-0.2,0.3-0.3,0.3
			s-0.3-0.2-0.3-0.4c0-0.2,0.1-0.3,0.3-0.5c0.1-0.2,0.2-0.2,0.2-0.3c0.2,0,0.5-0.3,0.5-0.5c0.1-0.2,0.5-0.6,0.8-0.9l0.7-0.7
			c0.2-0.1,0.4-0.5,0.7-0.7c0.3-0.3,0.4-0.1,0.6-0.5c0.2-0.2,2.2-2.5,2.6-2.8c0.3-0.3,0.9-0.9,1.2-0.9c0.3,0,0.6,0.1,0.8,0.6
			c0.2,0.2,0.2,0.6,0.2,1.1c0,0.3,0,0.6-0.1,0.9c-0.1,0.6-0.2,1.4-0.4,2c-0.2,0.6-0.3,1.9-0.5,2.4c-0.2,0.5-0.3,1.5-0.4,2
			c-0.1,0.5-0.2,1.1-0.2,1.9c0,0.5,0.2,0.8,0.4,0.8c0.1,0,0.2,0,0.2-0.1c0.2-0.2,0.5-0.7,0.7-1c0.3-0.3,0.8-1.5,1-1.9
			c0.3-0.5,0.3-0.9,0.5-0.9c0.1,0,0.2-0.4,0.4-0.8c0.2-0.4,0.3-0.5,0.5-0.9c0.2-0.4,0.4-0.7,0.6-1.3c0.2-0.6,0.5-1,0.6-1.5
			c0.2-0.5,0.5-1,0.7-1.4c0.1-0.4,0.3-0.6,0.5-0.6c0,0,0.1,0,0.2,0.1c0.3,0,0.5,0.4,0.5,0.8c0,0.6,0,1-0.2,1.7
			c-0.2,0.9-0.2,1.6-0.2,1.9c0,0.4,0.1,1,0.1,1.9c0,0.8,0.3,1.3,0.3,1.5c0.1,0.2,0.4,0.5,0.8,0.6c0.3,0.1,0.7,0.1,0.9,0.1
			c0.2,0,0.6-0.1,1-0.5C121.6,24.9,121.7,25,121.8,24.7z"/>
	</g>
	<path class="st0" d="M124.4,26.5l5.3-5l-1.4-1.3c-0.5,0.2-1,0.2-1.6,0.2c-0.1,0-0.6-0.2-1.2,1c-0.6,1.2-1.4,1.9-1.8,2.1
		c-0.9,0.7-0.3-0.6-0.3-0.6s0.9-1,1.1-1.5s0.3-0.4,0.3-0.8c0-0.5-1-1.2-1.1-1.4c-0.8-0.7-1.2-1.7-1.2-2.8c0-1.1,0.4-2.1,1.2-2.8
		c0.8-0.8,1.8-1.1,3-1.2c1.2,0,2.2,0.4,3,1.2c0.8,0.7,1.2,1.7,1.2,2.8c0,0.5-0.1,1-0.3,1.4l1.4,1.3l1.6-1.3
		c-0.2-0.4-0.3-0.9-0.3-1.4c0-1.1,0.4-2.1,1.2-2.8c0.8-0.8,1.8-1.1,3-1.2c1.2,0,2.2,0.4,3,1.2c0.8,0.7,1.2,1.7,1.2,2.8
		c0,1.1-0.4,2.1-1.2,2.8c-0.8,0.8-1.8,1.1-3,1.2c-0.6,0-1.1-0.1-1.5-0.2l-10.7,9.9c-0.3,0.3-0.7,0.3-1,0c-0.5-0.5-0.8-1.1-0.8-1.8
		C123.6,27.6,123.9,27,124.4,26.5z M126.7,18.2c0.5,0,1-0.2,1.3-0.5c0.4-0.3,0.5-0.7,0.5-1.2c0-0.5-0.2-0.9-0.5-1.2
		c-0.3-0.3-0.8-0.5-1.3-0.5c-0.5,0-0.9,0.2-1.3,0.5c-0.3,0.3-0.5,0.7-0.5,1.2c0,0.5,0.2,0.9,0.5,1.2C125.7,18,126.2,18.2,126.7,18.2
		z M135.5,22.4l4.5,4.1c0.5,0.5,0.8,1.1,0.8,1.8c0,0.7-0.3,1.3-0.8,1.8c-0.3,0.3-0.7,0.3-1,0l-5.9-5.5L135.5,22.4z M139.4,16.5
		c0-0.5-0.2-0.9-0.5-1.2c-0.4-0.3-0.8-0.5-1.3-0.5c-0.5,0-0.9,0.2-1.3,0.5c-0.3,0.3-0.5,0.7-0.5,1.2c0,0.5,0.2,0.9,0.5,1.2
		c0.4,0.3,0.8,0.5,1.3,0.5c0.5,0,0.9-0.2,1.3-0.5C139.2,17.4,139.4,17,139.4,16.5z"/>
</g>
</svg>
