<?xml version="1.0" encoding="UTF-8"?><svg id="a" xmlns="http://www.w3.org/2000/svg" viewBox="0 0 141.9302013915 82.1000976562"><defs><style>.d{fill:#fff;}</style></defs><path class="d" d="M33.0607606671,49.5657223557l-.0773622296,.6741689249c-.0439453125,0-.0439453125,.0693359375-.087890625,.0693359375l-.2641601562,.7705078125c-.5283203125,1.0498046875-.3525390625,.2802734375-1.1010742188,2.169921875-.7045898438,1.8203125-3.4345703125,4.970703125-5.5483398438,5.951171875-2.0258789062,.9794921875-2.5541992188,.9794921875-3.4790039062,1.400390625-.880859375,.419921875-1.8056640625,.5595703125-2.6420898438,.5595703125-1.2333984375,0-3.8754882812-.490234375-5.15234375-1.6103515625-1.4536132812-1.189453125-1.849609375-1.9599609375-1.849609375-2.66015625,0-.98046875,.4404296875-2.310546875,.8364257812-3.080078125,.4404296875-.7705078125,1.4975585938-1.75,2.642578125-1.890625,.8803710938,0,2.509765625-.419921875,3.6547851562-.419921875,.96875,0,1.8056640625-.1396484375,2.6865234375-.1396484375,.3959960938,0,.572265625,.0693359375,.7045898438,.0693359375,.8803710938,0,1.7172851562-.4892578125,2.7299804688-.6298828125,.96875-.0693359375,2.0258789062-.349609375,2.7744140625-.6298828125,.1323242188-.83984375,.1762695312-1.75,.3081054688-2.5205078125,.1762695312-.76953125,.2202148438-1.1201171875,.2202148438-1.4697265625,0-.3505859375-.087890625-.6298828125-.087890625-2.1005859375,0-.83984375,0-1.6103515625-.3081054688-2.7998046875-.396484375-1.400390625-1.1010742188-2.58984375-2.2900390625-3.7802734375-.3525390625-.2797851562-.6166992188-.5600585938-.8369140625-.7700195312-1.1005859375,.5600585938-2.333984375,1.0502929688-3.1264648438,1.2602539062-.6166992188,.1401367188-1.2329101562,.2099609375-1.849609375,.2099609375-.4404296875,0-.8364257812,0-1.2329101562-.0698242188-.7045898438,1.7495117188-1.365234375,2.6596679688-1.8056640625,3.7797851562-.572265625,1.4697265625-1.4970703125,2.3798828125-1.849609375,3.640625-.3520507812,1.330078125-.9248046875,1.75-1.2768554688,2.58984375-.396484375,.6298828125-3.2587890625,5.5302734375-4.9321289062,6.9306640625-1.6293945312,1.2607421875-2.9506835938,1.8203125-4.18359375,1.8203125-1.8056640625,0-3.390625-1.259765625-3.390625-2.1005859375,0-.76953125,.572265625-1.3994140625,1.1889648438-1.3994140625,.087890625,0,.17578125,.0693359375,.2641601562,.0693359375,.6606445312,.2099609375,.4404296875,.8408203125,1.2329101562,1.400390625,.1762695312,.1396484375,.7485351562,.3505859375,1.3212890625,.3505859375,.3520507812,0,.7485351562-.0703125,1.056640625-.3505859375,.7485351562-.6298828125,1.1010742188-.419921875,2.0698242188-2.169921875,1.0126953125-1.75,1.9814453125-4.2705078125,2.6860351562-5.3203125,.7490234375-1.1201171875,.9692382812-1.05078125,1.3212890625-2.380859375,.1323242188-.419921875,.1323242188-.91015625,.9248046875-2.3095703125,.8364257812-1.6103515625,1.2768554688-4.3403320312,2.2900390625-6.30078125,1.0126953125-1.8198242188,1.7612304688-4.9702148438,2.994140625-6.720703125,1.1889648438-1.6801757812,1.3212890625-3.4301757812,1.9819335938-4.8305664062,.7045898438-1.330078125,.572265625-1.330078125,1.849609375-3.990234375,1.3208007812-2.73046875,1.7172851562-3.8505859375,2.6860351562-5.1806640625,.0439453125,0,.0439453125-.0698242188,.0883789062-.1396484375-.484375-.2104492188-1.0571289062-.4204101562-1.673828125-.490234375-.572265625-.0703125-1.1889648438-.0703125-1.8051757812-.0703125-1.453125,0-2.9506835938,.1401367188-4.0512695312,.2802734375-1.5415039062,.2099609375-5.2407226562,1.6801757812-6.7377929688,2.73046875-1.5415039062,1.0498046875-2.1137695312,1.4697265625-2.6865234375,1.75-.66015625,.2802734375-.8803710938,.83984375-1.4970703125,1.6103515625-.5283203125,.6997070312-2.0698242188,2.66015625-2.5102539062,3.6401367188-.4404296875,1.1201171875-.4404296875,.6303710938-.96875,1.6801757812-.484375,.9799804688-1.1005859375,1.330078125-1.4091796875,2.9404296875-.3081054688,1.5400390625-.4404296875,1.5400390625-.4404296875,3.3603515625,0,1.8901367188,.2641601562,2.5903320312,.7045898438,3.6401367188,.396484375,.91015625,1.4091796875,1.4702148438,2.2021484375,1.4702148438,1.0126953125,0,2.1577148438-.3500976562,3.3466796875-2.0302734375,1.2329101562-1.75,1.5415039062-1.6801757812,2.3779296875-2.9399414062,.880859375-1.2602539062,.7924804688-1.8901367188,1.453125-2.5903320312,.7045898438-.7001953125,.6606445312-1.1904296875,1.1450195312-2.5205078125,.5727539062-1.330078125,.8369140625-1.8901367188,1.1010742188-2.66015625,.1762695312-.91015625,.2202148438-1.6801757812,.2202148438-2.3100585938,0-.5600585938,.0439453125-.91015625,.3959960938-.91015625,.5288085938,0,1.365234375,1.2602539062,1.365234375,3.5004882812,0,2.8701171875-1.7612304688,5.1801757812-2.421875,6.4404296875-.6606445312,1.1899414062-2.6860351562,3.2905273438-4.2275390625,4.8305664062-2.0258789062,2.099609375-4.6240234375,2.66015625-5.1083984375,2.66015625-1.1010742188,0-1.9375-.2099609375-2.6860351562-.98046875-.96875-1.1196289062-2.1577148438-2.5200195312-2.2021484375-3.7797851562-.0439453125-.5600585938-.087890625-1.0502929688-.087890625-1.5405273438,0-.6298828125,.0439453125-1.259765625,.1762695312-1.9599609375,.3081054688-1.2602539062,.7924804688-3.2905273438,3.2143554688-6.9306640625,2.333984375-3.640625,3.21484375-3.5004882812,3.7431640625-3.9204101562,.484375-.3500976562,.484375-.7700195312,1.27734375-1.4702148438,.7924804688-.7700195312,1.5854492188-1.4702148438,2.818359375-2.240234375,1.2329101562-.6303710938,4.7998046875-2.4501953125,6.4731445312-2.73046875,1.6293945312-.2797851562,4.095703125-.5600585938,5.63671875-.5600585938,1.9819335938,0,3.302734375,.419921875,3.8754882812,.7001953125,.396484375-.5600585938,.7924804688-1.0502929688,1.2329101562-1.400390625,.7485351562-.6298828125,2.24609375-1.330078125,2.9067382812-1.330078125,.3081054688,0,.484375,.490234375,.484375,.8403320312s-.9248046875,.2797851562-1.5854492188,.9799804688c-.0883789062,.0703125-.1762695312,.0703125-.2202148438,.1401367188q-.396484375,.3500976562-.9248046875,1.3999023438c.572265625,.1401367188,1.1450195312,.3500976562,1.5854492188,.7001953125,1.056640625,.91015625,2.2895507812,1.9604492188,2.7739257812,3.0805664062,.5288085938,1.0498046875,1.27734375,2.8002929688,1.27734375,5.740234375,0,2.9404296875-.6606445312,4.8305664062-1.5854492188,6.1606445312-.880859375,1.330078125-.484375,.2802734375-1.0126953125,1.1904296875s-.3525390625,1.1899414062-1.6733398438,2.169921875c-1.365234375,.98046875-1.365234375,.5600585938-2.0698242188,1.400390625-.087890625,.0698242188-.1323242188,.2099609375-.2641601562,.2797851562,.2202148438,.0703125,.396484375,.2104492188,.572265625,.2802734375,1.2333984375,.7700195312,2.3779296875,2.0302734375,3.2587890625,3.2900390625,.2641601562,.349609375,.3081054688,.7001953125,.3081054688,1.6103515625,0,.83984375,.7045898438,.83984375,.8369140625,1.5400390625,.1762695312,.9794921875,.3081054688,1.9599609375,.3081054688,2.9404296875,0,1.259765625-.087890625,2.4501953125-.2202148438,3.5l-.0723829575,.4126937596m-4.639531105,2.4574234279c-1.3208007812,.3505859375-2.2016601562,.7001953125-2.8623046875,.7001953125-.7924804688,0-2.4658203125,.349609375-3.1704101562,.419921875-.880859375,.1396484375-3.0385742188,.419921875-3.8315429688,.419921875-.8364257812,0-1.9375,.140625-2.5981445312,.419921875-.7924804688,.3505859375-1.1889648438,.7001953125-1.1889648438,1.470703125,0,1.400390625,.5283203125,1.5400390625,.880859375,2.0302734375,.3081054688,.490234375,2.2900390625,1.6103515625,3.6547851562,1.8896484375,.6166992188,.0703125,1.189453125,.2802734375,1.8056640625,.2802734375,.2641601562,0,.484375-.0703125,.7485351562-.1396484375,.9248046875-.2802734375,1.849609375-.140625,2.5541992188-.7705078125,.7485351562-.7001953125,1.849609375-2.169921875,2.24609375-2.8701171875,.4404296875-.7001953125,1.056640625-2.80078125,1.6733398438-3.7099609375l.087890625-.140625Zm-3.8310546875-15.4711914062l-.8369140625-.349609375c-.8803710938-.2104492188-1.8491210938-.560546875-2.509765625-.560546875-.3525390625,0-.6606445312,.1401367188-.6606445312,.4204101562,0,1.0498046875,.96875,1.2602539062,1.5854492188,1.2602539062,.3081054688,0,1.3208007812-.2802734375,2.421875-.7705078125Zm3.21484375-19.3217773438c-.1762695312,.2797851562-.396484375,.6298828125-.7485351562,1.6098632812-.9692382812,2.1005859375-.9692382812,2.3803710938-1.4975585938,3.5004882812-.5283203125,1.0502929688,.0439453125,.490234375-.96875,2.9404296875-1.1010742188,2.3803710938-1.1450195312,2.8701171875-1.8935546875,5.0405273438-.396484375,1.400390625-.9248046875,2.3803710938-1.453125,3.640625,.7045898438,.0698242188,1.1889648438,.2797851562,1.6293945312,.4897460938,.3081054688,0,.66015625,.2802734375,1.0126953125,.2802734375,.2641601562,0,.484375,0,.7485351562,.0698242188l2.0258789062,.5600585938c.5283203125-.3500976562,1.0126953125-.7700195312,1.365234375-1.1899414062,1.4970703125-1.8203125,1.541015625-2.6606445312,1.8051757812-3.3603515625,.2641601562-.5600585938,.5727539062-1.6103515625,.880859375-3.0107421875,.3081054688-1.330078125,.6166992188-2.240234375,.6166992188-2.9399414062,0-1.1201171875-.484375-3.9204101562-1.4091796875-5.390625s-.96875-1.330078125-1.27734375-1.5400390625c-.1318359375,0-.3959960938-.3500976562-.8364257812-.7001953125Z"/><path class="d" d="M34.484341225,47.4829101562c-.298828125,.2724609375-.6787109375,.8037109375-1.0122070312,.8388671875-.1010742188,.06640625-.2680664062,.3603515625-.607421875,.724609375-.0966796875,.2158203125-.439453125,.5048828125-.6396484375,.63671875-.5151367188,.3603515625-.705078125,.865234375-1.1362304688,1.115234375-.5444335938,.3466796875-.9575195312,.7158203125-1.115234375,.8291015625-.04296875,.017578125-.1430664062,.083984375-.2612304688,.03125-.05859375-.0263671875-.103515625-.083984375-.1635742188-.1845703125-.0317382812-.087890625-.0209960938-.193359375,.0205078125-.2861328125,.0688476562-.1533203125,.2412109375-.2978515625,.3549804688-.39453125,.158203125-.0390625,.330078125-.1845703125,.4282226562-.3251953125,.0864257812-.03515625,.2705078125-.2109375,.3715820312-.2763671875,.4125976562-.3681640625,.328125-.2587890625,.4995117188-.4033203125,.1704101562-.1455078125,.408203125-.5185546875,.5952148438-.6201171875,.2138671875-.162109375,.86328125-.978515625,1.0927734375-1.09765625,.34375-.21484375,.6098632812-.6494140625,.9521484375-.939453125,.2006835938-.130859375,1.1025390625-1.27734375,1.3686523438-1.712890625,.2084960938-.38671875,.5473632812-.8251953125,.8500976562-1.501953125,.3447265625-.7685546875,.4467773438-1.3125,.3515625-1.576171875-.0498046875-.28125-.3974609375-.76953125-1.1044921875-1.0859375-.6767578125-.3037109375-1.3530273438-.533203125-1.7587890625-.4931640625-.4653320312,.0126953125-.728515625-.03125-1.0751953125,.1083984375-.3295898438,.1845703125-.3002929688,.1982421875-1.3251953125,.513671875-1.0546875,.302734375-1.583984375,.693359375-2.1440429688,.99609375-.5190429688,.2109375-1.1850585938,.9091796875-1.3637695312,1.30859375-.234375,.5234375-.107421875,.94921875,.2451171875,1.107421875,.119140625,.052734375,.279296875,.087890625,.4541015625,.0927734375,.4521484375,.017578125,.5483398438-.1982421875,.9350585938-.4306640625,.2734375-.1357421875,.4760742188-.1923828125,.5942382812-.1396484375,.05859375,.0263671875,.1328125,.0966796875,.1206054688,.2021484375,.0180664062,.1181640625-.0629882812,.376953125-.1591796875,.5927734375-.0825195312,.1845703125-.1518554688,.337890625-.2954101562,.421875-.2861328125,.1669921875-.7094726562,.1611328125-1.0107421875,.2841796875-.259765625,.10546875-.5078125,.10546875-.7724609375-.0126953125-.087890625-.0400390625-.1767578125-.0791015625-.28125-.1630859375-.65234375-.4404296875-.5537109375-1.76171875-.2778320312-2.376953125,.26171875-.583984375,.4750976562-.7470703125,.5854492188-.9931640625,.0830078125-.1845703125,.4301757812-.25,.5263671875-.46484375,.0551757812-.123046875,.3784179688-.6064453125,.732421875-1.0009765625,.19921875-.20703125,.5971679688-.544921875,.8686523438-.755859375,.556640625-.451171875,2.6953125-2.2255859375,3.0390625-2.4404296875s.3559570312-.3208007812,.666015625-.6982421875c.3012695312-.1977539062,.642578125-.4873046875,1.6518554688-1.4755859375,.3833007812-.3818359375,.9233398438-.8779296875,1.0830078125-.9169921875,.1025390625,.0087890625,.4575195312-.3125,.6245117188-.6064453125,.1147460938-.0966796875,.1420898438-.158203125,.328125-.2592773438,.228515625-.1928710938,.3569335938-.3198242188,.4741210938-.2670898438,.1337890625,.0966796875,.154296875,.3642578125,.0854492188,.5180664062s-.3530273438,.3950195312-.3969726562,.4125976562l-1.8334960938,1.7265625c-.19921875,.2055664062-.8393554688,.767578125-1.1811523438,1.0576171875-.3447265625,.21484375-1.3666992188,1.2333984375-1.9096679688,1.6552734375,.3022460938-.123046875,.6215820312-.2021484375,.8647460938-.3515625,.6469726562-.3369140625,1.5366210938-.271484375,1.9560546875-.341796875,.3935546875-.0078125,.923828125,.2294921875,1.349609375,.3828125,.1611328125,.0361328125,.279296875,.0888671875,.396484375,.1416015625,.2353515625,.10546875,.4580078125,.2421875,.7124023438,.541015625,.3334960938,.517578125,.4506835938,1.677734375,.3364257812,2.328125-.0498046875,.34765625-.2119140625,.865234375-.4184570312,1.326171875-.1655273438,.369140625-.3735351562,.755859375-.5561523438,1.005859375-.4326171875,.7294921875-1.205078125,1.8232421875-1.7856445312,2.486328125-.4956054688,.552734375-.7885742188,1.048828125-.9296875,1.20703125Z"/><g id="b"><rect class="d" x="40.3091705883" y="48.1520378655" width="1.1269162449" height="13.1017231977" rx=".4999995053" ry=".4999995053"/><rect class="d" x="41.9360868373" y="48.1520378655" width="1.1269162449" height="13.1017231977" rx=".4999995053" ry=".4999995053"/><rect class="d" x="43.5630030863" y="48.1520378655" width="1.1269162449" height="13.1017231977" rx=".4999995053" ry=".4999995053"/><rect class="d" x="45.1899193353" y="48.1520378655" width="1.1269162449" height="13.1017231977" rx=".4999995053" ry=".4999995053"/><rect class="d" x="46.8168355843" y="48.1520378655" width="1.1269162449" height="13.1017231977" rx=".4999995053" ry=".4999995053"/><rect class="d" x="48.4437518333" y="48.1520378655" width="1.1269162449" height="13.1017231977" rx=".4999995053" ry=".4999995053"/><rect class="d" x="50.0706680823" y="48.1520378655" width="1.1269162449" height="13.1017231977" rx=".4999995053" ry=".4999995053"/><rect class="d" x="51.6975843313" y="48.1520378655" width="1.1269162449" height="13.1017231977" rx=".4999995053" ry=".4999995053"/><rect class="d" x="53.3245005803" y="48.1520378655" width="1.1269162449" height="13.1017231977" rx=".4999995053" ry=".4999995053"/><rect class="d" x="54.9514168293" y="48.1520378655" width="1.1269162449" height="13.1017231977" rx=".4999995053" ry=".4999995053"/><rect class="d" x="56.5783330783" y="48.1520378655" width="1.1269162449" height="13.1017231977" rx=".4999995053" ry=".4999995053"/><rect class="d" x="58.2052493273" y="48.1520378655" width="1.1269162449" height="13.1017231977" rx=".4999995053" ry=".4999995053"/><rect class="d" x="59.8321655763" y="48.1520378655" width="1.1269162449" height="13.1017231977" rx=".4999995053" ry=".4999995053"/><rect class="d" x="61.4590818253" y="48.1520378655" width="1.1269162449" height="13.1017231977" rx=".4999995053" ry=".4999995053"/><rect class="d" x="63.0859980743" y="48.1520378655" width="1.1269162449" height="13.1017231977" rx=".4999995053" ry=".4999995053"/><rect class="d" x="64.7129143233" y="48.1520378655" width="1.1269162449" height="13.1017231977" rx=".4999995053" ry=".4999995053"/><rect class="d" x="66.3398305723" y="48.1520378655" width="1.1269162449" height="13.1017231977" rx=".4999995053" ry=".4999995053"/><rect class="d" x="67.9667468213" y="48.1520378655" width="1.1269162449" height="13.1017231977" rx=".4999995053" ry=".4999995053"/><rect class="d" x="69.5936630703" y="48.1520378655" width="1.1269162449" height="13.1017231977" rx=".4999995053" ry=".4999995053"/><rect class="d" x="71.2205793193" y="48.1520378655" width="1.1269162449" height="13.1017231977" rx=".4999995053" ry=".4999995053"/><rect class="d" x="72.8474955683" y="48.1520378655" width="1.1269162449" height="13.1017231977" rx=".4999995053" ry=".4999995053"/><rect class="d" x="74.4744118173" y="48.1520378655" width="1.1269162449" height="13.1017231977" rx=".4999995053" ry=".4999995053"/><rect class="d" x="76.1013280663" y="48.1520378655" width="1.1269162449" height="13.1017231977" rx=".4999995053" ry=".4999995053"/><rect class="d" x="77.7282443153" y="48.1520378655" width="1.1269162449" height="13.1017231977" rx=".4999995053" ry=".4999995053"/><rect class="d" x="79.3551605643" y="48.1520378655" width="1.1269162449" height="13.1017231977" rx=".4999995053" ry=".4999995053"/><rect class="d" x="80.9820768133" y="48.1520378655" width="1.1269162449" height="13.1017231977" rx=".4999995053" ry=".4999995053"/><rect class="d" x="82.6089930623" y="48.1520378655" width="1.1269162449" height="13.1017231977" rx=".4999995053" ry=".4999995053"/><rect class="d" x="84.2359093113" y="48.1520378655" width="1.1269162449" height="13.1017231977" rx=".4999995053" ry=".4999995053"/><rect class="d" x="85.8628255603" y="48.1520378655" width="1.1269162449" height="13.1017231977" rx=".4999995053" ry=".4999995053"/><rect class="d" x="87.4897418093" y="48.1520378655" width="1.1269162449" height="13.1017231977" rx=".4999995053" ry=".4999995053"/><rect class="d" x="89.1166580583" y="48.1520378655" width="1.1269162449" height="13.1017231977" rx=".4999995053" ry=".4999995053"/><path class="d" d="M43.5381850437,43.197408415h51.0478699769v6.568493821H40.3091705842v-3.3394793615c0-1.7821415945,1.446872865-3.2290144595,3.2290144595-3.2290144595Z"/><path class="d" d="M140.6240019759,60.6271070233c-.4552468916-.3908934959-4.0893423568-4.104566851-13.5730952455-4.104566851s-11.8771455911,4.104566851-12.7281895677,4.104566851h-3.618805543c-.7355878022,0-4.2427315555-2.2646476155-9.4837528887-2.2646476155s-7.806718249,2.2646476155-8.6500635718,2.2646476155-1.3061994156-.4106049689-1.3061994157-.917111867l-.0000000032-15.5954748718c-.0000000001-.5065068981,.584805398-.9171118672,1.3061994155-.9171118672,0,0,24.7128198635-.0000000026,36.5418283747-.0000000026s12.8182778611-.7036478553,12.8182778611,9,0,7.5125867415,0,7.5125867415c0,.5065068981-.8509525241,1.308005363-1.3061994157,.9171118671Z"/></g><g id="c"><g><path class="d" d="M48.1635404438,35.099609375c.0874023438-.1000976562,.2622070312-.1997070312,.3276367188-.25,.0659179688-.1000976562,.1967773438-.1997070312,.2841796875-.3999023438,.0654296875-.1000976562,.2182617188-.25,.3276367188-.25,.0874023438,0,.240234375,.2001953125,.240234375,.5,0,.2001953125-.0869140625,.2998046875-.1088867188,.3500976562-.0874023438,.1499023438-.4155273438,.5-.4155273438,.5-.1088867188,.2001953125-.3930664062,.2998046875-.48046875,.4501953125-.109375,.1499023438-.2841796875,.1997070312-.5024414062,.349609375-.0874023438,.0502929688-.1967773438,.2001953125-.2841796875,.3002929688-.2841796875,.2998046875-.69921875,.4501953125-1.1362304688,.6000976562-.48046875,.1499023438-.9833984375,.1997070312-1.748046875,.1997070312-.3056640625,0-.7866210938-.1499023438-1.1796875-.3999023438-.21875,.7006835938-.5463867188,1.5502929688-.8740234375,2.0004882812-.3061523438,.349609375-.2407226562,.599609375-.4809570312,.849609375-.9174804688,.9501953125-1.5297851562,1.150390625-2.2944335938,1.150390625-.1528320312,0-.9833984375-.5-1.1796875-1.650390625-.1533203125-.69921875-.2841796875-1.5498046875-.2841796875-2.25,0-.3500976562,.0439453125-.6499023438,.109375-.8999023438,.240234375-.7001953125,.0654296875-1.150390625,.240234375-1.7001953125,.1748046875-.4501953125,.3935546875-1.650390625,.48046875-1.8500976562,0,0,0-.0502929688,.0219726562-.1499023438-.1748046875,.3999023438-.4370117188,.4497070312-.5678710938,.6499023438-.1748046875,.2998046875-.8525390625,.7998046875-.9614257812,.8999023438-.0874023438,.0502929688-.5463867188,.6000976562-.5463867188,.6000976562-.0654296875,.0498046875-.2841796875,.2998046875-.349609375,.2998046875-.1528320312,0-.3056640625-.1997070312-.3056640625-.4497070312,0-.2001953125,.1528320312-.3002929688,.3056640625-.5,.0654296875-.2001953125,.1528320312-.2001953125,.240234375-.3002929688,.1967773438-.0498046875,.4809570312-.349609375,.5244140625-.5,.0654296875-.1997070312,.458984375-.6499023438,.8305664062-.9497070312,.8959960938-.900390625,1.1577148438-1.4501953125,1.4204101562-1.4501953125,.1962890625-.1499023438,.37109375-.25,.5458984375-.5502929688-.021484375-.3500976562-.0874023438-.6997070312-.0874023438-.9497070312,0-.1000976562,0-.150390625,.0219726562-.2001953125,.0874023438-.8500976562,0-1.4501953125,.240234375-2.1000976562s.5463867188-1.1000976562,.80859375-1.3500976562c.2622070312-.3500976562,.7646484375-.7001953125,1.0048828125-.8500976562,.2626953125-.1000976562,.568359375-.2001953125,.787109375-.2001953125,.3056640625,0,.830078125,.5,1.048828125,.9501953125,.1962890625,.3999023438,.3056640625,1.1499023438,.4365234375,1.650390625,.087890625,.2998046875,.1748046875,1.3999023438,.1748046875,2.3500976562,0,.349609375-.021484375,.6997070312-.0434570312,.9497070312-.0434570312,1-.0434570312,1.9501953125-.1967773438,2.4501953125-.130859375,.5-.240234375,1.0502929688-.37109375,1.6000976562,0,.0502929688-.0219726562,.1000976562-.0219726562,.1499023438-.109375,.4501953125-.21875,.9501953125-.3935546875,1.3500976562,.2622070312,.2001953125,.5903320312,.3500976562,1.0927734375,.4501953125,.349609375,0,.58984375-.1000976562,.8081054688-.1000976562,.1748046875,0,.2407226562,.0502929688,.3061523438,.0502929688,.2622070312,0,.5678710938-.150390625,.9174804688-.400390625,.4375-.2998046875,.5244140625-.349609375,.7651367188-.599609375,.1528320312-.150390625,.2836914062-.150390625,.5024414062-.400390625Zm-5.2880859375,1.4501953125c-.3056640625-.2998046875-.5458984375-.5-.7426757812-.8500976562-.1528320312-.2998046875-.458984375-.7001953125-.6772460938-1.1499023438-.1313476562-.3002929688-.568359375-1.4501953125-.7211914062-2.0502929688l-.2841796875,1.150390625c-.130859375,.5498046875-.3056640625,2.1000976562-.349609375,2.75-.0219726562,.5-.0654296875,1-.0654296875,1.5498046875,0,1.2509765625,.1967773438,1.6005859375,.349609375,1.7509765625,.0874023438,.099609375,.1748046875,.1494140625,.3061523438,.1494140625,.1088867188,0,.26171875-.0498046875,.4365234375-.1494140625,.1967773438-.150390625,.4155273438-.6005859375,.677734375-.80078125,.2622070312-.2998046875,.3930664062-.849609375,.6118164062-1.1494140625,.0874023438-.150390625,.2622070312-.7006835938,.4584960938-1.2006835938Zm.328125-1.2001953125l.2182617188-.7998046875c.1313476562-.5502929688,.1967773438-1.5,.2622070312-2s.0654296875-1.400390625,.109375-2.0004882812c.0219726562-.1997070312,.0219726562-.349609375,.0219726562-.5498046875,0-.4501953125-.0439453125-.8500976562-.0874023438-1.1499023438-.0654296875-.4501953125,.021484375-1.150390625-.21875-1.4501953125-.2841796875-.3500976562-.3056640625-.8500976562-.6118164062-1.3500976562-.1748046875-.2001953125-.2622070312-.25-.349609375-.25-.0654296875,0-.130859375,.0498046875-.240234375,.0498046875-.240234375,.1000976562-.3276367188,.6000976562-.4370117188,1.0502929688-.0874023438,.2998046875-.0874023438,.6997070312-.0874023438,1.0498046875,0,.25,.0219726562,.4501953125,.0219726562,1.5,0,.3002929688,0,.6000976562,.0434570312,.900390625,.1313476562,.75,.1748046875,1.3500976562,.2622070312,2.0498046875,.0439453125,.650390625,.240234375,1.3500976562,.458984375,1.8500976562,.1528320312,.3002929688,.4150390625,.75,.6337890625,1.1000976562Z"/><path class="d" d="M55.87691935,39.2504882812c-.3276367188,0-1.1362304688-.3505859375-1.3110351562-.650390625-.3056640625-.650390625-.5458984375-1.8002929688-.5458984375-2.4501953125,0-.5,.0869140625-1.4501953125,.2182617188-1.6000976562,.1313476562-.1000976562,.0219726562-.7001953125,.1967773438-1.4501953125,.1962890625-.7001953125,.48046875-1.25,.5244140625-1.5502929688,0-.099609375,.5678710938-1.6499023438,.5678710938-1.8999023438-.130859375-.2998046875-.3715820312-.4501953125-.69921875-.9501953125-.6333007812,.900390625-1.3325195312,1.7504882812-1.5732421875,2.0004882812-.2182617188,.349609375-1.0922851562,1.1499023438-1.3325195312,1.5-.2407226562,.2998046875-.7651367188,.8500976562-.91796875,1l-.9614257812,1c-.1528320312,.2001953125-.3276367188,.2998046875-.5463867188,.5-.0654296875,.0498046875-.2841796875,.2998046875-.37109375,.2998046875-.1313476562,0-.2626953125-.1997070312-.2626953125-.4497070312,0-.2001953125,.109375-.25,.2626953125-.4501953125,.0869140625-.1997070312,.1962890625-.1997070312,.240234375-.25,.2182617188-.1000976562,.5244140625-.4497070312,.5458984375-.5498046875,.0439453125-.150390625,.5029296875-.6000976562,.8305664062-.900390625l.6557617188-.7998046875c.1748046875-.2001953125,.4584960938-.3999023438,.6552734375-.7001953125,.2841796875-.1997070312,.349609375-.1997070312,.58984375-.6000976562,.1313476562-.1997070312,1.2021484375-1.3999023438,1.8134765625-2.1499023438-.1088867188-.25-.1962890625-.4501953125-.2182617188-.6000976562-.1528320312-.5-.3715820312-1.0502929688-.3930664062-2,0-.900390625,0-1.7001953125,.130859375-2.5004882812,.130859375-.8500976562,.4150390625-1.6000976562,.6118164062-2.0498046875,.2622070312-.5502929688,1.0053710938-1.1000976562,1.5297851562-1.1000976562,.240234375,0,.5024414062,.0498046875,.6772460938,.2998046875,.1967773438,.3002929688,.4150390625,.400390625,.4150390625,1.0502929688,0,.2998046875,.1313476562,.5,.1313476562,.8999023438,0,.3500976562,0,1.1000976562-.2626953125,1.9501953125-.26171875,.8500976562-.4150390625,.8999023438-.5458984375,1.6499023438-.1313476562,.8002929688-.5244140625,.9501953125-.80859375,1.7001953125-.0874023438,.1499023438-.130859375,.3500976562-.240234375,.4501953125,.3276367188,.8999023438,.720703125,1,.9833984375,1.4501953125,.2836914062,.5,.4584960938,1.5,.4584960938,2.0498046875,0,.1000976562,0,.2001953125-.0219726562,.25-.0654296875,.400390625-.349609375,.900390625-.48046875,1.400390625s-.3276367188,1-.4150390625,1.5c-.1313476562,.5498046875-.1967773438,.9501953125-.1967773438,1.5,0,.6499023438,.1528320312,1.3500976562,.5244140625,1.6000976562,.1748046875,.1005859375,.3715820312,.150390625,.5244140625,.150390625,.109375,0,.2182617188,0,.2841796875-.0498046875,.2836914062-.30078125,.6333007812-.150390625,.8081054688-.3505859375,.21875-.25,.5029296875-.1000976562,.7431640625-.4501953125,.109375-.25,.7431640625-.5498046875,.8520507812-.7998046875,.1528320312-.2001953125,.458984375-.3500976562,.5903320312-.5,.1528320312-.1499023438,.0434570312-.1000976562,.37109375-.4501953125,.3935546875-.4501953125,.458984375-.5,.568359375-.75,.0654296875-.1000976562,.1748046875-.2001953125,.2622070312-.2001953125,.0434570312,0,.0654296875-.0498046875,.0874023438-.0498046875,.0434570312,0,.0874023438,.0498046875,.109375,.1000976562,.0654296875,.1499023438,.130859375,.25,.130859375,.3999023438,0,.3500976562-.3715820312,.6000976562-.5463867188,.8500976562-.1088867188,.1499023438-.1967773438,.2001953125-.3276367188,.3500976562-.2622070312,.5-.6337890625,.6000976562-.9833984375,1.1000976562-.0654296875,.1000976562-.5458984375,.4497070312-.5458984375,.5004882812-.3061523438,.25-.458984375,.19921875-.5029296875,.349609375-.130859375,.400390625-.939453125,.7001953125-1.1796875,.9501953125-.1533203125,.099609375-1.4204101562,.4501953125-1.7045898438,.4501953125Zm-.7211914062-13.5014648438c0,.400390625,.0219726562,.8002929688,.0659179688,1.2001953125,.7426757812-1.1000976562,.9174804688-1.6000976562,1.1142578125-2.25,.1528320312-.7001953125,.0874023438-.8999023438,.2622070312-1.6000976562,.0654296875-.25,.0874023438-.3999023438,.0874023438-.5502929688,0-.25-.0654296875-.5-.0874023438-.8500976562,0-.5-.1967773438-.8999023438-.3935546875-.8999023438-.1748046875,.0502929688-.4584960938,.3002929688-.58984375,.8500976562-.109375,.4501953125-.1962890625,.5-.3056640625,.9501953125-.109375,.3999023438-.109375,1.2001953125-.109375,1.7998046875-.0219726562,.25-.0439453125,.8002929688-.0439453125,1.3500976562Z"/><path class="d" d="M71.2602201313,40.1000976562c-.087890625,0-.1748046875,.0498046875-.2626953125,.0498046875-.3056640625,0-.5244140625-.1494140625-.830078125-.3994140625-.3935546875-.2001953125-.80859375-1.5-.80859375-2.5004882812,0-.7001953125,.21875-2.7504882812,.2622070312-3.400390625,.0439453125-.6499023438,.21875-1.0498046875,.21875-1.25,0-.0498046875-.0219726562-.1000976562-.0874023438-.1000976562-.1748046875,0-.2622070312,.4501953125-.3935546875,.75-.1528320312,.3002929688-.9833984375,1.25-1.0268554688,1.7001953125-.0219726562,.4501953125-.6772460938,1.1499023438-.8305664062,1.4501953125-.1528320312,.3500976562-.37109375,.6499023438-.611328125,.8500976562-.21875,.1499023438-.3061523438,.3500976562-.568359375,.6997070312-.2622070312,.400390625-.6337890625,.7001953125-1.267578125,.7001953125-.611328125,0-1.2670898438-1.25-1.2670898438-1.7998046875,0-.8002929688,.0874023438-1.5502929688,.2182617188-1.900390625,.1967773438-.3999023438,.1313476562-.6000976562,.3061523438-1.3500976562,.1313476562-.6499023438,.3715820312-1.3999023438,.6337890625-2.25-1.0053710938,1.1499023438-1.5078125,1.7001953125-1.748046875,1.8999023438-.4370117188,.400390625-.9399414062,.9501953125-1.4423828125,1.4501953125-.0219726562,.0498046875-.240234375,.2998046875-.349609375,.2998046875-.1088867188,0-.2622070312-.1997070312-.2836914062-.4497070312,0-.2001953125,.1088867188-.3002929688,.2836914062-.5,.109375-.2001953125,.1528320312-.2001953125,.2407226562-.3002929688,.2182617188-.0498046875,.5024414062-.349609375,.5244140625-.5,.0654296875-.1997070312,.5024414062-.6499023438,1.4853515625-1.6499023438,.1967773438-.1499023438,.4375-.4501953125,.6557617188-.7001953125,.2841796875-.2998046875,.3715820312-.1000976562,.58984375-.5,.109375-.1499023438,.6557617188-.8500976562,1.2236328125-1.5,.1967773438-.2001953125,.3715820312-.3500976562,.4809570312-.5,.58984375-.8500976562,.80859375-.8999023438,.8520507812-.8999023438,.1967773438-.3002929688,.3930664062-.5502929688,.6118164062-.5502929688,.2622070312,0,.0874023438-.1499023438,.3715820312-.4501953125,.130859375-.1997070312,.349609375-.25,.5463867188-.25,.130859375,0,.26171875,0,.3930664062,.1000976562,.2622070312,.2001953125,.58984375,1.0502929688,.58984375,1.8002929688,0,.3999023438-.0874023438,.6000976562-.1528320312,.8500976562-.0874023438,.2998046875-.1748046875,.3500976562-.349609375,.3500976562-.109375,0-.1528320312-.3002929688-.1528320312-.5,0-.2001953125,.0654296875-.400390625,.0654296875-.7504882812,0-.25-.0219726562-.5498046875-.1748046875-.5498046875-.1967773438,0-.4809570312,.2998046875-.6772460938,.3999023438-.1748046875,.0502929688-.4809570312,1.1000976562-.80859375,1.5502929688-.240234375,.3500976562-.568359375,.75-.939453125,1.6499023438-.3715820312,.9501953125-.4150390625,1.150390625-.69921875,1.9501953125-.3715820312,.8999023438-.58984375,1.7001953125-.58984375,2.9501953125,0,.75,.0654296875,.9501953125,.1962890625,1.1000976562,.0219726562,0,.0654296875,.0498046875,.109375,.0498046875,.1967773438,0,.48046875-.349609375,.8959960938-.9497070312,.5244140625-.7001953125,.6333007812-1.150390625,1.0048828125-1.3500976562,.349609375-.2001953125,.2622070312-.5,.5024414062-.900390625,.2407226562-.4497070312,.5463867188-.8500976562,.80859375-1.2998046875,.2622070312-.4501953125,.458984375-1.150390625,.69921875-1.5,.21875-.3500976562,.3061523438-.5,.3061523438-.5,0,0,.4584960938-3.2001953125,.7426757812-4.150390625,.2841796875-1,1.0053710938-4.9501953125,1.2236328125-5.150390625,.21875-.1499023438,.349609375-.9501953125,.349609375-1.2001953125s.240234375-.5498046875,.328125-1.1499023438c.109375-.5502929688,.5029296875-1.75,.7861328125-2.3002929688,.2626953125-.5498046875,.65625-1.7998046875,.765625-1.8999023438,.130859375-.0502929688,.3271484375-.7001953125,.3271484375-.8500976562,.0654296875-.25,.5244140625-1.3002929688,.8525390625-1.75,.3056640625-.4501953125,.4150390625-.4501953125,.48046875-.4501953125,.0439453125,0,.1962890625-.6000976562,.4365234375-.6499023438,.349609375,0,.9619140625,.1499023438,.9619140625,1.3999023438,0,.6499023438-.0654296875,1.3999023438-.240234375,1.9501953125-.21875,.7001953125-.3056640625,1.25-.5244140625,1.6499023438-.197265625,.400390625-.5029296875,1.5004882812-.69921875,2.0004882812-.197265625,.5498046875-.2841796875,1.8500976562-.939453125,3.1499023438-.6552734375,1.3500976562-.939453125,2.4501953125-1.24609375,3.1000976562-.283203125,.6000976562-1.048828125,2.150390625-1.1357421875,2.5502929688-.109375,.4501953125-.087890625,.75-.349609375,1.0502929688-.328125,.5498046875-.4155273438,1.5498046875-.5244140625,2.4501953125-.0659179688,.599609375-.328125,1.9497070312-.4375,3.1000976562-.1528320312,1.1000976562-.2836914062,2.8999023438-.2836914062,3.8999023438,0,.7001953125,.2622070312,.9501953125,.5024414062,.9501953125,.4370117188,0,.8740234375-.2001953125,1.0708007812-.2998046875,.3061523438-.2001953125,.6118164062-.349609375,.7426757812-.5,.2626953125-.3500976562,.546875-.3002929688,.787109375-.650390625,.130859375-.25,.7646484375-.6499023438,.939453125-.8500976562,.109375-.1997070312,.37109375-.2998046875,.5244140625-.4497070312,.130859375-.1499023438,.04296875-.1000976562,.3271484375-.4501953125,.197265625-.1499023438,.3935546875-.3999023438,.5908203125-.7001953125,.0654296875-.1499023438,.2177734375-.2998046875,.3271484375-.2998046875,.0654296875,0,.130859375,.0498046875,.1748046875,.1499023438,.0654296875,.1499023438,.087890625,.25,.087890625,.3500976562,0,.2001953125-.087890625,.2998046875-.087890625,.3500976562-.26171875,.2998046875-.5244140625,.6000976562-.7861328125,1.0498046875-.2841796875,.5004882812-.6123046875,.400390625-.9619140625,.900390625-.1748046875,.25-.392578125,.3999023438-.5673828125,.5004882812-.306640625,.25-.5244140625,.2998046875-.568359375,.3994140625-.109375,.4501953125-.830078125,.900390625-1.048828125,1.150390625-.2841796875,.2001953125-1.24609375,.9501953125-1.6826171875,1.0498046875Zm1.8349609375-16.30078125c.1318359375-.3500976562,.546875-1.1000976562,.787109375-1.650390625,.26171875-.5,.37109375-1,.6337890625-1.75,.21875-.7001953125,.4150390625-.8500976562,.58984375-1.4501953125,.1748046875-.7001953125,.240234375-.9501953125,.5244140625-1.8500976562,.3056640625-.9501953125,.69921875-1.7001953125,.7861328125-2.5,.0224609375-.1000976562,.1748046875-.650390625,.1748046875-.9501953125,0-.1499023438-.021484375-.25-.109375-.25-.1962890625,0-.5458984375,1.1000976562-1.201171875,2.650390625-.1533203125,.3999023438-.3056640625,.7998046875-.4375,1.3500976562-.130859375,.599609375-.4580078125,1.3999023438-.5458984375,1.75-.130859375,.2998046875-.3935546875,1-.48046875,1.6000976562-.0654296875,.5-.240234375,.9497070312-.4150390625,1.5498046875-.197265625,.6000976562-.240234375,1.0502929688-.306640625,1.5004882812Z"/><path class="d" d="M83.4535795063,40.0502929688c-.087890625,0-.17578125,.0498046875-.2626953125,.0498046875-.4365234375,0-.9619140625-.2001953125-1.3115234375-.3994140625-.392578125-.30078125-.6552734375-.80078125-.8076171875-1.25-.1748046875-.55078125-.5244140625-1.4008789062-.5244140625-2.05078125-.0224609375-.6499023438-.087890625-1.5-.087890625-2.0502929688,0-.3500976562,.109375-.5498046875,.130859375-1.3500976562,0-.6499023438,.2626953125-1.6499023438,.58984375-2.6000976562-.501953125,.6499023438-1.3759765625,1.4501953125-1.5947265625,1.8002929688-.240234375,.2998046875-.7646484375,.8500976562-.91796875,1-.240234375,.25-.6767578125,.6000976562-.9609375,.9501953125-.1748046875,.1997070312-.3935546875,.349609375-.5458984375,.5498046875-.06640625,.0498046875-.2841796875,.2998046875-.349609375,.2998046875-.1533203125,0-.306640625-.1997070312-.306640625-.4497070312,0-.2001953125,.1533203125-.3002929688,.306640625-.5,.0654296875-.2001953125,.15234375-.2001953125,.240234375-.3002929688,.1962890625-.0498046875,.48046875-.349609375,.5244140625-.5,.0654296875-.1997070312,.48046875-.5498046875,.830078125-.9497070312,.1533203125-.150390625,.48046875-.400390625,.6552734375-.7001953125,.1533203125-.25,.4375-.4501953125,.6552734375-.7001953125,.2626953125-.2998046875,.328125-.1499023438,.5908203125-.5,.3271484375-.4501953125,1.66015625-2.1000976562,2.2060546875-2.7001953125,.8525390625-.9501953125,1.13671875-1.25,1.5517578125-1.6000976562,.1962890625-.1499023438,.4375-.25,.677734375-.25,.2177734375,0,.4150390625,.0502929688,.5673828125,.1499023438,.2626953125,.25,.3720703125,1.0502929688,.3720703125,1.650390625,0,.6499023438-.1748046875,1.2998046875-.3720703125,1.7998046875-.240234375,.7504882812-.720703125,1.7001953125-1.0703125,2.2504882812-.4150390625,.6499023438-.7646484375,1.1997070312-1.2236328125,1.75-.2841796875,.3999023438-.6552734375,.7001953125-.8955078125,.8500976562,0,.2998046875,.04296875,.6000976562,.04296875,.9501953125,.0439453125,.5,.2626953125,1.7998046875,.4150390625,2.1499023438,.197265625,.400390625,.416015625,.5,.525390625,.650390625,.0869140625,.099609375,.4365234375,.1494140625,.7421875,.1494140625,.787109375,0,1.1142578125-.099609375,1.267578125-.25,.3056640625-.19921875,.69921875-.349609375,.830078125-.5498046875,.2626953125-.25,.5244140625-.1000976562,.7646484375-.4501953125,.109375-.25,.7646484375-.6499023438,.91796875-.8500976562,.109375-.1997070312,.3935546875-.2998046875,.5458984375-.4497070312,.1318359375-.1499023438,.0439453125-.1000976562,.328125-.4501953125,.109375-.1000976562,.2626953125-.25,.328125-.3500976562,.0869140625-.1000976562,.26171875-.3999023438,.2841796875-.4497070312,.0869140625-.1000976562,.1962890625-.2001953125,.3056640625-.2001953125,.0654296875,0,.130859375,.0498046875,.1962890625,.1499023438,.0439453125,.1499023438,.0654296875,.25,.0654296875,.3500976562,0,.2001953125-.0654296875,.2998046875-.0869140625,.3500976562-.130859375,.1499023438-.458984375,.5-.458984375,.5-.0869140625,.2001953125-.2626953125,.3500976562-.328125,.5498046875-.3056640625,.4501953125-.611328125,.400390625-.9609375,.900390625-.1748046875,.25-.3935546875,.3999023438-.568359375,.5004882812-.2841796875,.25-.5244140625,.2998046875-.568359375,.3994140625-.1083984375,.4501953125-.830078125,.8505859375-1.1142578125,1.05078125-.21875,.2998046875-1.091796875,.849609375-2.140625,1.099609375Zm-1.24609375-6.80078125c.2626953125-.1997070312,.58984375-.5498046875,.7646484375-.7998046875,.349609375-.6000976562,.7216796875-1.150390625,.80859375-1.3002929688,.109375-.25,.6552734375-1.6000976562,.7431640625-1.8999023438,.109375-.3002929688,.1962890625-.8500976562,.1962890625-1.25,0-.150390625-.0869140625-.400390625-.240234375-.400390625-.0869140625,0-.1962890625,.1000976562-.3271484375,.3002929688-.349609375,.6000976562-.6123046875,1.1000976562-.765625,1.4501953125-.3056640625,.6499023438-.8515625,1.8999023438-1.091796875,3.2998046875-.06640625,.3002929688-.06640625,.400390625-.087890625,.6000976562Z"/><path class="d" d="M89.7895170063,34.6997070312c-.0654296875,.0498046875-.283203125,.2998046875-.349609375,.2998046875-.15234375,0-.3056640625-.1997070312-.3056640625-.4497070312,0-.2001953125,.1533203125-.3002929688,.3056640625-.5,.06640625-.2001953125,.1533203125-.2001953125,.2412109375-.3002929688,.1962890625-.0498046875,.48046875-.349609375,.5244140625-.5,.0654296875-.1997070312,.4150390625-.6000976562,.9169921875-1.0498046875,.7431640625-.650390625,1.005859375-1.0502929688,1.2236328125-1.3002929688,.2626953125-.2998046875,.349609375-.1000976562,.58984375-.5,.087890625-.1000976562,.328125-.1997070312,.677734375-.6000976562,.458984375-.4497070312,.5244140625-.5498046875,.6552734375-.6997070312,1.005859375-1.0502929688,1.5302734375-1.4501953125,2.0107421875-1.8500976562,.328125,0,.6552734375-.900390625,1.048828125-.900390625,.240234375,0,.458984375-.5,.7431640625-.5,.0869140625,0,.240234375,.0502929688,.349609375,.0502929688,.04296875,0,.1083984375-.0502929688,.130859375-.150390625,.0439453125-.1499023438,.37109375-.1997070312,.6552734375-.1997070312,.240234375,0,.58984375,.2998046875,.830078125,.7998046875s.458984375,1.3500976562,.458984375,2.150390625c0,.8500976562,0,1.1499023438-.1748046875,1.7001953125-.130859375,.5-.349609375,1.0498046875-.5673828125,1.0498046875-.17578125-.0498046875-.21875-.3999023438-.21875-.6499023438s.15234375-.900390625,.37109375-1.5c.021484375-.0502929688,.0439453125-.25,.0439453125-.4501953125,0-.4501953125-.0654296875-1.0502929688-.21875-1.25-.1533203125-.3500976562-.3935546875-.5-.6337890625-.5-.0654296875,0-.15234375,.0498046875-.21875,.0498046875-.3056640625,.1499023438-.501953125,.3500976562-1.091796875,.9501953125-.546875,.6000976562-.8740234375,1.3500976562-1.3330078125,1.7998046875-.48046875,.5502929688-1.158203125,1.9501953125-1.3544921875,2.5502929688-.21875,.6499023438-.306640625,.6499023438-.677734375,2.150390625-.4150390625,1.6000976562-.4375,1.75-.5029296875,2.6000976562,0,.1499023438-.021484375,.25-.021484375,.3500976562,0,.650390625,.1533203125,.849609375,.349609375,.849609375s.8525390625-1,1.048828125-1.349609375c.2626953125-.5502929688,.6552734375-1.150390625,1.0048828125-1.900390625,.130859375-.2998046875,.197265625-.6499023438,.48046875-1.5498046875,.2841796875-.9501953125,.7216796875-1.2001953125,.9833984375-1.3500976562,.2412109375-.2504882812,.4375-.4501953125,.5908203125-.4501953125,.173828125,0,.3056640625,.2998046875,.3056640625,.7001953125,0,.099609375,0,.1997070312-.0224609375,.2998046875-.021484375,.2001953125-.021484375,.3999023438-.021484375,.5498046875,0,.3500976562,.021484375,.6000976562,.021484375,.9501953125,0,.4501953125,.197265625,2.2001953125,.3720703125,2.6000976562,.1748046875,.3500976562,.48046875,.6000976562,.611328125,.75,.0654296875,.150390625,.6552734375,.25,1.02734375,.25,.48046875,0,.830078125-.099609375,.9609375-.2998046875,.2626953125-.3500976562,.5244140625-.1499023438,.7646484375-.5,.109375-.25,.765625-.6499023438,.896484375-.8002929688,.15234375-.25,.4150390625-.3999023438,.568359375-.5498046875,.1962890625-.25,.37109375-.3500976562,.58984375-.6499023438,.021484375-.1000976562,.26171875-.3500976562,.37109375-.5,.0439453125-.1000976562,.1533203125-.2001953125,.3056640625-.25,.0654296875,0,.1318359375,.0498046875,.1748046875,.1499023438,.087890625,.1000976562,.087890625,.25,.087890625,.3500976562-.021484375,.1499023438-.130859375,.349609375-.197265625,.5-.240234375,.3500976562-.48046875,.5-.720703125,.7998046875-.3056640625,.3999023438-.611328125,.5-.9833984375,1.0502929688-.130859375,.25-.37109375,.3999023438-.5244140625,.4497070312-.3056640625,.30078125-.501953125,.30078125-.568359375,.4501953125-.130859375,.400390625-.873046875,.650390625-1.1142578125,.900390625-.26171875,.25-1.1572265625,.400390625-1.5732421875,.4501953125-.109375,.0498046875-.2177734375,.0498046875-.349609375,.0498046875-.4150390625,0-.9169921875-.150390625-1.2236328125-.400390625-.4150390625-.19921875-.6767578125-.7001953125-.830078125-1.1494140625-.2841796875-.80078125-.5244140625-1.55078125-.5458984375-1.55078125-.087890625,0-.3935546875,.6000976562-.7216796875,.8500976562-.392578125,.3999023438-.8740234375,1.3002929688-1.1796875,1.7504882812-.21875,.2998046875-.720703125,.7998046875-1.1796875,1.099609375-.1962890625,.1005859375-.3056640625,.150390625-.4150390625,.150390625-.130859375,0-.2626953125-.0498046875-.48046875-.2001953125-.416015625,0-.7216796875-.8994140625-.7216796875-1.849609375,0-.900390625,.1748046875-2.2006835938,.3056640625-2.7006835938,.1748046875-.5,.4375-1.3999023438,.677734375-1.8999023438,.328125-.6000976562,.37109375-.8500976562,.5029296875-1.3500976562,.1083984375-.4501953125,.501953125-1.3002929688,.8740234375-1.900390625-1.02734375,.8999023438-1.9228515625,1.6499023438-2.185546875,2-.240234375,.3500976562-.720703125,.8002929688-.9833984375,1.1000976562-.2177734375,.25-1.1142578125,1.150390625-1.4423828125,1.4501953125Z"/><path class="d" d="M121.8442045063,35.849609375c.1318359375-.25,.328125-.2998046875,.6337890625-.6499023438l.6552734375-.75c.06640625-.1000976562,.17578125-.2001953125,.328125-.2001953125,.0654296875,0,.130859375,.0502929688,.1748046875,.1000976562,.0654296875,.1499023438,.0654296875,.25,.0654296875,.3999023438-.021484375,.150390625-.1748046875,.3500976562-.1962890625,.400390625-.21875,.2998046875-.5244140625,.6000976562-.80859375,.8999023438-.349609375,.25-.5244140625,.5-.91796875,.8999023438-.1962890625,.2001953125-.7861328125,.3002929688-.8515625,.5-.087890625,.2001953125-.6337890625,.4501953125-1.02734375,.4501953125-.240234375,0-.58984375,.150390625-.8740234375,.150390625-.1962890625,0-.91796875-.150390625-1.0703125-.2998046875-.21875-.150390625-.458984375-.650390625-.677734375-.900390625-.21875-.3002929688-.4375-1.1000976562-.6337890625-1.7504882812-.1748046875-.75-.1962890625-1.5498046875-.240234375-1.8500976562,0-.1000976562-.021484375-.1499023438-.0439453125-.1499023438-.0654296875,0-.1962890625,.2001953125-.37109375,.5502929688-.240234375,.4497070312-.3935546875,1.099609375-.677734375,1.3999023438-.1962890625,.1499023438-.392578125,.25-.5458984375,.6000976562-.3056640625,.4497070312-.4150390625,1.1499023438-.787109375,1.75-.37109375,.650390625-.5458984375,1-.8955078125,1.4501953125-.349609375,.400390625-.8525390625,.4501953125-1.267578125,.8505859375-.130859375,.099609375-.240234375,.1494140625-.349609375,.1494140625-.26171875,0-.501953125-.2001953125-.720703125-.2998046875-.328125-.25-.720703125-1.0498046875-.720703125-1.75,0-.650390625,.0869140625-1.8505859375,.240234375-2.400390625,.1962890625-.5,.2177734375-1.5,.392578125-2.0502929688,.1533203125-.4501953125,.458984375-1.7001953125,.546875-2.2001953125,.04296875-.25,.1962890625-.8999023438,.1962890625-1.3999023438,0-.3999023438-.0869140625-.5502929688-.3056640625-.5502929688-.2626953125,0-1.3330078125,.900390625-1.857421875,1.5004882812-.240234375,.349609375-1.1142578125,1.1499023438-1.3330078125,1.5-.26171875,.2998046875-.7646484375,.8500976562-.939453125,1l-1.5078125,1.5c-.021484375,.0498046875-.240234375,.2998046875-.349609375,.2998046875s-.26171875-.1997070312-.2841796875-.4497070312c0-.2001953125,.109375-.3002929688,.2841796875-.5,.109375-.2001953125,.1533203125-.2001953125,.240234375-.3002929688,.21875-.0498046875,.5029296875-.349609375,.5244140625-.5,.0654296875-.1997070312,.5029296875-.6499023438,.830078125-.9497070312l.65625-.7001953125c.1962890625-.1499023438,.4365234375-.4501953125,.6552734375-.7001953125,.2841796875-.2998046875,.37109375-.1000976562,.58984375-.5,.1962890625-.25,2.1630859375-2.4501953125,2.578125-2.8002929688,.328125-.2998046875,.91796875-.8999023438,1.1806640625-.8999023438,.3056640625,0,.611328125,.1499023438,.80859375,.5502929688,.15234375,.1997070312,.240234375,.6499023438,.240234375,1.099609375,0,.3002929688-.0224609375,.6000976562-.087890625,.8500976562-.0654296875,.6000976562-.240234375,1.400390625-.3935546875,2.0004882812-.1748046875,.6499023438-.3056640625,1.8500976562-.4580078125,2.3500976562-.197265625,.5-.306640625,1.5498046875-.3720703125,2-.0869140625,.5498046875-.240234375,1.1499023438-.240234375,1.8500976562,.021484375,.5498046875,.1962890625,.75,.3935546875,.75,.0654296875,0,.15234375-.0498046875,.21875-.099609375,.1962890625-.2001953125,.4580078125-.650390625,.69921875-1.0004882812,.283203125-.2998046875,.8076171875-1.5498046875,1.048828125-1.8999023438,.283203125-.4501953125,.349609375-.8500976562,.5234375-.8500976562,.087890625,0,.2412109375-.3999023438,.3720703125-.75,.1748046875-.400390625,.2841796875-.4501953125,.458984375-.8500976562,.1962890625-.3999023438,.3935546875-.7001953125,.6337890625-1.3002929688,.240234375-.6499023438,.458984375-1,.6328125-1.5498046875,.17578125-.5,.4814453125-.9501953125,.65625-1.3500976562,.109375-.3500976562,.3056640625-.5502929688,.501953125-.5502929688,.0439453125,0,.109375,0,.1533203125,.0502929688,.2626953125,.0498046875,.48046875,.3999023438,.48046875,.7998046875,0,.6499023438-.021484375,1-.1962890625,1.650390625-.197265625,.9497070312-.197265625,1.6000976562-.197265625,1.9497070312,0,.400390625,.087890625,1.0004882812,.109375,1.8500976562,.0439453125,.8002929688,.2841796875,1.3002929688,.349609375,1.5004882812,.109375,.25,.4375,.5,.787109375,.6499023438,.328125,.1499023438,.6552734375,.1499023438,.8955078125,.1499023438,.197265625-.0498046875,.6123046875-.1499023438,1.02734375-.4501953125,.1748046875-.099609375,.3271484375,0,.4365234375-.25Z"/></g><path class="d" d="M124.3911132812,37.6656126068l5.302734375-4.9931640625-1.439453125-1.3359375c-.4794921875,.1640625-.9970703125,.24609375-1.552734375,.24609375-.081395894-.0015741349-.5973046728-.1702023965-1.1590248726,.9936523438s-1.4454063167,1.8585002968-1.7745688774,2.1235351562c-.8512998248,.6854489437-.349609375-.6499023438-.349609375-.6499023438,0,0,.8529164603-.9804129631,1.1398371364-1.4736328125s.2527864737-.3545195352,.2869206761-.8021659593c.0397467941-.5212516762-1.0079037208-1.2292237536-1.1357421875-1.3516426344-.8076171875-.7265625-1.224609375-1.65234375-1.25-2.77734375,.025390625-1.125,.4423828125-2.0517578125,1.25-2.7783203125,.783203125-.7504882812,1.7802734375-1.1372070312,2.9921875-1.16015625,1.2119140625,.0229492188,2.2099609375,.4096679688,2.9921875,1.16015625,.80859375,.7265625,1.224609375,1.6533203125,1.25,2.7783203125,0,.515625-.087890625,.99609375-.265625,1.44140625l1.439453125,1.3359375,1.5537109375-1.3359375c-.2021484375-.4453125-.3154296875-.92578125-.341796875-1.44140625,.0263671875-1.125,.4423828125-2.0517578125,1.25-2.7783203125,.80859375-.7504882812,1.818359375-1.1372070312,3.0302734375-1.16015625,1.2119140625,.0229492188,2.2099609375,.4096679688,2.9921875,1.16015625,.80859375,.7265625,1.224609375,1.6533203125,1.25,2.7783203125-.025390625,1.125-.44140625,2.05078125-1.25,2.77734375-.7822265625,.75-1.7802734375,1.13671875-2.9921875,1.16015625-.5546875,0-1.060546875-.08203125-1.5146484375-.24609375l-10.7197265625,9.916015625c-.3271484375,.2578125-.65625,.2578125-.984375,0-.5302734375-.515625-.7958984375-1.11328125-.7958984375-1.79296875,0-.6806640625,.265625-1.2783203125,.7958984375-1.7939453125Zm2.2724609375-8.3330078125c.5302734375-.0234375,.9599609375-.1875,1.2880859375-.4921875,.353515625-.328125,.5302734375-.7265625,.5302734375-1.1953125,0-.4697265625-.1767578125-.8671875-.5302734375-1.1953125-.328125-.3056640625-.7578125-.4697265625-1.2880859375-.4921875-.5048828125,.0224609375-.93359375,.1865234375-1.2880859375,.4921875-.3271484375,.328125-.5048828125,.7255859375-.5302734375,1.1953125,.025390625,.46875,.203125,.8671875,.5302734375,1.1953125,.3544921875,.3046875,.783203125,.46875,1.2880859375,.4921875Zm8.787109375,4.1845703125l4.4697265625,4.1484375c.5302734375,.515625,.7958984375,1.11328125,.7958984375,1.7939453125,0,.6796875-.265625,1.27734375-.7958984375,1.79296875-.328125,.2578125-.65625,.2578125-.984375,0l-5.9091796875-5.4853515625,2.423828125-2.25Zm3.9775390625-5.8720703125c-.0244140625-.4697265625-.2021484375-.8671875-.5302734375-1.1953125-.353515625-.3056640625-.7822265625-.4697265625-1.2880859375-.4921875-.5048828125,.0224609375-.93359375,.1865234375-1.287109375,.4921875-.328125,.328125-.5048828125,.7255859375-.5302734375,1.1953125,.025390625,.46875,.2021484375,.8671875,.5302734375,1.1953125,.353515625,.3046875,.7822265625,.46875,1.287109375,.4921875,.505859375-.0234375,.9345703125-.1875,1.2880859375-.4921875,.328125-.328125,.505859375-.7265625,.5302734375-1.1953125Z"/></g></svg>