<?xml version="1.0" encoding="UTF-8"?><svg id="Bordeaux" xmlns="http://www.w3.org/2000/svg" viewBox="0 0 141.9302013915 82.1000976562"><defs><style>.cls-1,.cls-2,.cls-3{fill:#c85c5c;}.cls-2{font-size:32.2771377563px;letter-spacing:.0200007235em;}.cls-2,.cls-3{font-family:AdornGarland, 'Adorn Garland';}.cls-3{font-size:50px;}</style></defs><path class="cls-1" d="M33.0607606671,49.5657223557l-.0773622296,.6741689249c-.0439453125,0-.0439453125,.0693359375-.087890625,.0693359375l-.2641601562,.7705078125c-.5283203125,1.0498046875-.3525390625,.2802734375-1.1010742188,2.169921875-.7045898438,1.8203125-3.4345703125,4.970703125-5.5483398438,5.951171875-2.0258789062,.9794921875-2.5541992188,.9794921875-3.4790039062,1.400390625-.880859375,.419921875-1.8056640625,.5595703125-2.6420898438,.5595703125-1.2333984375,0-3.8754882812-.490234375-5.15234375-1.6103515625-1.4536132812-1.189453125-1.849609375-1.9599609375-1.849609375-2.66015625,0-.98046875,.4404296875-2.310546875,.8364257812-3.080078125,.4404296875-.7705078125,1.4975585938-1.75,2.642578125-1.890625,.8803710938,0,2.509765625-.419921875,3.6547851562-.419921875,.96875,0,1.8056640625-.1396484375,2.6865234375-.1396484375,.3959960938,0,.572265625,.0693359375,.7045898438,.0693359375,.8803710938,0,1.7172851562-.4892578125,2.7299804688-.6298828125,.96875-.0693359375,2.0258789062-.349609375,2.7744140625-.6298828125,.1323242188-.83984375,.1762695312-1.75,.3081054688-2.5205078125,.1762695312-.76953125,.2202148438-1.1201171875,.2202148438-1.4697265625,0-.3505859375-.087890625-.6298828125-.087890625-2.1005859375,0-.83984375,0-1.6103515625-.3081054688-2.7998046875-.396484375-1.400390625-1.1010742188-2.58984375-2.2900390625-3.7802734375-.3525390625-.2797851562-.6166992188-.5600585938-.8369140625-.7700195312-1.1005859375,.5600585938-2.333984375,1.0502929688-3.1264648438,1.2602539062-.6166992188,.1401367188-1.2329101562,.2099609375-1.849609375,.2099609375-.4404296875,0-.8364257812,0-1.2329101562-.0698242188-.7045898438,1.7495117188-1.365234375,2.6596679688-1.8056640625,3.7797851562-.572265625,1.4697265625-1.4970703125,2.3798828125-1.849609375,3.640625-.3520507812,1.330078125-.9248046875,1.75-1.2768554688,2.58984375-.396484375,.6298828125-3.2587890625,5.5302734375-4.9321289062,6.9306640625-1.6293945312,1.2607421875-2.9506835938,1.8203125-4.18359375,1.8203125-1.8056640625,0-3.390625-1.259765625-3.390625-2.1005859375,0-.76953125,.572265625-1.3994140625,1.1889648438-1.3994140625,.087890625,0,.17578125,.0693359375,.2641601562,.0693359375,.6606445312,.2099609375,.4404296875,.8408203125,1.2329101562,1.400390625,.1762695312,.1396484375,.7485351562,.3505859375,1.3212890625,.3505859375,.3520507812,0,.7485351562-.0703125,1.056640625-.3505859375,.7485351562-.6298828125,1.1010742188-.419921875,2.0698242188-2.169921875,1.0126953125-1.75,1.9814453125-4.2705078125,2.6860351562-5.3203125,.7490234375-1.1201171875,.9692382812-1.05078125,1.3212890625-2.380859375,.1323242188-.419921875,.1323242188-.91015625,.9248046875-2.3095703125,.8364257812-1.6103515625,1.2768554688-4.3403320312,2.2900390625-6.30078125,1.0126953125-1.8198242188,1.7612304688-4.9702148438,2.994140625-6.720703125,1.1889648438-1.6801757812,1.3212890625-3.4301757812,1.9819335938-4.8305664062,.7045898438-1.330078125,.572265625-1.330078125,1.849609375-3.990234375,1.3208007812-2.73046875,1.7172851562-3.8505859375,2.6860351562-5.1806640625,.0439453125,0,.0439453125-.0698242188,.0883789062-.1396484375-.484375-.2104492188-1.0571289062-.4204101562-1.673828125-.490234375-.572265625-.0703125-1.1889648438-.0703125-1.8051757812-.0703125-1.453125,0-2.9506835938,.1401367188-4.0512695312,.2802734375-1.5415039062,.2099609375-5.2407226562,1.6801757812-6.7377929688,2.73046875-1.5415039062,1.0498046875-2.1137695312,1.4697265625-2.6865234375,1.75-.66015625,.2802734375-.8803710938,.83984375-1.4970703125,1.6103515625-.5283203125,.6997070312-2.0698242188,2.66015625-2.5102539062,3.6401367188-.4404296875,1.1201171875-.4404296875,.6303710938-.96875,1.6801757812-.484375,.9799804688-1.1005859375,1.330078125-1.4091796875,2.9404296875-.3081054688,1.5400390625-.4404296875,1.5400390625-.4404296875,3.3603515625,0,1.8901367188,.2641601562,2.5903320312,.7045898438,3.6401367188,.396484375,.91015625,1.4091796875,1.4702148438,2.2021484375,1.4702148438,1.0126953125,0,2.1577148438-.3500976562,3.3466796875-2.0302734375,1.2329101562-1.75,1.5415039062-1.6801757812,2.3779296875-2.9399414062,.880859375-1.2602539062,.7924804688-1.8901367188,1.453125-2.5903320312,.7045898438-.7001953125,.6606445312-1.1904296875,1.1450195312-2.5205078125,.5727539062-1.330078125,.8369140625-1.8901367188,1.1010742188-2.66015625,.1762695312-.91015625,.2202148438-1.6801757812,.2202148438-2.3100585938,0-.5600585938,.0439453125-.91015625,.3959960938-.91015625,.5288085938,0,1.365234375,1.2602539062,1.365234375,3.5004882812,0,2.8701171875-1.7612304688,5.1801757812-2.421875,6.4404296875-.6606445312,1.1899414062-2.6860351562,3.2905273438-4.2275390625,4.8305664062-2.0258789062,2.099609375-4.6240234375,2.66015625-5.1083984375,2.66015625-1.1010742188,0-1.9375-.2099609375-2.6860351562-.98046875-.96875-1.1196289062-2.1577148438-2.5200195312-2.2021484375-3.7797851562-.0439453125-.5600585938-.087890625-1.0502929688-.087890625-1.5405273438,0-.6298828125,.0439453125-1.259765625,.1762695312-1.9599609375,.3081054688-1.2602539062,.7924804688-3.2905273438,3.2143554688-6.9306640625,2.333984375-3.640625,3.21484375-3.5004882812,3.7431640625-3.9204101562,.484375-.3500976562,.484375-.7700195312,1.27734375-1.4702148438,.7924804688-.7700195312,1.5854492188-1.4702148438,2.818359375-2.240234375,1.2329101562-.6303710938,4.7998046875-2.4501953125,6.4731445312-2.73046875,1.6293945312-.2797851562,4.095703125-.5600585938,5.63671875-.5600585938,1.9819335938,0,3.302734375,.419921875,3.8754882812,.7001953125,.396484375-.5600585938,.7924804688-1.0502929688,1.2329101562-1.400390625,.7485351562-.6298828125,2.24609375-1.330078125,2.9067382812-1.330078125,.3081054688,0,.484375,.490234375,.484375,.8403320312s-.9248046875,.2797851562-1.5854492188,.9799804688c-.0883789062,.0703125-.1762695312,.0703125-.2202148438,.1401367188q-.396484375,.3500976562-.9248046875,1.3999023438c.572265625,.1401367188,1.1450195312,.3500976562,1.5854492188,.7001953125,1.056640625,.91015625,2.2895507812,1.9604492188,2.7739257812,3.0805664062,.5288085938,1.0498046875,1.27734375,2.8002929688,1.27734375,5.740234375,0,2.9404296875-.6606445312,4.8305664062-1.5854492188,6.1606445312-.880859375,1.330078125-.484375,.2802734375-1.0126953125,1.1904296875s-.3525390625,1.1899414062-1.6733398438,2.169921875c-1.365234375,.98046875-1.365234375,.5600585938-2.0698242188,1.400390625-.087890625,.0698242188-.1323242188,.2099609375-.2641601562,.2797851562,.2202148438,.0703125,.396484375,.2104492188,.572265625,.2802734375,1.2333984375,.7700195312,2.3779296875,2.0302734375,3.2587890625,3.2900390625,.2641601562,.349609375,.3081054688,.7001953125,.3081054688,1.6103515625,0,.83984375,.7045898438,.83984375,.8369140625,1.5400390625,.1762695312,.9794921875,.3081054688,1.9599609375,.3081054688,2.9404296875,0,1.259765625-.087890625,2.4501953125-.2202148438,3.5l-.0723829575,.4126937596m-4.639531105,2.4574234279c-1.3208007812,.3505859375-2.2016601562,.7001953125-2.8623046875,.7001953125-.7924804688,0-2.4658203125,.349609375-3.1704101562,.419921875-.880859375,.1396484375-3.0385742188,.419921875-3.8315429688,.419921875-.8364257812,0-1.9375,.140625-2.5981445312,.419921875-.7924804688,.3505859375-1.1889648438,.7001953125-1.1889648438,1.470703125,0,1.400390625,.5283203125,1.5400390625,.880859375,2.0302734375,.3081054688,.490234375,2.2900390625,1.6103515625,3.6547851562,1.8896484375,.6166992188,.0703125,1.189453125,.2802734375,1.8056640625,.2802734375,.2641601562,0,.484375-.0703125,.7485351562-.1396484375,.9248046875-.2802734375,1.849609375-.140625,2.5541992188-.7705078125,.7485351562-.7001953125,1.849609375-2.169921875,2.24609375-2.8701171875,.4404296875-.7001953125,1.056640625-2.80078125,1.6733398438-3.7099609375l.087890625-.140625Zm-3.8310546875-15.4711914062l-.8369140625-.349609375c-.8803710938-.2104492188-1.8491210938-.560546875-2.509765625-.560546875-.3525390625,0-.6606445312,.1401367188-.6606445312,.4204101562,0,1.0498046875,.96875,1.2602539062,1.5854492188,1.2602539062,.3081054688,0,1.3208007812-.2802734375,2.421875-.7705078125Zm3.21484375-19.3217773438c-.1762695312,.2797851562-.396484375,.6298828125-.7485351562,1.6098632812-.9692382812,2.1005859375-.9692382812,2.3803710938-1.4975585938,3.5004882812-.5283203125,1.0502929688,.0439453125,.490234375-.96875,2.9404296875-1.1010742188,2.3803710938-1.1450195312,2.8701171875-1.8935546875,5.0405273438-.396484375,1.400390625-.9248046875,2.3803710938-1.453125,3.640625,.7045898438,.0698242188,1.1889648438,.2797851562,1.6293945312,.4897460938,.3081054688,0,.66015625,.2802734375,1.0126953125,.2802734375,.2641601562,0,.484375,0,.7485351562,.0698242188l2.0258789062,.5600585938c.5283203125-.3500976562,1.0126953125-.7700195312,1.365234375-1.1899414062,1.4970703125-1.8203125,1.541015625-2.6606445312,1.8051757812-3.3603515625,.2641601562-.5600585938,.5727539062-1.6103515625,.880859375-3.0107421875,.3081054688-1.330078125,.6166992188-2.240234375,.6166992188-2.9399414062,0-1.1201171875-.484375-3.9204101562-1.4091796875-5.390625s-.96875-1.330078125-1.27734375-1.5400390625c-.1318359375,0-.3959960938-.3500976562-.8364257812-.7001953125Z"/><text class="cls-2" transform="translate(40.3108350619 34.8383014646) rotate(114.136812597) scale(1.0437786269 -.9999999873)"><tspan x="0" y="0">c</tspan></text><g id="_ヘアブラシ"><rect class="cls-1" x="40.3091705883" y="48.1520378655" width="1.1269162449" height="13.1017231977" rx=".4999995053" ry=".4999995053"/><rect class="cls-1" x="41.9360868373" y="48.1520378655" width="1.1269162449" height="13.1017231977" rx=".4999995053" ry=".4999995053"/><rect class="cls-1" x="43.5630030863" y="48.1520378655" width="1.1269162449" height="13.1017231977" rx=".4999995053" ry=".4999995053"/><rect class="cls-1" x="45.1899193353" y="48.1520378655" width="1.1269162449" height="13.1017231977" rx=".4999995053" ry=".4999995053"/><rect class="cls-1" x="46.8168355843" y="48.1520378655" width="1.1269162449" height="13.1017231977" rx=".4999995053" ry=".4999995053"/><rect class="cls-1" x="48.4437518333" y="48.1520378655" width="1.1269162449" height="13.1017231977" rx=".4999995053" ry=".4999995053"/><rect class="cls-1" x="50.0706680823" y="48.1520378655" width="1.1269162449" height="13.1017231977" rx=".4999995053" ry=".4999995053"/><rect class="cls-1" x="51.6975843313" y="48.1520378655" width="1.1269162449" height="13.1017231977" rx=".4999995053" ry=".4999995053"/><rect class="cls-1" x="53.3245005803" y="48.1520378655" width="1.1269162449" height="13.1017231977" rx=".4999995053" ry=".4999995053"/><rect class="cls-1" x="54.9514168293" y="48.1520378655" width="1.1269162449" height="13.1017231977" rx=".4999995053" ry=".4999995053"/><rect class="cls-1" x="56.5783330783" y="48.1520378655" width="1.1269162449" height="13.1017231977" rx=".4999995053" ry=".4999995053"/><rect class="cls-1" x="58.2052493273" y="48.1520378655" width="1.1269162449" height="13.1017231977" rx=".4999995053" ry=".4999995053"/><rect class="cls-1" x="59.8321655763" y="48.1520378655" width="1.1269162449" height="13.1017231977" rx=".4999995053" ry=".4999995053"/><rect class="cls-1" x="61.4590818253" y="48.1520378655" width="1.1269162449" height="13.1017231977" rx=".4999995053" ry=".4999995053"/><rect class="cls-1" x="63.0859980743" y="48.1520378655" width="1.1269162449" height="13.1017231977" rx=".4999995053" ry=".4999995053"/><rect class="cls-1" x="64.7129143233" y="48.1520378655" width="1.1269162449" height="13.1017231977" rx=".4999995053" ry=".4999995053"/><rect class="cls-1" x="66.3398305723" y="48.1520378655" width="1.1269162449" height="13.1017231977" rx=".4999995053" ry=".4999995053"/><rect class="cls-1" x="67.9667468213" y="48.1520378655" width="1.1269162449" height="13.1017231977" rx=".4999995053" ry=".4999995053"/><rect class="cls-1" x="69.5936630703" y="48.1520378655" width="1.1269162449" height="13.1017231977" rx=".4999995053" ry=".4999995053"/><rect class="cls-1" x="71.2205793193" y="48.1520378655" width="1.1269162449" height="13.1017231977" rx=".4999995053" ry=".4999995053"/><rect class="cls-1" x="72.8474955683" y="48.1520378655" width="1.1269162449" height="13.1017231977" rx=".4999995053" ry=".4999995053"/><rect class="cls-1" x="74.4744118173" y="48.1520378655" width="1.1269162449" height="13.1017231977" rx=".4999995053" ry=".4999995053"/><rect class="cls-1" x="76.1013280663" y="48.1520378655" width="1.1269162449" height="13.1017231977" rx=".4999995053" ry=".4999995053"/><rect class="cls-1" x="77.7282443153" y="48.1520378655" width="1.1269162449" height="13.1017231977" rx=".4999995053" ry=".4999995053"/><rect class="cls-1" x="79.3551605643" y="48.1520378655" width="1.1269162449" height="13.1017231977" rx=".4999995053" ry=".4999995053"/><rect class="cls-1" x="80.9820768133" y="48.1520378655" width="1.1269162449" height="13.1017231977" rx=".4999995053" ry=".4999995053"/><rect class="cls-1" x="82.6089930623" y="48.1520378655" width="1.1269162449" height="13.1017231977" rx=".4999995053" ry=".4999995053"/><rect class="cls-1" x="84.2359093113" y="48.1520378655" width="1.1269162449" height="13.1017231977" rx=".4999995053" ry=".4999995053"/><rect class="cls-1" x="85.8628255603" y="48.1520378655" width="1.1269162449" height="13.1017231977" rx=".4999995053" ry=".4999995053"/><rect class="cls-1" x="87.4897418093" y="48.1520378655" width="1.1269162449" height="13.1017231977" rx=".4999995053" ry=".4999995053"/><rect class="cls-1" x="89.1166580583" y="48.1520378655" width="1.1269162449" height="13.1017231977" rx=".4999995053" ry=".4999995053"/><path class="cls-1" d="M43.5381850437,43.197408415h51.0478699769v6.568493821H40.3091705842v-3.3394793615c0-1.7821415945,1.446872865-3.2290144595,3.2290144595-3.2290144595Z"/><path class="cls-1" d="M140.6240019759,60.6271070233c-.4552468916-.3908934959-4.0893423568-4.104566851-13.5730952455-4.104566851s-11.8771455911,4.104566851-12.7281895677,4.104566851h-3.618805543c-.7355878022,0-4.2427315555-2.2646476155-9.4837528887-2.2646476155s-7.806718249,2.2646476155-8.6500635718,2.2646476155-1.3061994156-.4106049689-1.3061994157-.917111867l-.0000000032-15.5954748718c-.0000000001-.5065068981,.584805398-.9171118672,1.3061994155-.9171118672,0,0,24.7128198635-.0000000026,36.5418283747-.0000000026s12.8182778611-.7036478553,12.8182778611,9,0,7.5125867415,0,7.5125867415c0,.5065068981-.8509525241,1.308005363-1.3061994157,.9171118671Z"/></g><g id="ordeaux"><text class="cls-3" transform="translate(36.713867268 39.0000858307) scale(.4370200038 1)"><tspan x="0" y="0">ordeau</tspan></text><path class="cls-1" d="M124.3911132812,37.6656126068l5.302734375-4.9931640625-1.439453125-1.3359375c-.4794921875,.1640625-.9970703125,.24609375-1.552734375,.24609375-.081395894-.0015741349-.5973046728-.1702023965-1.1590248726,.9936523438s-1.4454063167,1.8585002968-1.7745688774,2.1235351562c-.8512998248,.6854489437-.349609375-.6499023438-.349609375-.6499023438,0,0,.8529164603-.9804129631,1.1398371364-1.4736328125s.2527864737-.3545195352,.2869206761-.8021659593c.0397467941-.5212516762-1.0079037208-1.2292237536-1.1357421875-1.3516426344-.8076171875-.7265625-1.224609375-1.65234375-1.25-2.77734375,.025390625-1.125,.4423828125-2.0517578125,1.25-2.7783203125,.783203125-.7504882812,1.7802734375-1.1372070312,2.9921875-1.16015625,1.2119140625,.0229492188,2.2099609375,.4096679688,2.9921875,1.16015625,.80859375,.7265625,1.224609375,1.6533203125,1.25,2.7783203125,0,.515625-.087890625,.99609375-.265625,1.44140625l1.439453125,1.3359375,1.5537109375-1.3359375c-.2021484375-.4453125-.3154296875-.92578125-.341796875-1.44140625,.0263671875-1.125,.4423828125-2.0517578125,1.25-2.7783203125,.80859375-.7504882812,1.818359375-1.1372070312,3.0302734375-1.16015625,1.2119140625,.0229492188,2.2099609375,.4096679688,2.9921875,1.16015625,.80859375,.7265625,1.224609375,1.6533203125,1.25,2.7783203125-.025390625,1.125-.44140625,2.05078125-1.25,2.77734375-.7822265625,.75-1.7802734375,1.13671875-2.9921875,1.16015625-.5546875,0-1.060546875-.08203125-1.5146484375-.24609375l-10.7197265625,9.916015625c-.3271484375,.2578125-.65625,.2578125-.984375,0-.5302734375-.515625-.7958984375-1.11328125-.7958984375-1.79296875,0-.6806640625,.265625-1.2783203125,.7958984375-1.7939453125Zm2.2724609375-8.3330078125c.5302734375-.0234375,.9599609375-.1875,1.2880859375-.4921875,.353515625-.328125,.5302734375-.7265625,.5302734375-1.1953125,0-.4697265625-.1767578125-.8671875-.5302734375-1.1953125-.328125-.3056640625-.7578125-.4697265625-1.2880859375-.4921875-.5048828125,.0224609375-.93359375,.1865234375-1.2880859375,.4921875-.3271484375,.328125-.5048828125,.7255859375-.5302734375,1.1953125,.025390625,.46875,.203125,.8671875,.5302734375,1.1953125,.3544921875,.3046875,.783203125,.46875,1.2880859375,.4921875Zm8.787109375,4.1845703125l4.4697265625,4.1484375c.5302734375,.515625,.7958984375,1.11328125,.7958984375,1.7939453125,0,.6796875-.265625,1.27734375-.7958984375,1.79296875-.328125,.2578125-.65625,.2578125-.984375,0l-5.9091796875-5.4853515625,2.423828125-2.25Zm3.9775390625-5.8720703125c-.0244140625-.4697265625-.2021484375-.8671875-.5302734375-1.1953125-.353515625-.3056640625-.7822265625-.4697265625-1.2880859375-.4921875-.5048828125,.0224609375-.93359375,.1865234375-1.287109375,.4921875-.328125,.328125-.5048828125,.7255859375-.5302734375,1.1953125,.025390625,.46875,.2021484375,.8671875,.5302734375,1.1953125,.353515625,.3046875,.7822265625,.46875,1.287109375,.4921875,.505859375-.0234375,.9345703125-.1875,1.2880859375-.4921875,.328125-.328125,.505859375-.7265625,.5302734375-1.1953125Z"/></g></svg>