<svg xmlns="http://www.w3.org/2000/svg" width="453.1" height="91.6" viewBox="0 0 453.1 91.6"><defs><style>.a{fill:#fff;}</style></defs><path class="a" d="M30.5-16.6c-.8-1.3-1-3.5-4-7.7-2.9-4.2-3.4-4.9-8.1-6.9a9.984,9.984,0,0,0-4.1-.8,15.3,15.3,0,0,0-8.5,2.8C3.9-27.9,2.2-25,1.3-22.3a20.365,20.365,0,0,0-.9,7.1C.4-12.9,1.1-11,2-7,2.8-3.1,4.9.5,5.5,2.2A8.06,8.06,0,0,0,7.1,4.9C4.9,6.2,2.6,7.5.4,8.6A18.972,18.972,0,0,1-9,10.9c-3.1,0-4.3-2.7-5.5-2.7s-4.2,1.6-4.2,2.9a.6.6,0,0,0,.1.4c.5,1.4,2.4,3,7.1,3,.5,0,1-.1,1.6-.1,5.8-.4,8.7-2,11.8-3.2A44.536,44.536,0,0,0,9.2,7c1.7,1.6,4.4,4.7,6.4,5.6a14.6,14.6,0,0,0,7.3,1.7A36.085,36.085,0,0,0,32.7,13a16.393,16.393,0,0,0,4.9-2.7c1.4-1,3.4-1.6,5.9-4.7,2.2-2.8,4.6-5.4,5.9-8.7a.9.9,0,0,0,.5.1,11.518,11.518,0,0,0,2,.1c1.5,0,3.6-.2,5.8-.2a19.173,19.173,0,0,0,4.9-.8c.8-.1,3.2-.8,4-1a51.648,51.648,0,0,0,5.2-1.6,19.893,19.893,0,0,0,3.5-1.3c.5-.4.9-.6,1-.9a.745.745,0,0,0-.3-.7.908.908,0,0,0-.7-.3,3.2,3.2,0,0,0-1.5.5,15.725,15.725,0,0,1-1.8.7,10.848,10.848,0,0,1-2.8,1.1c-.7.3-3.5,1-4.6,1.3a33.478,33.478,0,0,1-9.2,1.3,7.569,7.569,0,0,0-1.5-.1c-1.6,0-2.6.3-3.2.3H50a57.906,57.906,0,0,0,1.7-14.6v-8.2l1-.9a65.576,65.576,0,0,0,6.2-6.4c1.7-2,1.8-3.8,2.2-4.4.6-.8,1.4-.7,2.7-2.6a31.7,31.7,0,0,0,3.5-6.7,11.6,11.6,0,0,0,1-4.6,4.82,4.82,0,0,0-.8-3c-1.4-1.6-1.6-2.9-3.9-2.9-2.5,0-5.2,1.3-8.7,3.2-3.6,1.9-7.8,5.8-8.8,9.4-.9,3.6-1.2,4-1.4,7.7-.1,3.7,0,3.2-.3,4.8a2.2,2.2,0,0,0-.1.8c0,1,.4,2.2.4,3.4a7.844,7.844,0,0,1-.2,1.4,11.443,11.443,0,0,0-.2,2.8v2.7a31.46,31.46,0,0,1-2.9,2.5c-1.7,1.3-1.7,1.8-3.4,3.6-1.6,1.9-1.9,1.4-3.7,2.5-.9.5-1.8,1.1-3,1.9A27.4,27.4,0,0,0,30.5-16.6Zm-5.1,9C21-4,19.3-2.2,17.9-1.8,17.1-1.5,14,.6,10.1,3,6.2-2.9,5.7-7.3,4.9-10a27.193,27.193,0,0,1-1.3-7.9,36.257,36.257,0,0,1,.9-5.6,7.225,7.225,0,0,1,2.7-4.4,7.094,7.094,0,0,1,3.1-.7,6.557,6.557,0,0,1,2.9.6c2.4,1.1,3.3,2.8,5.4,4.8,2.3,1.8,4.6,5.4,5.7,7.2a33.114,33.114,0,0,1,2.6,7.2ZM12.9,3.8c2-.7,3.7-1.7,6.8-4,2.1-1.5,5-3.9,7.8-6.1a18.047,18.047,0,0,1,.6,3.7,7.372,7.372,0,0,0-3.4,5.8c0,1.6.8,2.2,1.9,2.2a3.609,3.609,0,0,0,1.9-.5c3.8-2.2,4-6.8,4-7.9,0-.3,7.2,0,10.1,0a29.647,29.647,0,0,1-2.8,5.7c-3.4,5.2-6,7.3-7.2,7.8-1.3.5-4.3,1-5.9,1.5a4.529,4.529,0,0,1-1.6.3c-1.1,0-2.1-.3-2.9-.3-1.2,0-6.6-1.7-10.9-7.3A2.419,2.419,0,0,1,12.9,3.8ZM51.5-34c-.1-1.1-.4-1.8-.4-2.5a2.607,2.607,0,0,1,.3-1.1,23.636,23.636,0,0,0,1.1-5.6c.3-3.6,1.2-4.5,3-8.5,1.9-4.2,4.3-5.1,6.8-5.1s2.5,1.7,2.5,3.7-.8,2.6-1.9,5c-1,2.2-1.7,4.5-3.5,7-1.5,2.4-2.9,4.4-6.2,8.8-.5.6-1,1.3-1.6,1.9A33.419,33.419,0,0,0,51.5-34ZM32.3-4.9s-.3-2.9-.4-3.9a.6.6,0,0,1-.1-.4.1.1,0,0,1,.1-.1,52.377,52.377,0,0,0,9.8-7.8c1.1-1.1,1.9-1.8,2.7-2.5v1.1c0,2.5-.1,3.1-.1,3.7,0,1.4.1,2.7.1,3.9a5.359,5.359,0,0,1-.3,2.3l-.9,3.8h-.5C40.5-4.8,32.3-4.9,32.3-4.9ZM88-13.6c1-.7,5-2.3,6.1-3-.7,2-1.3,4.1-1.7,4.5-.4.7-.6,2.4-1.3,3.2s-1.2,4.2-1.3,5.6A6.5,6.5,0,0,0,90.6.5c.7.8,3.4,1.7,5.5,1.7,2.3-.1,3-1.1,4.3-1.2a44.508,44.508,0,0,0,5.3-1.4c1.2-.5,4.5-.9,5.2-1.8a22.357,22.357,0,0,1,2.6-.8,9.461,9.461,0,0,0,2.4-1c1.6-1,3.2-.9,4.5-1.8.5-.4,1.1-.7,1.5-1.1,0,0,1.6-.7,2.1-1a.932.932,0,0,0,.4-.7,1.329,1.329,0,0,0-.3-.7,1.136,1.136,0,0,0-.8-.3,2.7,2.7,0,0,0-1.5.5,19.713,19.713,0,0,1-2.7,1.5c-1.5.7-.9.6-1.6.9a18.41,18.41,0,0,0-2.5.9c-.5.4-3.6,1.2-4.1,1.7-1.1.7-2.5.3-3.5.9a18.247,18.247,0,0,1-3.6.9c-1.2,0-2.6.7-3.9.7a2.7,2.7,0,0,1-2.8-2A6.151,6.151,0,0,1,97-4.9,10.525,10.525,0,0,1,98.5-10c.9-1.4,1.7-5.3,2.7-6.7,1-1.5,3.4-6.3,4.2-7.6a13.656,13.656,0,0,1,2.4-3.9,5.566,5.566,0,0,0,1.7-2.4c4.7-.6,5.9-.7,7.1-1a5.343,5.343,0,0,1,2.1-.3c.4,0,.8.1,1.2.1a4.013,4.013,0,0,0,1.5-.3,1.415,1.415,0,0,0,.7-1.2c0-.4-.2-.7-.6-.7-.6-.1-3.6-.1-4.3-.1-.8,0-3.3.8-6.3,1.3.3-.9,0-1.2.8-1.8a28.051,28.051,0,0,0,2.5-3.1,13.019,13.019,0,0,1,3.1-3.1,2.618,2.618,0,0,0,1.7-2.1c0-.7-.9-1.4-2-1.4-.2,0-.4.1-.6.1-1.1.3-1.7,1-2.9,1.7-1.5.7-3.4,1.6-4.1,2.5a12.716,12.716,0,0,0-2.3,2.7,16.778,16.778,0,0,1-2.8,3.4,7.352,7.352,0,0,0-1.2,1.7s-3.8.2-4.8.2c-1.6,0-3.3-.5-4.1-.5-1.3,0-3.6,1.6-3.6,2.7,0,1.3,1.6,1.4,2.4,1.4a4.909,4.909,0,0,0,2.7-.6,4.525,4.525,0,0,1,2.6-.9c.2,0,.5.1.7.1s.6.1,1,.1a13.665,13.665,0,0,0,1.9-.2,24.887,24.887,0,0,0-1.7,3.1c-.4.8-1.5,1.7-2.1,2.9a25.025,25.025,0,0,1-2.4,3.6,4.172,4.172,0,0,1-.5,1,28.229,28.229,0,0,0-4,2.1c-1,.8-1.3.6-2.7,1a13.478,13.478,0,0,1-3,1.4l-3,1.4a16.181,16.181,0,0,0-3.8,1.9,4.154,4.154,0,0,1-2.4,1,4.073,4.073,0,0,0-1.1.6c-.8.4-1.3.6-1.3,1a1.424,1.424,0,0,0,1.3.9,4.112,4.112,0,0,0,1.6-.6l6.9-3C84.5-11.9,86.8-13,88-13.6ZM181.5-1.2s.9-2.9,1.2-4.3a22.733,22.733,0,0,0,.9-5.9c0-1.5-.1-1.1-.7-3.1-.5-2-2.8-3-3.7-3.4a2.388,2.388,0,0,0-.9-.2,6.62,6.62,0,0,0-3.1,1c-1.7.8-4.8,3.9-4.8,3.9a4.23,4.23,0,0,1-2.4,1.7c-1.6.5-2.9,2.4-4.2,3-1.1.7-2,1.6-3.1,2.2-1.2.5-2.3,1.4-3.5,1.8a4.253,4.253,0,0,1-1.1.2c-.8,0-1.6-.4-1.6-1a18.035,18.035,0,0,1,2-5.3c.8-.6,1-1.5,1.5-2.5.4-.8,1.2-1.2,1.7-2.4.4-1.1,3.5-4.9,3.4-5.7-.2-1.4-.2-2.3-1.3-3.1a8.246,8.246,0,0,0-4-1.3,18.171,18.171,0,0,0-5.3,1.7c-.7.3-2.5,1.5-5,2.7a5.732,5.732,0,0,0-1.4.4c-3.3,1.6-6.4,3.3-6.9,3.6-1,.8-1.3.6-2.7,1a13.478,13.478,0,0,1-3,1.4l-3,1.4a16.181,16.181,0,0,0-3.8,1.9,4.154,4.154,0,0,1-2.4,1,4.073,4.073,0,0,0-1.1.6c-.8.4-1.3.6-1.3,1a1.424,1.424,0,0,0,1.3.9,4.112,4.112,0,0,0,1.6-.6l2.6-1.2,4.3-1.8c.8-.3,3.1-1.4,4.3-2,1-.7,5-2.3,6.1-3,1-.5,4.7-2,5.7-2.3,2.1-.8,5.4-2.1,6.2-2.1a1.059,1.059,0,0,1,1.2,1.2,3.846,3.846,0,0,1-.5,1.2c-.3.6-3.1,3.7-3.6,4.3-.4.5-.6,2.2-1.2,3-1.2,1.6-2.2,2.9-2.2,4.6a7.782,7.782,0,0,0,1.1,3.9c.7,1.1,2.5,1.3,3.6,1.6a1.978,1.978,0,0,0,1.1.2,8.057,8.057,0,0,0,3.4-.9c.7-.5,2.5-1.5,3.3-2.2,1.1-.8,3.3-1.3,3.9-2.2.8-1,2-1.1,3.1-2,1.1-.8,2.8-1.9,3.8-2.8.9-.8,1.5-1.1,2.8-2.3,1.1-1.2,1.8-1.5,2.4-1.5a1.9,1.9,0,0,1,1.6,2,2.92,2.92,0,0,1-.2.9,46,46,0,0,0-1.3,5,33.892,33.892,0,0,1-1.7,5.9c-1.6,3.7-1.6,3.8-1.7,3.9a7.071,7.071,0,0,1-2.1,1.3c-1,.4-2.8,1.1-4.2,1.8-1.3.6-1.2,1-3.4,1.9a23.887,23.887,0,0,0-5.6,3.4,25.183,25.183,0,0,0-3.8,3c-1.1,1-1.4.7-2.4,1.4a8.154,8.154,0,0,0-2.4,2.2,19.863,19.863,0,0,1-2.9,3.4,8.6,8.6,0,0,0-1.6,5.1c0,1.9,1.9,3.8,4.6,4.6a5.245,5.245,0,0,0,1.8.2,16.93,16.93,0,0,0,7.5-2,22.378,22.378,0,0,0,5.1-3.4c.5-.7,2.2-2.7,2.9-2.8.6-.3,1.1-1.6,2.1-2.4a37.478,37.478,0,0,0,3.4-3.6,38.8,38.8,0,0,0,3-4.8c.4-.7,1.8-2.3,2.2-3.1.6-.8,1.2-2.7,3.1-7.3,1.1-.5,2.2-.9,3.4-1.5,1-.6,4.4-1.7,5.1-2.4.2-.3,1-.6,2.5-1a10.666,10.666,0,0,0,1.9-.9c1.6-1.1,2.6-1.2,3.9-2l3.5-1.8a.932.932,0,0,0,.4-.7,1.329,1.329,0,0,0-.3-.7,1.136,1.136,0,0,0-.8-.3,2.92,2.92,0,0,0-1.4.5,5.285,5.285,0,0,1-1.4.8,9.081,9.081,0,0,1-1.4.7c-1.5.7-.9.6-1.6.9s-1.2.3-1.7.8c-.7.4-3.1,1-3.6,1.6-1.1.8-2,.8-3,1.3A37.422,37.422,0,0,1,181.5-1.2Zm-12,10.5a26.257,26.257,0,0,0-2,3.3,3.809,3.809,0,0,1-1.7,2.3c-.9.7-.8,1.5-2.3,3.1-1.7,1.5-1.7,2.3-3.4,3.3-1.7,1.3-4.1,4.4-6.1,5a14.549,14.549,0,0,1-4.1.9,3.083,3.083,0,0,1-1-.1,2.27,2.27,0,0,1-1.3-1.9,3.091,3.091,0,0,1,.2-.8,16.517,16.517,0,0,1,3.3-4.8,42.591,42.591,0,0,1,3.8-3.5c1.1-.8,2.6-2.1,3.5-2.7,1.3-.9,2.7-2,4.5-3.1,1.8-1,3.9-1.5,4.6-2.4A47.056,47.056,0,0,1,172,5.2,22.023,22.023,0,0,1,169.5,9.3ZM233.1-.3c1.2-.5,4-1.5,4.6-2.2a8.757,8.757,0,0,1,2.6-.9,8.72,8.72,0,0,0,2.5-1c1.6-1.1,3-1.1,4.4-2.1,1.1-.8,2.7-.9,3.6-1.9a1.969,1.969,0,0,0,.4-.8c0-.5-.7-.8-1.1-.8a2.168,2.168,0,0,0-1.4.5A12.754,12.754,0,0,1,245.9-8a13.236,13.236,0,0,0-1.5.8,11.663,11.663,0,0,0-2.6,1c-.5.4-3.5,1.1-4.1,1.6-.9.7-2.3.8-3.4,1.4a6.888,6.888,0,0,1-3.1,1.4c-1.4.1-2.9,1.7-4.2,2.1-1.3.3-3,.7-3.9,1a13.939,13.939,0,0,1-3.1.6c-2,0-2.7-.8-2.7-1.7a7.724,7.724,0,0,1,.8-4.2c.8-1.4.7-2.6,1.1-3.9.6-1.4.8-3.6,2.1-6.2.7-1.4,2.2-3.8,3.4-6.1,0,0,1.8-.8,2.6-1.2a27.182,27.182,0,0,0,4.7-3.1,13.558,13.558,0,0,1,2.9-2.1,31.28,31.28,0,0,0,2.6-2.5,23.465,23.465,0,0,0,2.6-2.2c1-.9,3.1-3.3,4-4.1,1-.6,1-1.4,2.3-2.1s1.8-1.8,2.6-2.6c.7-.9,1.5-1.7,2.3-2.8.8-1,1.6-2.2,2.2-3a19.218,19.218,0,0,0,1.8-3.5,6.316,6.316,0,0,0,.6-2.7c0-1.5-2.1-2.3-3.8-2.3-2.2,0-4.7,1.3-6.7,2.7-2,1.3-3.7,3.4-4.9,3.9-1.4.4-2.3,2.3-4.3,3.6-1.9,1.3-2.8,4.1-3.8,4.6a13.137,13.137,0,0,0-3.7,3c-1.5,1.4-2.4,3.4-3.8,5.2a46.7,46.7,0,0,0-3.7,4.8c-1.9,3.1-4.3,6-5.2,9.3a8.651,8.651,0,0,1-1.7.7,20.127,20.127,0,0,1-3.1,1.4c-.7.2-2.2,1.1-3,1.3a42.19,42.19,0,0,0-3.8,1.9,5.317,5.317,0,0,1-2.5,1.1,1.356,1.356,0,0,0-1,.6c-.8.3-1.4.6-1.4,1a1.439,1.439,0,0,0,1.4.8,7.579,7.579,0,0,0,1.6-.6,20.292,20.292,0,0,0,2.6-1.1l4.3-1.9a18.979,18.979,0,0,0,4.2-1.9l1-.7c-1.1,2.1-3,5.2-3.4,7.1a35.214,35.214,0,0,0-1.3,7.3c0,3.5,2,6.3,5.6,6.3a27.08,27.08,0,0,0,5.6-.9,16.593,16.593,0,0,0,4.6-1.9C227,2.4,232,.2,233.1-.3Zm-6.5-22.8c1.5-2.2,2.4-3.7,2.8-4.4a14.682,14.682,0,0,1,3.1-4.2,41.328,41.328,0,0,0,3.6-4c1-.8,2.8-3.3,4-4.3,1.4-1,1.6-1.8,2.5-2.7.8-.8,1.5-2,2.2-2,.6,0,1.6-1.5,2.6-2.5s2.3-2.2,3.1-2.2c.9,0,1.2.4,1.2.9a5.29,5.29,0,0,1-.9,2.3,22.44,22.44,0,0,1-2.6,3.2c-.7.7-1.1,2-2.1,2.4-.9.5-1.3,1.2-2.4,2.6-1.1,1.3-2.3,2.3-3.6,3.7-1.2,1.4-1.3,2.1-1.9,2.3a35.011,35.011,0,0,0-3,2.3,14.548,14.548,0,0,0-2.9,2.7c-.9,1-2.1,1.4-2.9,2.1A14.464,14.464,0,0,1,226.6-23.1ZM290.3-.4c1.2-.5,4.6-.9,5.1-1.8.3-.2,1.4-.3,2.7-.8a10.024,10.024,0,0,0,2.5-1c1.6-1,3.1-.7,4.5-1.8a32.405,32.405,0,0,1,3.5-2.1.932.932,0,0,0,.4-.7,1.09,1.09,0,0,0-1.1-1,3.805,3.805,0,0,0-1.5.5,28.259,28.259,0,0,1-2.8,1.5c-1.2.7-.9.6-1.5.9a18.411,18.411,0,0,0-2.5.9c-.6.4-3.6,1.2-4.2,1.7-1,.7-2.3.4-3.4.9a13.308,13.308,0,0,1-3.7,1,27.163,27.163,0,0,1-3.4,1.1,3.425,3.425,0,0,1-1.8.4c-.7,0-1.5-.1-2.2-.1-.8,0-2.4-.7-2.4-1.9a16.814,16.814,0,0,1,1.6-6.5c.5-1.4,1.5-2.2,2.4-3.3.9-1,1-1.8,1.8-2.7,0-1,2.8-3.1,2.8-5.2a3.228,3.228,0,0,0-1.4-3.1,5.754,5.754,0,0,0-3.4-1.1,11.245,11.245,0,0,0-5.6,1.8c-.6.4-2.3,1-5.6,2.6-2.5,1.2-4.9,2.7-5.4,3-1,.8-1.4.4-2.7,1a55.9,55.9,0,0,1-6,2.8,16.182,16.182,0,0,0-3.8,1.9,4.154,4.154,0,0,1-2.4,1,4.073,4.073,0,0,0-1.1.6c-.8.4-1.3.6-1.3,1a1.424,1.424,0,0,0,1.3.9,4.112,4.112,0,0,0,1.6-.6l6.9-3c.8-.3,3.1-1.4,4.3-2,1-.7,5-2.3,6.1-3,1-.5,2.6-1,4-1.7a12.389,12.389,0,0,1,4.1-1.2.919.919,0,0,1,.9,1,2.953,2.953,0,0,1-.7,1.6c-.5.9-1.4,2.1-1.6,2.5a7.417,7.417,0,0,1-1.5,1.9c-.8.4-1.8,3.2-2.5,4.3a5.749,5.749,0,0,0-.4,2.4c0,.6.1,1.2.1,1.9,0,1.7,1,2.7,1.5,3.6.4.8,2.9,2.2,3.6,2.3a21.652,21.652,0,0,0,3.6.3,9.492,9.492,0,0,0,2-.2c1.2-.6,2.6-.2,3.2-.9C285.5.6,287.9.8,290.3-.4Zm4.5-46.1c-1.3,0-2.3,1-3.6,1.3-.6.1-.9.6-1.2,1.1a4.756,4.756,0,0,0-.7,2.3c.1.6,1.5,1.5,2.4,1.5a9.484,9.484,0,0,0,2.3-.5c.9-.4,1.6-.6,2.6-1a2.4,2.4,0,0,0,.9-2.2C297.5-45.7,296.4-46.5,294.8-46.5ZM336.4-1.3c3.8-.5,8.3-.8,9.1-1.5a5.876,5.876,0,0,1,2.6-.7l3-.5a16.094,16.094,0,0,0,6-2.2c.4-.3,1.8-.3,2.2-.7,0,0,1.5-.7,2.1-1,.1-.1.5-.3.5-.7,0-.2-.1-.4-.4-.7a1.136,1.136,0,0,0-.8-.3,3.805,3.805,0,0,0-1.5.5c-.3.4-1.1.6-1.4.8-.3.1-2.2.7-2.6.9a15.934,15.934,0,0,1-2.3.8,27.585,27.585,0,0,0-2.7.8c-.6.3-3.8.6-4.3.9-1.2.8-2.3.3-3.5.7a26.7,26.7,0,0,1-3.5.6,9.272,9.272,0,0,1-2,.1,18.709,18.709,0,0,0,.4-4c0-5.2-.1-6.2-.6-7.2a20.576,20.576,0,0,1-1.1-7.3,5.306,5.306,0,0,0,1.1-.9,17.037,17.037,0,0,1,3-2.3c.6-.5,1-1.6,1.7-2.4a6.355,6.355,0,0,0,1.4-2.2,3.73,3.73,0,0,0,.4-1.6,5.231,5.231,0,0,0-.8-2.3c-.3-.5-1.3-1.8-2.4-1.8-1.3,0-5.9,1.2-7.3,2.7-1.8,1.8-2.7,2.7-2.7,4.5,0,.5-1,2-1.3,3.2a7.134,7.134,0,0,0-.2,1.9c0,.9.1,2,.2,3-2.1,1.3-4.3,2.7-4.9,3-1,.8-1.4.4-2.7,1a26.278,26.278,0,0,1-3,1.4l-3,1.4a16.182,16.182,0,0,0-3.8,1.9,4.154,4.154,0,0,1-2.4,1,4.073,4.073,0,0,0-1.1.6c-.8.4-1.3.6-1.3,1a1.424,1.424,0,0,0,1.3.9,4.112,4.112,0,0,0,1.6-.6l6.9-3c.8-.3,3.1-1.4,4.3-2,1-.7,5-2.3,6.1-3a9.514,9.514,0,0,0,2.2-1.5,21.106,21.106,0,0,1,.3,2.1c.5,2.1.2,4.9.8,6.1a7.159,7.159,0,0,1,.3,2.6,21.478,21.478,0,0,0,.4,4.6,8.807,8.807,0,0,0-1.5.2,19.775,19.775,0,0,1-3.4.3c-1.2.1-3.8.8-4.8,1A10.388,10.388,0,0,0,317.5.5a1.563,1.563,0,0,0-.6,1.2,8.571,8.571,0,0,0,.4,1.8c.5,1.6.9,1.5,2.7,2.4a8.806,8.806,0,0,0,3.9.9,13.985,13.985,0,0,0,4.5-.6,6.717,6.717,0,0,0,3.2-1.8c.8-.7,3-1.9,4.1-3.7A11.15,11.15,0,0,0,336.4-1.3Zm-7.8,3.6a5.284,5.284,0,0,1-3.9,1.6c-1.4,0-3.7-.2-4.5-.7-.3-.3-.5-.5-.5-.8a1.382,1.382,0,0,1,.5-.9c1.6-1.2,5.7-1.2,9.9-1.9A8.916,8.916,0,0,1,328.6,2.3Zm7.1-30.2a9.334,9.334,0,0,1,2.4-3.8,2.934,2.934,0,0,1,1.7-.6c.3,0,.6.1.6.4a6.637,6.637,0,0,1-1.7,3.9c-.4.4-1.7,1.7-3.2,3A14.821,14.821,0,0,1,335.7-27.9ZM417.9-2.2c1.8-.3,3.8-.8,5.3-1.2.6-.2,1.8-.5,2.6-.8,1.7-.8,3.1-1.3,4.6-2L434-7.9a.932.932,0,0,0,.4-.7,1.108,1.108,0,0,0-1.2-1,3.707,3.707,0,0,0-1.5.4c-.1.1-.9.6-1.2.9a5.945,5.945,0,0,1-1.6.6,37.534,37.534,0,0,0-4.1,1.9,49.873,49.873,0,0,1-5.9,1.4,19.987,19.987,0,0,1-4.5.4,12.558,12.558,0,0,1-3.8-.6c-.9-.4-1.8-2.1-1.8-3.9,0-.7.1-1.5.1-2.3a14.227,14.227,0,0,1,.3-3.7,13.711,13.711,0,0,0,.6-3.9c0-.5.1-1.2.1-2,0-1.2-.2-2.4-1.4-2.8a9.371,9.371,0,0,0-3.4-.7,5.1,5.1,0,0,0-2.9.8,13.29,13.29,0,0,0-4.8,3.8c-1.2,1.6-4.1,3.7-5.6,5.4-1.3,1.4-2.4,2.7-2.8,2.7s-2.4,2.2-4.7,4.6c-.5.5-2.9,2.8-3.4,2.8,0-.9,2.1-4.9,2.6-5.9,0-1,1-2.7,1.4-3.8a45.628,45.628,0,0,1,1.9-4.9c.7-1.3,1-.9,1.6-1.7,1-1.5,4-3.6,4.4-4,.5-.6.1-.8.7-1.3.8-.5,1.7-.4,2.4-1.1.6-.6,4.7-3.9,6.5-5.5,1.7-1.7,2.8-2.7,3.7-3.7.7-.9,4.6-5.3,5.2-6.1.6-.9,2.3-2.6,2.6-3.6a5.148,5.148,0,0,1,1.7-2.3,7.98,7.98,0,0,0,2-3.7,8.449,8.449,0,0,1,.8-2.9,2.989,2.989,0,0,0,.5-1.7c0-.5-.1-.9-.1-1.5-.1-1.3-1.7-3-4-3a9.169,9.169,0,0,0-6.7,3.1,14.424,14.424,0,0,1-3.9,3.1c-1.2,1.1-1.1,1.6-2,2.6a22.658,22.658,0,0,0-3.7,2.9c-.7.9-4.3,5.2-5,7.1a17.352,17.352,0,0,1-3,4.7c-1,.9-2.8,4.3-4.6,7a40.882,40.882,0,0,0-3.1,5.6,34.986,34.986,0,0,1-2,3.9,14.647,14.647,0,0,0-1.3,1.9l-2.8,1.4c-1.1.6-1.3.4-2.6,1a55.9,55.9,0,0,1-6,2.8c-1.5.6-3.5,1.4-3.8,1.9a4.115,4.115,0,0,1-2.3,1c-.4.2-.8.2-1.2.6-.7.4-1.4.6-1.4,1,.1.5.9.9,1.4.9a5.945,5.945,0,0,0,1.6-.6c.9-.4,1.8-.8,2.5-1.2.7-.3,3.1-1.4,4.4-1.9.8-.3,3.1-1.3,4.3-1.9.7-.4,2.9-1.4,4.5-2.1-1,3.6-.5,4.5-2.4,6.2-1.7,1.7-1,4.3-2,6.2a8.137,8.137,0,0,0-1.5,4.5,2.4,2.4,0,0,0,2.6,2.3c1,0,2.7-1.1,3.7-2.1,1.1-1,3.4-2.1,4.3-3s4-4.2,4.3-5c.3-.9,1.6-1.9,2.7-2.6s2.3-2.1,3.6-3a41.939,41.939,0,0,0,3.7-3.5,40.761,40.761,0,0,1,4.2-3.6,2.663,2.663,0,0,1,1.2-.3c.7,0,1.2.3,1.3.8,0,1.5-1.6,2.7-1.6,3.9-.4,1.3-.2,2.5-.5,3.7a5.547,5.547,0,0,0-.3,1.7,6.653,6.653,0,0,0,.4,2.2c0,1,1.9,3.3,2.9,3.7a13.023,13.023,0,0,0,7.2,1.8C413.3-1.8,417-2.1,417.9-2.2ZM396-35.4c.6-1,2.2-2.6,2.3-3.5,0-.1.1-.2.1-.3a5.817,5.817,0,0,1,1-2c1.2-1.5,2.4-3,3.1-4.1.6-1,2.3-2.6,3.4-4.4.8-1.9,2-2.2,2.9-3.3.8-1.1,2.6-2.3,3.4-3.2a1.951,1.951,0,0,1,1.3-.5c.6,0,1,.3,1,.6a16.535,16.535,0,0,1,.2,2.7,4.416,4.416,0,0,1-.2,1.7,25.824,25.824,0,0,1-2.2,4.4c-.7.8-.6,2.3-1.8,3.3s-1.9,1.9-3.1,3c-1.3,1-4.3,5.7-4.7,6.2a17.475,17.475,0,0,0-2,1.8c-.9,1-2.9,2-4.1,3-1.1,1.3-5.5,4-6.4,4.7C391-26.5,395.4-34.2,396-35.4Z" transform="translate(18.7 60.5)"/></svg>