<svg xmlns="http://www.w3.org/2000/svg" width="425.7" height="89.4" viewBox="0 0 425.7 89.4"><defs><style>.a{fill:#fff;}</style></defs><path class="a" d="M72.3-57.1a1.193,1.193,0,0,0-1.1-1.2,19.53,19.53,0,0,0-6.6,1.9,13.109,13.109,0,0,0-2.8,2,32.2,32.2,0,0,0-8.8-1c-3.5,0-9.1.4-12.8.8-3.8.4-11.9,3-14.7,3.9a37.913,37.913,0,0,0-6.4,3.2c-1.8,1-1.8,1.6-2.9,2.1-1.2.6-3.2.4-8.5,5.6C2.2-34.6,1.1-31.7.4-29.9A9.468,9.468,0,0,0,0-27.1a17.96,17.96,0,0,0,.2,2.2c.1,1.8,2.8,3.8,5,5.4a10.63,10.63,0,0,0,6.1,1.4,26.644,26.644,0,0,0,11.6-3.8c3.5-2.2,8.1-5.2,9.6-6.9C34-30.6,38-33.9,38-38c0-3.2-1.9-5-3.1-5-.8,0-.9.5-.9,1.3a11.014,11.014,0,0,1-.5,3.3c-.6,1.1-1.2,1.9-2.5,3.8-1.1,1.9-1,2.6-2.6,3.6-1.5,1-1.3,1.9-3.3,3.7-1.9,1.8-2.6,1.7-5.4,4.2a10.773,10.773,0,0,1-7.6,2.9c-1.8,0-4.1-.8-5-2.1a7.687,7.687,0,0,1-1.6-5.2c0-2.6.3-2.6,1-4.8.7-2.3,2.1-2.8,3.2-4.2,1.2-1.5,1.2-.8,2.2-2.4,1-1.4,4.5-4.2,5.7-5.2C19-45.2,19.5-46,21-46.4c1.3-.4,2.6-1,6.1-2.5a70.194,70.194,0,0,1,15.3-3.9c2.5-.2,5.9-.4,9.2-.4,1.4,0,2.8,0,4.1.1a19.822,19.822,0,0,1,3.8.7c-.1.1-.1.2-.2.2-2.2,1.9-3.1,3.5-6.1,7.4C50.3-41,50.6-41,49-39.1c-1.5,2-1.8,4.5-4.5,6.9-2.8,2.5-4.5,7-6.8,9.6-2.3,2.8-3.3,6.7-5.2,9a8.614,8.614,0,0,0-2.1,3.3c-.8,1.9-1.3,1.8-3,3.4C25.8-5.4,23.6-1.8,21.3.7c-2.2,2.5-3,2.2-4.7,3.1a4.94,4.94,0,0,1-2.4.5,8.6,8.6,0,0,1-3-.5C9.4,3,9.9,2.1,8.4,1.8c-.2,0-.4-.1-.6-.1-1.4,0-2.7.9-2.7,2,0,1.2,3.6,3,7.7,3a21.639,21.639,0,0,0,9.5-2.6c3.8-2,10.3-9,11.2-9.9.8-1.2,2.1-1.8,2.9-3.7.8-1.8,2.9-3.1,4.2-5.2,1-1.6,2.5-2.9,4.1-5.4a25.283,25.283,0,0,0,2.8.1,29.663,29.663,0,0,0,4.2-.3,56.874,56.874,0,0,0,7.1-1.8c.5.3,1.1.7,1.9,1.1a12.605,12.605,0,0,1,5.2,5.4,9.11,9.11,0,0,1,.7,4,23.85,23.85,0,0,0,.2,3,5.919,5.919,0,0,1-.5,2.1c-.3,1.1-.4,2.4-.7,3.6a36.68,36.68,0,0,1-6.3.9c-2.3.2-4.2.9-6.2.9-.3,0-.7-.1-1.6-.1-2,0-3.9.2-6.1.2-2.6,0-6.3.6-8.3.6a9.9,9.9,0,0,0-6,2.7,8.277,8.277,0,0,0-1.9,4.4c0,1,.9,2.1,4.2,3.8,2.9,1.6,8.9,2.3,11.7,2.3a21.1,21.1,0,0,0,6-.8c2.1-.6,3.3-.6,7.9-2,4.8-1.4,11-5.9,12.6-8.5,1.7-2.7,1.3-1.6,2.5-3.1l.6-1.1c.1,0,.1-.1.2-.1l4.2-1.5c1.8-.8,3.1-1,4.6-1.8,1.1-.6,2.1-.9,3.2-1.6.4-.3.8-.7.8-1a.952.952,0,0,0-.2-.7,1.445,1.445,0,0,0-1.1-.3,3.337,3.337,0,0,0-1.2.5c-.4.3-1.5.8-1.7,1-1,.6-1.8.8-2.7,1.3-1,.4-2.7,1.3-3.8,1.3l-1.6.5a25.653,25.653,0,0,0,.5-5,15.389,15.389,0,0,0-.7-4.2c-.3-1-1.9-1-1.9-2.2,0-1.3-.1-1.8-.7-2.3a25.294,25.294,0,0,0-7.4-4.7c-.4-.1-.8-.3-1.3-.4.3-.1.4-.3.6-.4,1.6-1.2,1.6-.6,4.7-2,3-1.4,2.6-1.8,3.8-3.1s.3.2,2.3-1.7a11.127,11.127,0,0,0,3.6-8.8A12.4,12.4,0,0,0,76-48.1c-1.1-1.6-3.9-3.1-6.3-4.4a12.646,12.646,0,0,0-3.6-1c1.2-1.5,1.2-1.5,2.1-2,.1-.1.3-.1.5-.2C70.2-56.7,72.3-56.6,72.3-57.1Zm-7.1,7.4c.7.3.8.1,2.9,2.2a13.428,13.428,0,0,1,3.2,7.7c0,1-.7,2.3-1.4,4.2a17.553,17.553,0,0,1-2,4.3c-.6,1-.7,2.2-4.1,4.8a14.872,14.872,0,0,1-3.1,1.7l-4.6-.8a9.7,9.7,0,0,0-1.7-.1c-.8,0-1.6-.4-2.3-.4a15.218,15.218,0,0,0-3.7-.7A35.143,35.143,0,0,0,51.7-32,43.927,43.927,0,0,1,56-39.2c2.3-3.5,1-2.7,2.2-4.2,1.2-1.6,1.2-2,3.4-5a9.311,9.311,0,0,1,1.7-2.3A12.053,12.053,0,0,0,65.2-49.7ZM64.5-.8C63.1.5,61.7,3.5,60.7,4.5a28.425,28.425,0,0,1-5.1,4.1c-1.6.9-3.7.7-5.8,1.1a9.852,9.852,0,0,1-1.7.2c-1.4,0-2.7-.3-4.1-.4-3.1-.4-7.6-2-8.3-2.7-.8-.7-2-.9-2-2.9,0-1.1.9-1.6,2.7-2.1a26.768,26.768,0,0,1,5.9-.6c1.8,0,6.7-.4,8.7-.6C52.6.5,56.4,0,58.2,0a52.519,52.519,0,0,0,6.5-1ZM50.5-22c-1.4,0-3.6-.3-3.6-1.8,0-.4.7-.6,1.5-.6a48.328,48.328,0,0,1,5.7.8l1.9.5A29.49,29.49,0,0,1,50.5-22ZM126.9-.1c1.3-.4,4.6-1.2,5.1-2.1.2-.2,1.3-.3,2.6-.8a9.283,9.283,0,0,0,2.6-1c1.6-1,3-.9,4.4-1.8.3-.4,1.1-.7,1.5-1.1,0,0,1.5-.7,2.1-1a.932.932,0,0,0,.4-.7,1.329,1.329,0,0,0-.3-.7,1.613,1.613,0,0,0-.9-.3,3.255,3.255,0,0,0-1.4.4,9.234,9.234,0,0,1-1.3.9,10.743,10.743,0,0,1-1.5.7c-1.3.7-.9.6-1.5.9a14.545,14.545,0,0,0-2.5.9c-.7.4-3.7,1.2-4.2,1.7-1.1.7-2.3.4-3.5.9a23,23,0,0,1-3.8,1.1c-.7.3-2.2.5-5.8.5a12.959,12.959,0,0,1-3.4-.3,9.755,9.755,0,0,1-2.4-1.3,12.839,12.839,0,0,1-1.9-4.3c0-.7-.2-1.3-.2-1.9a17.048,17.048,0,0,0,4.1-1.7,52.8,52.8,0,0,0,5.6-3.5,23.43,23.43,0,0,0,4.9-4.5,5.783,5.783,0,0,0,1.7-3.6c0-1.2-.5-2.8-1.7-3.3a9.78,9.78,0,0,0-2.6-.3,10.069,10.069,0,0,0-3.1.5,70.627,70.627,0,0,0-7.1,3.2c-2.5,1.2-8.6,4.5-10.1,5.4-1.2.7-1.5.4-2.7,1a28.712,28.712,0,0,0-3,1.4,15.918,15.918,0,0,1-3,1.4c-1.6.8-3.5,1.5-3.8,1.9a4.921,4.921,0,0,1-2.4,1c-.4.2-.8.2-1.1.6-.7.4-1.4.6-1.4,1,0,.5.7.9,1.4.9a10.411,10.411,0,0,0,1.6-.6C89-9,90-9.3,90.8-9.7c1.3-.7,3.3-1.4,4.4-1.9.7-.3,3.1-1.4,4.2-2,1-.7,5-2.3,7.3-3.6-1.5,1.9-2.7,3.9-2.7,5.2-.1,1.6-.6,2-.6,2.7,0,1.1.3,2.8.4,4.1,0,1.3,1.6,3,2.4,4.1a7.736,7.736,0,0,0,3.7,2.5,27.215,27.215,0,0,0,6,.8c.4,0,.8-.1,1.2-.1C121.9,1.6,125.9.5,126.9-.1ZM111.8-12.7a20.01,20.01,0,0,1,5-6.6,35.42,35.42,0,0,1,3.5-2.9,2.916,2.916,0,0,1,1.5-.6,1.032,1.032,0,0,1,1.1.8,4.473,4.473,0,0,1-.9,2.5c-.4.6-2.9,3.3-3.4,3.8-.4.3-2.1,1.4-3.7,2.6a19.163,19.163,0,0,1-3.5,1.6A4.146,4.146,0,0,1,111.8-12.7Zm40.9,1.2c1.2-.6,3.4-1.5,4.5-2.2,1.2-.7,5.3-2.2,10-4a16.423,16.423,0,0,0-4,3.8,7.476,7.476,0,0,1-2.3,2.7,34.5,34.5,0,0,0-3.1,3.8A13.328,13.328,0,0,0,156.4-2a3.556,3.556,0,0,0,3.3,3.7,7.33,7.33,0,0,0,2.2.4,8.9,8.9,0,0,0,1.9-.3,26.919,26.919,0,0,0,5.4-2.2,45.793,45.793,0,0,1,5.4-3.5c1.5-.5,2.9-1.7,3.3-1.7.1,0,1.2,1.5,2.5,3.1a6.367,6.367,0,0,0,3.8,2.3,18.9,18.9,0,0,0,5.6.8,8.083,8.083,0,0,0,1.6-.1c1.9-.1,6-.4,7.2-.9,1.1-.5,4.5-1,5.1-1.8.3-.3,1.2-.3,2.6-.9a5.422,5.422,0,0,0,2.4-.9c1.7-1.1,3.1-1.3,4.5-2.1,1.1-.6,2.2-.9,3.3-1.6.3-.3.8-.7.9-1a.672.672,0,0,0-.4-.7,1.135,1.135,0,0,0-.8-.3,2.725,2.725,0,0,0-1.4.5,10.891,10.891,0,0,0-1.7,1c-1,.6-1.8.8-2.7,1.3a14.452,14.452,0,0,0-2.6,1.1c-.6.3-3.6,1.1-4.1,1.6-1.1.7-2.3.3-3.5,1-.6.4-2.2.6-4.4.6-1.7,0-4.4-.2-4.7-.5a12.981,12.981,0,0,1-2.8-1.5c-.8-.8-1.7-4.3-1.7-5.2,0-.7-.1-1.2-.1-1.9a4.484,4.484,0,0,1,.1-1.1,1.268,1.268,0,0,0,.1-.6,1.367,1.367,0,0,0-1.4-1.4,7.674,7.674,0,0,0-2.7.9,7.09,7.09,0,0,0-4.5,2.7,36.083,36.083,0,0,1-2.2,3.1c-1.6,1.5-3.4,2.7-4.6,3.8-.9.7-3.9,2.7-4.8,2.7s-1.6-.4-1.6-1.7c0-.2.1-.4.1-.7.3-1.7.4-2,2.3-5.2a20.654,20.654,0,0,1,3.1-4.3,23.777,23.777,0,0,1,6.2-5.1c2.1-.9,3.6-2.4,6.1-3.6a24.042,24.042,0,0,1,5-1.9c.3,0,.7-.1,1-.1a4.1,4.1,0,0,1,2.9,1,3.04,3.04,0,0,1,1,2.5,1.69,1.69,0,0,1-.2.9,7.227,7.227,0,0,0-1.7,3,1.181,1.181,0,0,0,1,1.3c1,0,2-1.1,2.6-2.1.8-1.1.8-1.7.8-3.4a6.332,6.332,0,0,0-2.1-4.3,6.292,6.292,0,0,0-3.8-1.6c-1.3,0-2.8.1-3,.4a.713.713,0,0,1-.6.3c-.5,0-1.2-.1-1.6-.1-1.3,0-2.3,1-3.4,1-1.8,0-3.3,1.8-4.8,1.8-2.2.8-4.6,1.6-9.2,3.7-.6.3-.9.5-3,1.4a26.533,26.533,0,0,1-3.1,1.2c-1.1.8-1.5.4-2.7,1a40.484,40.484,0,0,1-5.6,2.6,14.84,14.84,0,0,0-4.2,2.1,4.921,4.921,0,0,1-2.4,1c-.4.2-.8.2-1.1.6-.7.4-1.4.6-1.4,1,0,.5.7.9,1.4.9a10.41,10.41,0,0,0,1.6-.6C147.6-9.2,151.7-11,152.7-11.5ZM290.8-5.8a24.535,24.535,0,0,1-4.7.9,20.792,20.792,0,0,1-4.1-.3,8.495,8.495,0,0,1-3.6-1.3,5.742,5.742,0,0,1-1.6-3c-.1-1.7-.5-2.9-.5-3.7a8.344,8.344,0,0,1,.9-3.9,5.187,5.187,0,0,0,.9-3.3c0-.8-1-1.5-2.2-1.6a1.7,1.7,0,0,0-.7-.1,2.845,2.845,0,0,0-2.3,1.1,36.526,36.526,0,0,0-3,2.7c-.8,1.1-1.8,1.8-2.9,3.1a30.609,30.609,0,0,1-2.9,2.6c-.8.8-1.3.9-2.1,1.7-.6.7-1.3,1.5-1.7,1.5-.8,0-1.1.8-2.4,1.7-1.1.7-3.5,3.2-4.8,3.8a31.877,31.877,0,0,1-3.2,2,3.553,3.553,0,0,1-1,.2,1.6,1.6,0,0,1-1.8-1.5,10.668,10.668,0,0,1,1.1-3.7c.3-.9.8-3,1.7-4,.7-1,1.3-3.4,2.1-4.7a17.636,17.636,0,0,0,1.8-4,3.287,3.287,0,0,0,.4-1.7,2.529,2.529,0,0,0-1.1-2.2,5.62,5.62,0,0,0-3.7-1.1c-1.2,0-3.9,1.2-5.4,1.8-1.9.7-10.9,5.1-11.8,5.6-1,.8-1.4.4-2.7,1a26.278,26.278,0,0,1-3,1.4l-3,1.4a16.182,16.182,0,0,0-3.8,1.9,4.154,4.154,0,0,1-2.4,1,4.073,4.073,0,0,0-1.1.6c-.8.4-1.3.6-1.3,1a1.424,1.424,0,0,0,1.3.9,4.112,4.112,0,0,0,1.6-.6l6.9-3c.8-.3,3.1-1.4,4.3-2,1-.7,5-2.3,6.1-3,2.4-1.2,7.3-3,8.5-3,1,0,1.4.3,1.4,1.1a8.368,8.368,0,0,1-.9,2.8,27.572,27.572,0,0,1-2.5,4.4c-.8,1.1-.9,3.1-1.8,4.1a11.255,11.255,0,0,0-1.1,4.8c0,1.4,1.8,3,3.3,3.5a16.148,16.148,0,0,0,3.3.6,4.973,4.973,0,0,0,1.6-.3c1.9-.8,4.2-.9,5.8-1.7a31.255,31.255,0,0,0,4.1-2.9c1.7-1.2,2.2-2.6,3.6-3.5a5.816,5.816,0,0,1,2.5-1.2c1.3-.6,2-1.9,3.1-2.8a4.015,4.015,0,0,1,1.7-1.1c.1,0,.2.1.2.3A15.023,15.023,0,0,0,269-7.8c.9,1.3,1.9,2.9,2.9,3.5A24.787,24.787,0,0,0,275-2.5a25.266,25.266,0,0,0,4.9.6c1.3,0,2.9-.3,4-.3,1.8,0,4.3-.5,4.7-.9.3-.4,3-.6,3.9-1a35.284,35.284,0,0,1,4.2-1.8c1.3-.6,2.7-1.2,3.7-1.8.1-.1.8-.5.9-.8a.912.912,0,0,0-.3-.8,1.884,1.884,0,0,0-.8-.2,2.7,2.7,0,0,0-1.5.4l-3,1.5a22.436,22.436,0,0,0-2.9,1.3C292.3-5.8,291.6-6,290.8-5.8Zm22-7.8c1-.7,5-2.3,6.1-3-.7,2-1.3,4.1-1.7,4.5-.4.7-.6,2.4-1.3,3.2s-1.2,4.2-1.3,5.6a6.5,6.5,0,0,0,.8,3.8c.7.8,3.4,1.7,5.5,1.7,2.3-.1,3-1.1,4.3-1.2a44.509,44.509,0,0,0,5.3-1.4c1.2-.5,4.5-.9,5.2-1.8a22.359,22.359,0,0,1,2.6-.8,9.461,9.461,0,0,0,2.4-1c1.6-1,3.2-.9,4.5-1.8.5-.4,1.1-.7,1.5-1.1,0,0,1.6-.7,2.1-1a.932.932,0,0,0,.4-.7,1.329,1.329,0,0,0-.3-.7,1.136,1.136,0,0,0-.8-.3,2.7,2.7,0,0,0-1.5.5,19.713,19.713,0,0,1-2.7,1.5c-1.5.7-.9.6-1.6.9a18.409,18.409,0,0,0-2.5.9c-.5.4-3.6,1.2-4.1,1.7-1.1.7-2.5.3-3.5.9a18.247,18.247,0,0,1-3.6.9c-1.2,0-2.6.7-3.9.7a2.7,2.7,0,0,1-2.8-2,6.151,6.151,0,0,1-.1-1.3,10.525,10.525,0,0,1,1.5-5.1c.9-1.4,1.7-5.3,2.7-6.7,1-1.5,3.4-6.3,4.2-7.6a13.656,13.656,0,0,1,2.4-3.9,5.566,5.566,0,0,0,1.7-2.4c4.7-.6,5.9-.7,7.1-1a5.343,5.343,0,0,1,2.1-.3c.4,0,.8.1,1.2.1a4.013,4.013,0,0,0,1.5-.3,1.415,1.415,0,0,0,.7-1.2c0-.4-.2-.7-.6-.7-.6-.1-3.6-.1-4.3-.1-.8,0-3.3.8-6.3,1.3.3-.9,0-1.2.8-1.8a28.05,28.05,0,0,0,2.5-3.1,13.02,13.02,0,0,1,3.1-3.1,2.618,2.618,0,0,0,1.7-2.1c0-.7-.9-1.4-2-1.4-.2,0-.4.1-.6.1-1.1.3-1.7,1-2.9,1.7-1.5.7-3.4,1.6-4.1,2.5a12.716,12.716,0,0,0-2.3,2.7,16.778,16.778,0,0,1-2.8,3.4,7.351,7.351,0,0,0-1.2,1.7s-3.8.2-4.8.2c-1.6,0-3.3-.5-4.1-.5-1.3,0-3.6,1.6-3.6,2.7,0,1.3,1.6,1.4,2.4,1.4a4.909,4.909,0,0,0,2.7-.6,4.525,4.525,0,0,1,2.6-.9c.2,0,.5.1.7.1s.6.1,1,.1a13.665,13.665,0,0,0,1.9-.2,24.887,24.887,0,0,0-1.7,3.1c-.4.8-1.5,1.7-2.1,2.9a25.023,25.023,0,0,1-2.4,3.6,4.171,4.171,0,0,1-.5,1,28.23,28.23,0,0,0-4,2.1c-1,.8-1.3.6-2.7,1a13.478,13.478,0,0,1-3,1.4l-3,1.4a16.182,16.182,0,0,0-3.8,1.9,4.154,4.154,0,0,1-2.4,1,4.073,4.073,0,0,0-1.1.6c-.8.4-1.3.6-1.3,1A1.424,1.424,0,0,0,300-8a4.112,4.112,0,0,0,1.6-.6l6.9-3C309.3-11.9,311.6-13,312.8-13.6ZM406.3-1.2s.9-2.9,1.2-4.3a22.733,22.733,0,0,0,.9-5.9c0-1.5-.1-1.1-.7-3.1-.5-2-2.8-3-3.7-3.4a2.388,2.388,0,0,0-.9-.2,6.621,6.621,0,0,0-3.1,1c-1.7.8-4.8,3.9-4.8,3.9a4.23,4.23,0,0,1-2.4,1.7c-1.6.5-2.9,2.4-4.2,3-1.1.7-2,1.6-3.1,2.2-1.2.5-2.3,1.4-3.5,1.8a4.253,4.253,0,0,1-1.1.2c-.8,0-1.6-.4-1.6-1a18.035,18.035,0,0,1,2-5.3c.8-.6,1-1.5,1.5-2.5.4-.8,1.2-1.2,1.7-2.4.4-1.1,3.5-4.9,3.4-5.7-.2-1.4-.2-2.3-1.3-3.1a8.246,8.246,0,0,0-4-1.3,18.171,18.171,0,0,0-5.3,1.7c-.7.3-2.5,1.5-5,2.7a5.732,5.732,0,0,0-1.4.4c-3.3,1.6-6.4,3.3-6.9,3.6-1,.8-1.3.6-2.7,1a13.478,13.478,0,0,1-3,1.4l-3,1.4a16.182,16.182,0,0,0-3.8,1.9,4.154,4.154,0,0,1-2.4,1,4.073,4.073,0,0,0-1.1.6c-.8.4-1.3.6-1.3,1A1.424,1.424,0,0,0,348-8a4.112,4.112,0,0,0,1.6-.6l2.6-1.2,4.3-1.8c.8-.3,3.1-1.4,4.3-2,1-.7,5-2.3,6.1-3,1-.5,4.7-2,5.7-2.3,2.1-.8,5.4-2.1,6.2-2.1a1.059,1.059,0,0,1,1.2,1.2,3.845,3.845,0,0,1-.5,1.2c-.3.6-3.1,3.7-3.6,4.3-.4.5-.6,2.2-1.2,3-1.2,1.6-2.2,2.9-2.2,4.6a7.782,7.782,0,0,0,1.1,3.9c.7,1.1,2.5,1.3,3.6,1.6a1.978,1.978,0,0,0,1.1.2,8.057,8.057,0,0,0,3.4-.9c.7-.5,2.5-1.5,3.3-2.2,1.1-.8,3.3-1.3,3.9-2.2.8-1,2-1.1,3.1-2,1.1-.8,2.8-1.9,3.8-2.8.9-.8,1.5-1.1,2.8-2.3,1.1-1.2,1.8-1.5,2.4-1.5a1.9,1.9,0,0,1,1.6,2,2.921,2.921,0,0,1-.2.9,45.993,45.993,0,0,0-1.3,5,33.892,33.892,0,0,1-1.7,5.9c-1.6,3.7-1.6,3.8-1.7,3.9a7.071,7.071,0,0,1-2.1,1.3c-1,.4-2.8,1.1-4.2,1.8-1.3.6-1.2,1-3.4,1.9a23.886,23.886,0,0,0-5.6,3.4,25.184,25.184,0,0,0-3.8,3c-1.1,1-1.4.7-2.4,1.4a8.153,8.153,0,0,0-2.4,2.2,19.864,19.864,0,0,1-2.9,3.4,8.6,8.6,0,0,0-1.6,5.1c0,1.9,1.9,3.8,4.6,4.6a5.245,5.245,0,0,0,1.8.2,16.93,16.93,0,0,0,7.5-2,22.378,22.378,0,0,0,5.1-3.4c.5-.7,2.2-2.7,2.9-2.8.6-.3,1.1-1.6,2.1-2.4a37.48,37.48,0,0,0,3.4-3.6,38.8,38.8,0,0,0,3-4.8c.4-.7,1.8-2.3,2.2-3.1.6-.8,1.2-2.7,3.1-7.3,1.1-.5,2.2-.9,3.4-1.5,1-.6,4.4-1.7,5.1-2.4.2-.3,1-.6,2.5-1a10.665,10.665,0,0,0,1.9-.9c1.6-1.1,2.6-1.2,3.9-2l3.5-1.8a.932.932,0,0,0,.4-.7,1.329,1.329,0,0,0-.3-.7,1.136,1.136,0,0,0-.8-.3,2.919,2.919,0,0,0-1.4.5,5.286,5.286,0,0,1-1.4.8,9.081,9.081,0,0,1-1.4.7c-1.5.7-.9.6-1.6.9s-1.2.3-1.7.8c-.7.4-3.1,1-3.6,1.6-1.1.8-2,.8-3,1.3A37.42,37.42,0,0,1,406.3-1.2Zm-12,10.5a26.257,26.257,0,0,0-2,3.3,3.809,3.809,0,0,1-1.7,2.3c-.9.7-.8,1.5-2.3,3.1-1.7,1.5-1.7,2.3-3.4,3.3-1.7,1.3-4.1,4.4-6.1,5a14.549,14.549,0,0,1-4.1.9,3.083,3.083,0,0,1-1-.1,2.27,2.27,0,0,1-1.3-1.9,3.091,3.091,0,0,1,.2-.8,16.517,16.517,0,0,1,3.3-4.8,42.589,42.589,0,0,1,3.8-3.5c1.1-.8,2.6-2.1,3.5-2.7,1.3-.9,2.7-2,4.5-3.1,1.8-1,3.9-1.5,4.6-2.4a47.054,47.054,0,0,1,4.5-2.7A22.023,22.023,0,0,1,394.3,9.3Z" transform="translate(0 58.3)"/></svg>