<svg xmlns="http://www.w3.org/2000/svg" width="193.12" height="46.4" viewBox="0 0 193.12 46.4"><defs><style>.a{fill:#fff;}</style></defs><path class="a" d="M6.88-9.2c.96-.48,2.72-1.2,3.6-1.76.96-.56,4.24-1.76,8-3.2a13.139,13.139,0,0,0-3.2,3.04,5.981,5.981,0,0,1-1.84,2.16,27.6,27.6,0,0,0-2.48,3.04A10.662,10.662,0,0,0,9.84-1.6a2.845,2.845,0,0,0,2.64,2.96,5.864,5.864,0,0,0,1.76.32,7.119,7.119,0,0,0,1.52-.24A21.535,21.535,0,0,0,20.08-.32a36.635,36.635,0,0,1,4.32-2.8c1.2-.4,2.32-1.36,2.64-1.36.08,0,.96,1.2,2,2.48A5.093,5.093,0,0,0,32.08-.16a15.123,15.123,0,0,0,4.48.64A6.466,6.466,0,0,0,37.84.4,28.968,28.968,0,0,0,43.6-.32c.88-.4,3.6-.8,4.08-1.44.24-.24.96-.24,2.08-.72a4.338,4.338,0,0,0,1.92-.72c1.36-.88,2.48-1.04,3.6-1.68.88-.48,1.76-.72,2.64-1.28.24-.24.64-.56.72-.8a.537.537,0,0,0-.32-.56.908.908,0,0,0-.64-.24,2.18,2.18,0,0,0-1.12.4,8.713,8.713,0,0,0-1.36.8c-.8.48-1.44.64-2.16,1.04a11.561,11.561,0,0,0-2.08.88,23.23,23.23,0,0,0-3.28,1.28c-.88.56-1.84.24-2.8.8a8.116,8.116,0,0,1-3.52.48,12.8,12.8,0,0,1-3.76-.4,10.385,10.385,0,0,1-2.24-1.2A10.2,10.2,0,0,1,34-7.84c0-.56-.08-.96-.08-1.52a3.588,3.588,0,0,1,.08-.88,1.015,1.015,0,0,0,.08-.48,1.094,1.094,0,0,0-1.12-1.12,6.139,6.139,0,0,0-2.16.72,5.672,5.672,0,0,0-3.6,2.16,28.864,28.864,0,0,1-1.76,2.48c-1.28,1.2-2.72,2.16-3.68,3.04-.72.56-3.12,2.16-3.84,2.16s-1.28-.32-1.28-1.36c0-.16.08-.32.08-.56.24-1.36.32-1.6,1.84-4.16a16.523,16.523,0,0,1,2.48-3.44A19.022,19.022,0,0,1,26-14.88c1.68-.72,2.88-1.92,4.88-2.88a19.234,19.234,0,0,1,4-1.52c.24,0,.56-.08.8-.08a3.283,3.283,0,0,1,2.32.8,2.432,2.432,0,0,1,.8,2,1.352,1.352,0,0,1-.16.72,5.782,5.782,0,0,0-1.36,2.4.945.945,0,0,0,.8,1.04c.8,0,1.6-.88,2.08-1.68a3.664,3.664,0,0,0,.64-2.72,5.066,5.066,0,0,0-1.68-3.44,5.034,5.034,0,0,0-3.04-1.28,5.219,5.219,0,0,0-2.4.32.57.57,0,0,1-.48.24c-.4,0-.96-.08-1.28-.08-1.04,0-1.84.8-2.72.8-1.44,0-2.64,1.44-3.84,1.44-1.76.64-3.68,1.28-7.36,2.96-.48.24-.72.4-2.4,1.12a21.227,21.227,0,0,1-2.48.96c-.88.64-1.2.32-2.16.8a32.387,32.387,0,0,1-4.48,2.08A11.872,11.872,0,0,0,3.12-9.2a3.937,3.937,0,0,1-1.92.8c-.32.16-.64.16-.88.48-.56.32-1.12.48-1.12.8,0,.4.56.72,1.12.72A8.328,8.328,0,0,0,1.6-6.88C2.8-7.36,6.08-8.8,6.88-9.2Zm67.76-5.36c1.6-.8,6.64-3.36,7.28-4a4.98,4.98,0,0,1,1.84-.72,1.462,1.462,0,0,1,1.44.8,3.3,3.3,0,0,1,.08.96,3.022,3.022,0,0,1-.08.96,29.224,29.224,0,0,1-1.36,3.92,12.7,12.7,0,0,0-1.36,2.96,12.771,12.771,0,0,1-.88,2.64,27.394,27.394,0,0,0-1.44,3.52,4.614,4.614,0,0,0-.24,1.12A2.792,2.792,0,0,0,80.4-.96C81.04.08,81.52.4,82.24.4c1.2,0,2.24-1.76,2.72-2.4.72-.88,1.84-2.4,2.72-3.76A7.8,7.8,0,0,1,90-8c1.2-.96,3.04-1.76,3.52-2.4a4.379,4.379,0,0,1,2-1.6,14.069,14.069,0,0,0,3.12-2,8.051,8.051,0,0,1,2-1.36,6.112,6.112,0,0,1,1.68-.4c1.2,0,1.28,1.28,1.52,2.56.16.88.24,1.68.56,3.12A10.507,10.507,0,0,0,106-6.56c.96,1.6.8,1.6,1.92,2.24,1.28.72,1.2,1.2,2.48,1.68,1.44.4,1.44.88,2.56.88a44.887,44.887,0,0,0,6.48.48,14.782,14.782,0,0,0,3.52-.48,15.789,15.789,0,0,0,2.8-.8,7.354,7.354,0,0,0,2.08-.56c1.44-.8,2.56-.8,3.76-1.52l3.28-1.68c0-.08.24-.24.24-.56a.735.735,0,0,0-.8-.72c-1.12.08-1.76,1.04-2.64,1.04a2.783,2.783,0,0,1-1.2.56,17.721,17.721,0,0,1-3.2,1.36,34.631,34.631,0,0,1-3.36,1.04,14.358,14.358,0,0,1-4.32.32,7.853,7.853,0,0,1-4.8-1.52,12.036,12.036,0,0,1-2.24-3.92c-.24-1.36-1.84-2.96-1.92-4.24-.08-1.2-1.2-3.04-1.44-4a3.709,3.709,0,0,0-2.8-1.92,4.053,4.053,0,0,0-1.04-.16,7.812,7.812,0,0,0-2.64.56,20.688,20.688,0,0,0-4,1.92,13.509,13.509,0,0,0-2.4,1.68c-.48.32-.56.88-1.36,1.04-.8.08-1.92,1.28-3.68,2.64-1.12.8-.96.96-1.68.96-.16,0-.16-.16-.16-.4a6.65,6.65,0,0,1,.72-2.4c.72-.96.48-2.16,1.04-3.12a7.156,7.156,0,0,0,.8-3.52,4.487,4.487,0,0,0-.4-2.48A3.989,3.989,0,0,0,88-24.24a8.259,8.259,0,0,0-3.92,1.12c-.72.56-1.52,1.36-2.4,1.92-3.92,2.4-4.72,2.88-4.96,2.96a5.093,5.093,0,0,1-1.76,1.44,8,8,0,0,0-1.12.64,16.026,16.026,0,0,0-3.6,2.08,6.643,6.643,0,0,1-2,.96A12.15,12.15,0,0,1,66.56-12a17.531,17.531,0,0,0-2.96,1.6,17.168,17.168,0,0,0-3.12,1.44,3.986,3.986,0,0,1-2,.8,1.753,1.753,0,0,0-.8.48c-.64.24-1.04.48-1.04.88,0,.32.56.64,1.04.64a4.756,4.756,0,0,0,1.28-.48l2.08-.96c.72-.32,2.88-1.52,3.36-1.68a19.854,19.854,0,0,0,3.52-1.6,25.345,25.345,0,0,1,3.6-1.84A23.942,23.942,0,0,1,74.64-14.56ZM176.48.08c.8-.4,3.44-1.12,3.84-1.84.16-.16.96-.24,2.08-.64a7.426,7.426,0,0,0,2.08-.8c1.28-.8,2.48-.64,3.52-1.44a17.9,17.9,0,0,1,2.88-1.68c0-.08.32-.24.32-.56,0-.16-.08-.32-.32-.56a.908.908,0,0,0-.64-.24,2.023,2.023,0,0,0-1.2.48,9.291,9.291,0,0,1-2.16,1.12c-1.04.56-.72.48-1.2.72a10.7,10.7,0,0,0-1.92.72,34.241,34.241,0,0,0-3.44,1.36c-.88.56-1.92.48-2.88,1.04a25.1,25.1,0,0,1-2.72.8,19.1,19.1,0,0,1-3.92.48c-.88,0-1.84-.4-1.84-1.52A25.434,25.434,0,0,1,170-8.72c.4-1.84,1.36-4,1.6-4.96.4-1.44.72-3.04,1.92-3.92.96-.48.88-.96,1.28-1.68a40.733,40.733,0,0,1,4.16-4.08c1.12-1.04,2.16-2.8,4.56-4.96,2.4-2.08,2.72-4.16,3.44-5.04.72-.8,1.84-2.56,2.56-3.2a12.535,12.535,0,0,0,1.92-2.64,5.436,5.436,0,0,0,.88-3.12c0-2-2.24-2.24-3.52-2.24-.88.08-1.44,1.04-1.6,1.04-.24,0-.64,0-1.76.72a14.214,14.214,0,0,0-3.12,2.8c0,.24-.72,1.28-1.2,1.36-.4.16-1.84,2.16-2.8,3.04a14.479,14.479,0,0,0-2.88,3.68c-.32.96-1.2,1.44-1.2,1.84s-.48,1.68-1.28,1.92c-.8.32-3.44,6.64-4.48,8.24-1.04,1.52-2.72,6.64-2.72,6.64s-.32.24-1.12.8c-.88.56-1.6,1.68-2.56,2.4S160-8.72,159.12-8c-.88.64-.56,1.12-1.84,1.44-1.36.32-1.76,1.04-3.68,2.16-1.52.96-2.56,1.52-3.28,1.52a3.465,3.465,0,0,1-.4-.08c-.48-.24-.72-.56-.72-1.76a6.386,6.386,0,0,1,2.16-4.72c1.04-1.28,1.2-1.6,2.56-3.12a15.134,15.134,0,0,1,3.44-2.64c1.2-.72,2.32-2.4,2.96-2.48a14.142,14.142,0,0,1,2.48-.64c.56,0,.64.48.64.88a10.394,10.394,0,0,1-.24,1.2c0,.32.16.8.56.8.64,0,.96-.08,1.28-.56a2.351,2.351,0,0,0,.56-1.36,3.574,3.574,0,0,0-2.16-2.88A4.43,4.43,0,0,0,162-20.4a3.9,3.9,0,0,0-2,.4c-1.04.48-.4.72-1.36.72a4.141,4.141,0,0,0-2.24.88c-.16,0-.96.08-3.12,1.44-.4.24-1.04.48-1.76.8-2.08,1.04-4.08,2.16-4.48,2.4-.8.64-1.12.32-2.16.8a21.022,21.022,0,0,1-2.4,1.12c-3.6,1.6-5.2,2.32-5.44,2.64a3.323,3.323,0,0,1-1.92.8,3.259,3.259,0,0,0-.88.48c-.64.32-1.04.48-1.04.8a1.139,1.139,0,0,0,1.04.72,3.289,3.289,0,0,0,1.28-.48c1.84-.8,3.68-1.68,5.28-2.32.88-.32,2.72-1.2,6.4-3.04a26.384,26.384,0,0,0-2.32,3.6c-.64,1.2-.4,1.52-1.12,2.16a5.118,5.118,0,0,0-.8,3.04c0,.88,2.4,2.88,4.64,2.88a7.984,7.984,0,0,0,4.64-1.12,9,9,0,0,1,2.08-1.12,6.225,6.225,0,0,0,2.24-1.36c.56-.48,2.96-1.6,3.04-2.32.16-.72,3.2-2.24,3.76-2.72.48-.48.8-1.2,1.44-1.2.24,0,.32.08.32.16,0,.32-.64.96-.8,2s-.96,4.32-.96,5.44a4.659,4.659,0,0,0,2.96,4,8.289,8.289,0,0,0,3.04.64c.32,0,.64-.08.96-.08A44.945,44.945,0,0,0,176.48.08Zm1.68-26.8a10.917,10.917,0,0,0,1.52-2.48,8,8,0,0,1,1.76-2.56c.32-.56,1.52-1.84,2-2.8a11.647,11.647,0,0,1,1.6-2.16c2.4-2.48,3.68-4.24,4.4-4.24.32,0,.4.16.4.4a4.553,4.553,0,0,1-.64,1.52c-.32,1.28-1.76,2.48-2.88,4a25.459,25.459,0,0,0-1.92,2.96c-.64.96-1.36,1.2-2.16,2.32a17.248,17.248,0,0,1-2.32,2.8c-.88.88-2.4,2.08-2.88,2.64A6.976,6.976,0,0,1,178.16-26.72Z" transform="translate(0.8 44.56)"/></svg>