<?xml version="1.0" encoding="UTF-8"?><svg id="b" xmlns="http://www.w3.org/2000/svg" viewBox="0 0 48.4578191354 8.6155244125"><defs><style>.e{fill:#fff;}</style></defs><g id="c"><g id="d"><rect class="e" x=".0000000015" y="2.3679895477" width=".5373681327" height="6.2475348647" rx=".2466776053" ry=".2466776053"/><rect class="e" x=".7757923027" y="2.3679895477" width=".5373681328" height="6.2475348647" rx=".2466776053" ry=".2466776053"/><rect class="e" x="1.551584604" y="2.3679895477" width=".5373681328" height="6.2475348647" rx=".2466776053" ry=".2466776053"/><rect class="e" x="2.327376905" y="2.3679895477" width=".537368133" height="6.2475348647" rx=".2466776054" ry=".2466776054"/><rect class="e" x="3.1031692064" y="2.3679895477" width=".5373681329" height="6.2475348647" rx=".2466776053" ry=".2466776053"/><rect class="e" x="3.8789615077" y="2.3679895477" width=".5373681327" height="6.2475348647" rx=".2466776052" ry=".2466776052"/><rect class="e" x="4.6547538088" y="2.3679895477" width=".5373681328" height="6.2475348647" rx=".2466776054" ry=".2466776054"/><rect class="e" x="5.43054611" y="2.3679895477" width=".5373681327" height="6.2475348647" rx=".2466776053" ry=".2466776053"/><rect class="e" x="6.2063384115" y="2.3679895477" width=".5373681323" height="6.2475348647" rx=".2466776052" ry=".2466776052"/><rect class="e" x="6.9821307125" y="2.3679895477" width=".5373681327" height="6.2475348647" rx=".2466776052" ry=".2466776052"/><rect class="e" x="7.7579230138" y="2.3679895477" width=".5373681327" height="6.2475348647" rx=".2466776052" ry=".2466776052"/><rect class="e" x="8.5337153146" y="2.3679895477" width=".5373681335" height="6.2475348647" rx=".2466776056" ry=".2466776056"/><rect class="e" x="9.309507616" y="2.3679895477" width=".5373681331" height="6.2475348647" rx=".2466776053" ry=".2466776053"/><rect class="e" x="10.0852999174" y="2.3679895477" width=".5373681327" height="6.2475348647" rx=".2466776052" ry=".2466776052"/><rect class="e" x="10.861092218" y="2.3679895477" width=".5373681336" height="6.2475348647" rx=".2466776053" ry=".2466776053"/><rect class="e" x="11.6368845198" y="2.3679895477" width=".5373681331" height="6.2475348647" rx=".2466776053" ry=".2466776053"/><rect class="e" x="12.4126768215" y="2.3679895477" width=".5373681324" height="6.2475348647" rx=".2466776052" ry=".2466776052"/><rect class="e" x="13.188469122" y="2.3679895477" width=".5373681334" height="6.2475348647" rx=".2466776051" ry=".2466776051"/><rect class="e" x="13.9642614234" y="2.3679895477" width=".5373681331" height="6.2475348647" rx=".2466776052" ry=".2466776052"/><rect class="e" x="14.7400537253" y="2.3679895477" width=".5373681321" height="6.2475348647" rx=".246677605" ry=".246677605"/><rect class="e" x="15.5158460267" y="2.3679895477" width=".5373681321" height="6.2475348647" rx=".246677605" ry=".246677605"/><rect class="e" x="16.2916383256" y="2.3679895477" width=".5373681364" height="6.2475348647" rx=".2466776043" ry=".2466776043"/><rect class="e" x="17.0674306297" y="2.3679895477" width=".5373681311" height="6.2475348647" rx=".2466776052" ry=".2466776052"/><rect class="e" x="17.8432229298" y="2.3679895477" width=".5373681326" height="6.2475348647" rx=".246677605" ry=".246677605"/><rect class="e" x="18.6190152312" y="2.3679895477" width=".5373681319" height="6.2475348647" rx=".2466776051" ry=".2466776051"/><rect class="e" x="19.3948075326" y="2.3679895477" width=".5373681321" height="6.2475348647" rx=".2466776057" ry=".2466776057"/><rect class="e" x="20.1705998336" y="2.3679895477" width=".537368133" height="6.2475348647" rx=".2466776047" ry=".2466776047"/><rect class="e" x="20.9463921349" y="2.3679895477" width=".5373681327" height="6.2475348647" rx=".2466776047" ry=".2466776047"/><rect class="e" x="21.7221844368" y="2.3679895477" width=".5373681316" height="6.2475348647" rx=".2466776053" ry=".2466776053"/><rect class="e" x="22.4979767367" y="2.3679895477" width=".5373681337" height="6.2475348647" rx=".2466776074" ry=".2466776074"/><rect class="e" x="23.2737690382" y="2.3679895477" width=".5373681335" height="6.2475348647" rx=".2466776049" ry=".2466776049"/><path class="e" d="M2.8756357488,.0053827522H25.8818418622V3.1375580822H0v-.2565395813C0,1.2939119262,1.2885291741,.0053827522,2.8756357488,.0053827522Z"/><path class="e" d="M47.8349601215,8.3167054791c-.2170837213-.1863969119-1.9499960858-1.9572558605-6.4723078411-1.9572558605s-5.6635970756,1.9572558605-6.0694159772,1.9572558605h-1.7256213906c-.3507638172,0-2.0231394695-1.0798934402-4.5223117553-1.0798934402s-3.722620583,1.0798934402-4.1247683943,1.0798934402-.6228590138-.1957962949-.6228590139-.4373232649l-.0000000015-7.4366761946c0-.24152697,.2788634791-.437323265,.6228590138-.437323265,0,0,11.784266955-.0000000012,17.4249099444-.0000000012s6.1123744297-.3355333068,6.1123744297,4.2916349968,0,3.582364464,0,3.582364464c0,.24152697-.4057752926,.6237201769-.6228590139,.437323265Z"/></g></g></svg>