<?xml version="1.0" encoding="UTF-8"?><svg id="b" xmlns="http://www.w3.org/2000/svg" viewBox="0 0 40.6692586817 10.2852733435"><defs><style>.d{fill:#fff;}</style></defs><g id="c"><path class="d" d="M40.6572346034,7.4537648244c-.0300292969-.3466186523-.1196289062-.604675293-.2003173828-.8323364258-.0095825195-.0270996094-.0858764648-.2086791992-.2362060547-.5715332031-.1625976562-.3925170898-.1843261719-.4430541992-.2139282227-.5095825195-.1247558594-.2803955078-.1407470703-.2853393555-.2929077148-.6224365234-.1455688477-.3223876953-.1950683594-.4599609375-.2105102539-.5034179688-.0286865234-.0807495117-.0601806641-.1799926758-.1220703125-.3753051758-.0512084961-.1616821289-.0926513672-.2951049805-.1206054688-.385925293,.0256958008-.0268554688,.0595703125-.0653076172,.0942993164-.1151123047,.1339111328-.1922607422,.1616210938-.383605957,.1727905273-.4673461914,.0228271484-.1713256836,.0465698242-.3497314453-.0549926758-.5379638672-.1188964844-.2202758789-.3269042969-.3013305664-.3731079102-.3181152344-.0405883789-.0147705078-.2599487305-.0901489258-.4987182617,.0078735352-.1813354492,.0744018555-.2692260742,.2059326172-.3887939453,.3848266602-.1139526367,.1705322266-.1976318359,.295715332-.1727905273,.4320068359,.0057983398,.0316772461,.0193481445,.0744018555-.0040283203,.1082763672-.0374755859,.0545043945-.1270141602,.0238037109-.2210693359,.0531005859-.1236572266,.0385131836-.1843261719,.1586914062-.2122192383,.2033691406-.1575317383,.2524414062-.7901611328,.5338745117-1.0612182617,.6544189453-.8470458984,.3768310547-1.619140625,.5286254883-1.768737793,.5571899414-.8020629883,.1530761719-1.4281005859,.1468505859-1.7775268555,.1414794922-.5286254883-.0081176758-.8773193359-.0590209961-.9551391602-.0707397461-.4739990234-.0712890625-.8342285156-.1805419922-1.0523681641-.2476196289-.2272338867-.0698852539-.3984985352-.1331176758-.760559082-.2741699219-.8619384766-.3357543945-1.3441162109-.5394287109-1.3442382812-.5394287109-2.3394775391-.9879760742-2.5346069336-1.0358886719-3.1221923828-1.3720703125-.1536254883-.087890625-.5166625977-.2999267578-.9564819336-.5763549805-.4903564453-.3081054688-.5369873047-.357421875-1.0546264648-.686706543-.87890625-.5590820312-1.1834106445-.6962280273-1.4604492188-.7947387695-.3288574219-.1168823242-.5541992188-.1564941406-.7293701172-.1736450195-.2321777344-.0227661133-.512878418-.0502929688-.8422851562,.0477294922-.1794433594,.0534057617-.2310180664,.1017456055-.4471435547,.147644043-.2074584961,.0440673828-.3657836914,.0432739258-.5036621094,.0433959961-.2980957031,.0003051758-.5961914062,.0211181641-.8941650391,.0127563477-.4100341797-.0114746094-.6536865234,.0233764648-1.8751831055,.0701293945-1.3961181641,.0534057617-2.1030883789,.0806274414-2.5411376953,.1051635742-1.3393554688,.0749511719-1.3554077148,.1147460938-2.5674438477,.1752319336-1.0509643555,.0524291992-1.0726928711,.0241699219-2.1906738281,.0788574219-.6728515625,.0328979492-1.0490722656,.0620117188-2.3746337891,.1577148438-2.5348510742,.1831054688-2.2346191406,.1545410156-2.9529418945,.2103271484-1.0046386719,.0780029297-2.3859863281,.1956176758-4.0599975586,.3701782227-.0401000977,.0101928711-.1010742188,.0314941406-.1592407227,.0796508789C-.0213542638,1.6629323049-.0009685216,1.9020070119,.0025715175,1.9369801564c.0056762695,.0564575195,.0194702148,.1931762695,.135925293,.2980957031,.1271972656,.1145629883,.2830810547,.1067504883,.3138427734,.1046142578,.6725463867,.0798950195,5.3878173828,.637512207,8.9921264648,.9469604492,1.6870727539,.1448364258,3.1524658203,.2424926758,3.1525878906,.2424926758,1.0360107422,.0690307617,1.8261108398,.1112060547,2.6812133789,.1565551758,3.1773681641,.1683959961,4.7446899414,.1972045898,5.2877807617,.4024658203,.0762329102,.0288085938,.3983154297,.1615600586,.8095092773,.1307983398,.0758666992-.0056762695,.1541748047-.0201416016,.3107299805-.0490722656,.4810180664-.0888061523,.5372314453-.1430664062,.8076171875-.1842651367,.0492553711-.0075683594,.0150146484,.0013427734,.8046264648-.0123901367,.2646484375-.0046386719,.4014892578-.0075683594,.6065063477,.0061645508,.0531616211,.0036010742,.2274169922,.0160522461,.4580078125,.0494995117,.1956787109,.0283813477,.3137817383,.0582275391,.4456176758,.0805053711,.3818359375,.0645141602,.602722168,.090637207,.7798461914,.1175537109,.4250488281,.0646972656,.7030029297,.1502685547,1.0397338867,.2421875,.8973388672,.2448120117,1.0045166016,.2048339844,1.9038085938,.4351196289,1.042175293,.2669067383,1.8768920898,.4868774414,2.7822875977,1.0227661133,.4568481445,.2703857422,.7908935547,.5378417969,.8902587891,.6187133789,.2066650391,.1682128906,.5620727539,.4768066406,.9391479492,.9169311523,.2088012695,.2437133789,.1817626953,.2447509766,.596496582,.7611083984,.3009643555,.3748168945,.4514160156,.5621948242,.6008911133,.7122192383,.3729248047,.3742675781,.7276611328,.5881958008,.9213867188,.7032470703,.3557739258,.2114257812,.8956298828,.5248413086,1.6602172852,.6187133789,.5130004883,.0629882812,.909362793,.0003662109,1.037109375-.022277832,.0806884766-.0142822266,.3714599609-.0688476562,.7745361328-.2359008789,.5603637695-.2322387695,1.2431640625-.5151977539,1.6335449219-1.1928710938,.2253417969-.3912963867,.2775878906-.7828369141,.2848510742-.8412475586,.0281982422-.2269897461,.0136108398-.4066162109,.0044555664-.5119018555Zm-.7645263672,.3804321289c-.0565795898,.3119506836-.2219238281,.5189208984-.3322143555,.6568603516-.3412475586,.4270019531-.7725830078,.5955810547-1.0645751953,.7097167969-.1032714844,.0404052734-.4853515625,.18359375-1.01171875,.2189941406-.5167236328,.0347290039-.9188842773-.0515136719-1.102355957-.0981445312-.2077026367-.0528564453-.6049194336-.1576538086-1.0344238281-.4530639648-.2443847656-.1680908203-.6951293945-.4868164062-.9362182617-1.0796508789-.1530761719-.3764038086-.1520996094-.6924438477-.1510009766-.7625732422,.0075073242-.4772338867,.1993408203-.8121948242,.2415771484-.8834228516,.1853027344-.3119506836,.4198608398-.4759521484,.6569213867-.641784668,.1253662109-.0877075195,.3357543945-.2326660156,.6417236328-.3397216797,.4329223633-.151550293,.7940673828-.1351318359,1.1099243164-.1208496094,.2606811523,.0118408203,.6305541992,.0540771484,1.0595703125,.1912841797,.4087524414,.1126708984,.7079467773,.2846069336,.8959350586,.4127807617,.2405395508,.1638793945,.5869750977,.3999633789,.7927856445,.8380737305,.0823364258,.1751098633,.1138916016,.3223876953,.1661376953,.5662841797,.0681762695,.3181762695,.1139526367,.5316162109,.0679321289,.7852172852Z"/></g></svg>