<?xml version="1.0" encoding="UTF-8"?><svg id="b" xmlns="http://www.w3.org/2000/svg" viewBox="0 0 48.4985772117 8.0061095018"><defs><style>.d{fill:#fff;}.e{fill:#2c2c2c;}</style></defs><g id="c"><path class="d" d="M48.4525156401,2.9966689013c-.0000610352-.0001220703-.0334472656-.0485839844-.0902709961-.0814819336-.149230957-.0863647461-.3856201172-.0198364258-.3856811523-.0198364258-.3193359375,.0899047852-.5770874023,.3359985352-.9037475586,.5422363281-.2604370117,.1644897461-.1952514648,.0703735352-.9923095703,.4573974609-.4115600586,.1998901367-.4477539062,.2341308594-.6159667969,.2766723633-.1694946289,.0428466797-.5693969727,.1382446289-.9443359375-.0479125977-.0913696289-.0454101562-.1567993164-.0966796875-.2877197266-.19921875-.2768554688-.2168579102-.3645629883-.3653564453-.3947143555-.4205322266-.0335083008-.061340332-.0549316406-.1155395508-.0681762695-.153503418-.0971069336-.3047485352-.2489624023-.7049560547-.4898071289-1.1469726562-.2230224609-.4092407227-.4356079102-.8021850586-.8618164062-1.1966552734-.0793457031-.073425293-.4642333984-.4230957031-1.0726318359-.6943969727-.2162475586-.0964355469-.5179443359-.2282714844-.9423828125-.2852172852-.4869995117-.0653076172-.8616333008,.004699707-.9609985352,.0248413086-.1652832031,.0334472656-.2945556641,.0759887695-.4216308594,.1177978516-.1970214844,.0647583008-.4180297852,.1374511719-.6633911133,.2789916992-.2442016602,.1408691406-.4037475586,.2872314453-.5084228516,.3843994141-.1152954102,.1070556641-.4122314453,.3978881836-.6943969727,.8989868164-.2230834961,.3963012695-.3598632812,.7872924805-.483581543,1.1408081055-.0000610352,.0001220703-.1556396484,.4448852539-.4216308594,.8184204102-.0454711914,.0639648438-.1202392578,.1618652344-.2479858398,.2418212891-.0328369141,.0205078125-.1343383789,.0806884766-.3596191406,.1239624023-.2489624023,.0479125977-.4505004883,.0369873047-.533203125,.0310058594-.3596191406-.0258178711-.6317749023-.1121826172-.7501831055-.1488037109-.8173828125-.2529296875-.7463378906-.1298828125-1.2709960938-.3223876953-.8920288086-.3272705078-1.3639526367-.5393676758-1.3640136719-.5393676758-.0510864258-.0229492188-.1851806641-.0841064453-.3596191406-.0744018555-.1035766602,.0056762695-.1813964844,.0341796875-.2976074219,.0805664062-.2376098633,.0948486328-.3563842773,.1422729492-.4898071289,.2108154297-.1961669922,.100769043-.395324707,.1705322266-.7935791016,.3099975586-.2228393555,.0780639648-.6459350586,.2244873047-1.2028198242,.334777832-.2369384766,.0469360352-.4555664062,.0747070312-.8928222656,.1302490234-.2819824219,.0357666016-.5547485352,.0704345703-.9051513672,.0991821289-.3532714844,.0289916992-.6674804688,.037902832-1.2958374023,.0557861328-.4850463867,.0137939453-.7275390625,.020690918-.9796142578,.0186157227-.1021118164-.0008544922-.4545288086-.0150146484-1.1594238281-.0433959961-.1911621094-.0076904297-.33203125-.013671875-.5269775391-.0372314453-.0986328125-.0119018555-.3154296875-.0408325195-.5952148438-.1054077148-.3714599609-.0856933594-.3134155273-.109375-.5393676758-.1488037109-.0938720703-.0163574219-.5302734375-.0924072266-.8432006836,.0310058594-.0682373047,.0269165039-.1365356445,.0534667969-.2046508789,.0806274414-.1741943359,.0694580078-.2108154297,.0861206055-.2727661133,.0991821289-.1227416992,.0258789062-.2198486328,.0110473633-.2604370117,.0062255859-.4976806641-.0596313477-1.0022583008,.0205078125-1.5034179688,.0275878906-.5444335938,.0076293945-3.5850830078,.0902709961-8.6345214844,.4137573242-1.3904418945,.0891113281-2.9486694336,.1974487305-4.6620483398,.3310546875-1.904296875,.1484985352-3.5842285156,.2957763672-4.983581543,.4258422852-.0389404297,.0088500977-.1018066406,.0290527344-.1592407227,.0796508789-.0776977539,.0684204102-.0972900391,.153503418-.1247558594,.2490844727-.0258789062,.0902099609-.0645751953,.219909668-.0049438477,.3533935547,.0126342773,.0283203125,.0590209961,.1320800781,.1642456055,.1791992188,.0816040039,.0365600586,.16015625,.0184326172,.1742553711,.0198974609,5.5064086914,.5761108398,9.5998535156,.9578857422,11.0348510742,1.0731811523,1.5039672852,.1208496094,2.8414916992,.2055053711,2.8415527344,.2055053711,1.2798461914,.0810546875,2.5369262695,.1450195312,3.770324707,.1936645508,.4274291992-.01953125,.7690429688-.0015869141,1.008605957,.0197753906,.3320922852,.0296020508,.4158325195,.061706543,.7116088867,.0632324219,.2002563477,.0010375977,.3203735352-.012878418,.5218505859,.0237426758,.1973876953,.0358276367,.260559082,.0816040039,.4348754883,.1343994141,.3656005859,.1107177734,.6800537109,.0889282227,.8223266602,.0791015625,.0989379883-.0068969727,.3692016602-.0322265625,.8223266602-.2135009766,.4766845703-.1907348633,.5950927734-.3296508789,1.16015625-.6517333984,.3427124023-.1953735352,.6232299805-.3247070312,1.1843261719-.5833129883,.3687133789-.1700439453,.7358398438-.3392333984,1.2160644531-.5232543945,.7189331055-.275390625,1.2878417969-.4291992188,1.8771972656-.5867919922,.32421875-.086730957,.1312255859-.0284423828,1.4353027344-.346496582,.856262207-.2088012695,1.0341186523-.257019043,1.3928833008-.3146362305,.5038452148-.080871582,.8927001953-.1044921875,1.2232055664-.1237182617,.3535766602-.0205688477,.8615112305-.0484008789,1.5271606445-.0070800781,.3924560547,.0244140625,.6599121094,.0616455078,1.1560058594,.1307983398,.6403198242,.0892333984,1.0213012695,.1716918945,1.3820800781,.2718505859,.2628173828,.0729370117,.4359741211,.1341552734,1.3222045898,.4555053711,.9938964844,.3603515625,1.1006469727,.4398803711,1.5625610352,.5567016602,.7550048828,.1909179688,1.3729858398,.2068481445,1.7839355469,.2150878906,.7202758789,.0143432617,1.2933959961-.060546875,1.6195068359-.1138916016,.4774780273-.0780639648,.7959594727-.1705322266,1.3854370117-.3416137695,.5822143555-.1689453125,1.2026367188-.3519287109,1.9674072266-.71484375,.2919921875-.1385498047,.1821289062-.1026611328,.6705932617-.3479614258,.0000610352,0,2.0109863281-1.009765625,2.2639770508-1.5009765625,.0290527344-.0563354492,.030090332-.1127319336,.030090332-.1128540039,.0029296875-.0753173828-.0344238281-.1315917969-.0458984375-.1481933594Zm-5.9553222656,1.3098754883c-.3682861328,.8342895508-1.268371582,1.1215820312-1.518737793,1.2014770508-.6633300781,.211730957-1.2159423828,.1166381836-1.3264770508,.0961303711-.9464111328-.1755371094-1.4841918945-.8194580078-1.6243896484-.9996337891-.1631469727-.2097167969-.5446777344-.7149047852-.5574951172-1.4514160156-.0118408203-.6791381836,.2966308594-1.1661987305,.4325561523-1.3745117188,.1008300781-.1546020508,.3204956055-.4837646484,.7401123047-.7497558594,.546875-.3467407227,1.0914306641-.3695068359,1.3264160156-.365234375,.2412719727-.0073242188,.8743896484,.0063476562,1.4995117188,.4229125977,.5925292969,.3948364258,.8399658203,.9264526367,.9419555664,1.1534423828,.2391357422,.532043457,.2506103516,.9970703125,.2499389648,1.1534423828-.0009765625,.2106323242-.0025024414,.5485839844-.1633911133,.9131469727Z"/><circle class="e" cx="21.2903091331" cy="5.886218581" r="1.1783609532"/><circle class="d" cx="21.2169162931" cy="5.8536229751" r=".4462692681"/></g></svg>