<?xml version="1.0" encoding="UTF-8"?><svg id="a" xmlns="http://www.w3.org/2000/svg" viewBox="0 0 195.8148711967 131.0799067612"><defs><style>.f{fill:#f1f1f1;}.g{fill:#fafafa;}</style></defs><g id="b"><rect class="g" x="97.785626857" y="114.3047870694" width="1.1269162449" height="13.1017231977" rx=".4999995053" ry=".4999995053" transform="translate(153.0241478287 266.7640714331) rotate(-161.4042963553)"/><rect class="g" x="96.2436481232" y="113.7859826111" width="1.1269162449" height="13.1017231977" rx=".4999995053" ry=".4999995053" transform="translate(150.1861341247 265.2618292082) rotate(-161.4042963545)"/><rect class="g" x="94.7016693895" y="113.2671781528" width="1.1269162449" height="13.1017231977" rx=".4999995053" ry=".4999995053" transform="translate(147.3481204246 263.759586982) rotate(-161.4042963553)"/><rect class="g" x="93.1596906557" y="112.7483736945" width="1.1269162449" height="13.1017231977" rx=".4999995053" ry=".4999995053" transform="translate(144.5101067225 262.2573447564) rotate(-161.4042963553)"/><rect class="g" x="91.617711922" y="112.2295692363" width="1.1269162449" height="13.1017231977" rx=".4999995053" ry=".4999995053" transform="translate(141.6720930204 260.7551025309) rotate(-161.4042963553)"/><rect class="g" x="90.0757331882" y="111.710764778" width="1.1269162449" height="13.1017231977" rx=".4999995053" ry=".4999995053" transform="translate(138.8340793183 259.2528603053) rotate(-161.4042963553)"/><rect class="g" x="88.5337544545" y="111.1919603197" width="1.1269162449" height="13.1017231977" rx=".4999995053" ry=".4999995053" transform="translate(135.9960656162 257.7506180798) rotate(-161.4042963553)"/><rect class="g" x="86.9917757207" y="110.6731558614" width="1.1269162449" height="13.1017231977" rx=".4999995053" ry=".4999995053" transform="translate(133.1580519122 256.2483758548) rotate(-161.4042963545)"/><rect class="g" x="85.449796987" y="110.1543514032" width="1.1269162449" height="13.1017231977" rx=".4999995053" ry=".4999995053" transform="translate(130.320038212 254.7461336287) rotate(-161.4042963553)"/><rect class="g" x="83.9078182533" y="109.6355469449" width="1.1269162449" height="13.1017231977" rx=".4999995053" ry=".4999995053" transform="translate(127.4820245099 253.2438914031) rotate(-161.4042963553)"/><rect class="g" x="82.3658395195" y="109.1167424866" width="1.1269162449" height="13.1017231977" rx=".4999995053" ry=".4999995053" transform="translate(124.6440108078 251.7416491776) rotate(-161.4042963553)"/><rect class="g" x="80.8238607858" y="108.5979380283" width="1.1269162449" height="13.1017231977" rx=".4999995053" ry=".4999995053" transform="translate(121.8059971057 250.239406952) rotate(-161.4042963553)"/><rect class="g" x="79.281882052" y="108.07913357" width="1.1269162449" height="13.1017231977" rx=".4999995053" ry=".4999995053" transform="translate(118.9679834027 248.7371647267) rotate(-161.4042963549)"/><rect class="g" x="77.7399033183" y="107.5603291118" width="1.1269162449" height="13.1017231977" rx=".4999995053" ry=".4999995053" transform="translate(116.1299697015 247.2349225009) rotate(-161.4042963553)"/><rect class="g" x="76.1979245845" y="107.0415246535" width="1.1269162449" height="13.1017231977" rx=".4999995053" ry=".4999995053" transform="translate(113.2919559995 245.7326802753) rotate(-161.4042963553)"/><rect class="g" x="74.6559458508" y="106.5227201952" width="1.1269162449" height="13.1017231977" rx=".4999995053" ry=".4999995053" transform="translate(110.4539422965 244.23043805) rotate(-161.4042963549)"/><rect class="g" x="73.113967117" y="106.0039157369" width="1.1269162449" height="13.1017231977" rx=".4999995053" ry=".4999995053" transform="translate(107.6159285953 242.7281958242) rotate(-161.4042963553)"/><rect class="g" x="71.5719883833" y="105.4851112786" width="1.1269162449" height="13.1017231977" rx=".4999995053" ry=".4999995053" transform="translate(104.7779148932 241.2259535987) rotate(-161.4042963553)"/><rect class="g" x="70.0300096495" y="104.9663068204" width="1.1269162449" height="13.1017231977" rx=".4999995053" ry=".4999995053" transform="translate(101.9399011902 239.7237113733) rotate(-161.4042963549)"/><rect class="g" x="68.4880309158" y="104.4475023621" width="1.1269162449" height="13.1017231977" rx=".4999995053" ry=".4999995053" transform="translate(99.101887489 238.2214691476) rotate(-161.4042963553)"/><rect class="g" x="66.946052182" y="103.9286979038" width="1.1269162449" height="13.1017231977" rx=".4999995053" ry=".4999995053" transform="translate(96.2638737869 236.719226922) rotate(-161.4042963553)"/><rect class="g" x="65.4040734483" y="103.4098934455" width="1.1269162449" height="13.1017231977" rx=".4999995053" ry=".4999995053" transform="translate(93.425860084 235.2169846967) rotate(-161.4042963549)"/><rect class="g" x="63.8620947145" y="102.8910889872" width="1.1269162449" height="13.1017231977" rx=".4999995053" ry=".4999995053" transform="translate(90.5878463827 233.7147424709) rotate(-161.4042963553)"/><rect class="g" x="62.3201159808" y="102.372284529" width="1.1269162449" height="13.1017231977" rx=".4999995053" ry=".4999995053" transform="translate(87.7498326806 232.2125002454) rotate(-161.4042963553)"/><rect class="g" x="60.778137247" y="101.8534800707" width="1.1269162449" height="13.1017231977" rx=".4999995053" ry=".4999995053" transform="translate(84.9118189785 230.7102580198) rotate(-161.4042963553)"/><rect class="g" x="59.2361585133" y="101.3346756124" width="1.1269162449" height="13.1017231977" rx=".4999995053" ry=".4999995053" transform="translate(82.0738052764 229.2080157943) rotate(-161.4042963553)"/><rect class="g" x="57.6941797795" y="100.8158711541" width="1.1269162449" height="13.1017231977" rx=".4999995053" ry=".4999995053" transform="translate(79.2357915743 227.7057735687) rotate(-161.4042963553)"/><rect class="g" x="56.1522010458" y="100.2970666959" width="1.1269162449" height="13.1017231977" rx=".4999995053" ry=".4999995053" transform="translate(76.3977778722 226.2035313432) rotate(-161.4042963553)"/><rect class="g" x="54.610222312" y="99.7782622376" width="1.1269162449" height="13.1017231977" rx=".4999995053" ry=".4999995053" transform="translate(73.5597641702 224.7012891176) rotate(-161.4042963553)"/><rect class="g" x="53.0682435783" y="99.2594577793" width="1.1269162449" height="13.1017231977" rx=".4999995053" ry=".4999995053" transform="translate(70.7217504681 223.1990468921) rotate(-161.4042963553)"/><rect class="g" x="51.5262648445" y="98.740653321" width="1.1269162449" height="13.1017231977" rx=".4999995053" ry=".4999995053" transform="translate(67.883736766 221.6968046665) rotate(-161.4042963553)"/><path class="g" d="M46.6304332003,116.8889839632h51.0478699769v6.568493821H43.4014187408v-3.3394793615c0-1.7821415945,1.446872865-3.2290144595,3.2290144595-3.2290144595Z" transform="translate(99.0751697473 256.5668287994) rotate(-161.4042963603)"/><path class="g" d="M5.6946591377,83.4311904166c.306828171,.5156587349,2.5669492023,5.194320142,11.5555773997,8.2185774035s12.5659655272-.1027949111,13.3725784763,.1685930043l3.4298761183,1.1539945283c.6971844731,.2345702992,3.2990589131,3.4993728241,8.2664587064,5.1706728896s8.1213171285,.3430550097,8.9206333525,.6119879149,1.107068685,.80569987,.9455495921,1.2857632204l-4.9732135213,14.7812713847c-.1615190929,.4800633505-.8467302563,.6827440249-1.5304619692,.4526999567,0,0-23.4226209893-7.8806276142-34.6340644652-11.652759312-11.2114434759-3.7721316979-12.3734503984-3.4206860226-9.2790712182-12.6177289815s2.3956755593-7.1203720523,2.3956755593-7.1203720523c.161519093-.4800633504,1.2236337983-.9683586915,1.5304619693-.4526999566Z"/></g><g id="c"><rect class="f" x="192.7615833825" y="31.0941294018" width="1.1269162449" height="13.1017231977" rx=".4999995053" ry=".4999995053" transform="translate(364.5524871073 134.9737066647) rotate(-161.4042963553)"/><rect class="f" x="191.2196046488" y="30.5753249435" width="1.1269162449" height="13.1017231977" rx=".4999995053" ry=".4999995053" transform="translate(361.7144734039 133.4714644415) rotate(-161.4042963545)"/><rect class="f" x="189.677625915" y="30.0565204852" width="1.1269162449" height="13.1017231977" rx=".4999995053" ry=".4999995053" transform="translate(358.8764597031 131.9692222136) rotate(-161.4042963553)"/><rect class="f" x="188.1356471813" y="29.537716027" width="1.1269162449" height="13.1017231977" rx=".4999995053" ry=".4999995053" transform="translate(356.038446001 130.4669799881) rotate(-161.4042963553)"/><rect class="f" x="186.5936684475" y="29.0189115687" width="1.1269162449" height="13.1017231977" rx=".4999995053" ry=".4999995053" transform="translate(353.2004322989 128.9647377625) rotate(-161.4042963553)"/><rect class="f" x="185.0516897138" y="28.5001071104" width="1.1269162449" height="13.1017231977" rx=".4999995053" ry=".4999995053" transform="translate(350.3624185968 127.462495537) rotate(-161.4042963553)"/><rect class="f" x="183.50971098" y="27.9813026521" width="1.1269162449" height="13.1017231977" rx=".4999995053" ry=".4999995053" transform="translate(347.5244048947 125.9602533114) rotate(-161.4042963553)"/><rect class="f" x="181.9677322463" y="27.4624981938" width="1.1269162449" height="13.1017231977" rx=".4999995053" ry=".4999995053" transform="translate(344.6863911914 124.4580110881) rotate(-161.4042963545)"/><rect class="f" x="180.4257535125" y="26.9436937356" width="1.1269162449" height="13.1017231977" rx=".4999995053" ry=".4999995053" transform="translate(341.8483774905 122.9557688603) rotate(-161.4042963553)"/><rect class="f" x="178.8837747788" y="26.4248892773" width="1.1269162449" height="13.1017231977" rx=".4999995053" ry=".4999995053" transform="translate(339.0103637885 121.4535266347) rotate(-161.4042963553)"/><rect class="f" x="177.341796045" y="25.906084819" width="1.1269162449" height="13.1017231977" rx=".4999995053" ry=".4999995053" transform="translate(336.1723500864 119.9512844092) rotate(-161.4042963553)"/><rect class="f" x="175.7998173113" y="25.3872803607" width="1.1269162449" height="13.1017231977" rx=".4999995053" ry=".4999995053" transform="translate(333.3343363843 118.4490421836) rotate(-161.4042963553)"/><rect class="f" x="174.2578385775" y="24.8684759025" width="1.1269162449" height="13.1017231977" rx=".4999995053" ry=".4999995053" transform="translate(330.4963226816 116.9467999591) rotate(-161.4042963549)"/><rect class="f" x="172.7158598438" y="24.3496714442" width="1.1269162449" height="13.1017231977" rx=".4999995053" ry=".4999995053" transform="translate(327.6583089801 115.4445577325) rotate(-161.4042963553)"/><rect class="f" x="171.17388111" y="23.8308669859" width="1.1269162449" height="13.1017231977" rx=".4999995053" ry=".4999995053" transform="translate(324.820295278 113.942315507) rotate(-161.4042963553)"/><rect class="f" x="169.6319023763" y="23.3120625276" width="1.1269162449" height="13.1017231977" rx=".4999995053" ry=".4999995053" transform="translate(321.9822815753 112.4400732825) rotate(-161.4042963549)"/><rect class="f" x="168.0899236425" y="22.7932580693" width="1.1269162449" height="13.1017231977" rx=".4999995053" ry=".4999995053" transform="translate(319.1442678738 110.9378310559) rotate(-161.4042963553)"/><rect class="f" x="166.5479449088" y="22.2744536111" width="1.1269162449" height="13.1017231977" rx=".4999995053" ry=".4999995053" transform="translate(316.3062541717 109.4355888303) rotate(-161.4042963553)"/><rect class="f" x="165.005966175" y="21.7556491528" width="1.1269162449" height="13.1017231977" rx=".4999995053" ry=".4999995053" transform="translate(313.4682404691 107.9333466058) rotate(-161.4042963549)"/><rect class="f" x="163.4639874413" y="21.2368446945" width="1.1269162449" height="13.1017231977" rx=".4999995053" ry=".4999995053" transform="translate(310.6302267675 106.4311043792) rotate(-161.4042963553)"/><rect class="f" x="161.9220087075" y="20.7180402362" width="1.1269162449" height="13.1017231977" rx=".4999995053" ry=".4999995053" transform="translate(307.7922130654 104.9288621537) rotate(-161.4042963553)"/><rect class="f" x="160.3800299738" y="20.1992357779" width="1.1269162449" height="13.1017231977" rx=".4999995053" ry=".4999995053" transform="translate(304.9541993628 103.4266199291) rotate(-161.4042963549)"/><rect class="f" x="158.83805124" y="19.6804313197" width="1.1269162449" height="13.1017231977" rx=".4999995053" ry=".4999995053" transform="translate(302.1161856613 101.9243777026) rotate(-161.4042963553)"/><rect class="f" x="157.2960725063" y="19.1616268614" width="1.1269162449" height="13.1017231977" rx=".4999995053" ry=".4999995053" transform="translate(299.2781719592 100.422135477) rotate(-161.4042963553)"/><rect class="f" x="155.7540937725" y="18.6428224031" width="1.1269162449" height="13.1017231977" rx=".4999995053" ry=".4999995053" transform="translate(296.4401582571 98.9198932515) rotate(-161.4042963553)"/><rect class="f" x="154.2121150388" y="18.1240179448" width="1.1269162449" height="13.1017231977" rx=".4999995053" ry=".4999995053" transform="translate(293.602144555 97.4176510259) rotate(-161.4042963553)"/><rect class="f" x="152.670136305" y="17.6052134865" width="1.1269162449" height="13.1017231977" rx=".4999995053" ry=".4999995053" transform="translate(290.7641308529 95.9154088004) rotate(-161.4042963553)"/><rect class="f" x="151.1281575713" y="17.0864090283" width="1.1269162449" height="13.1017231977" rx=".4999995053" ry=".4999995053" transform="translate(287.9261171508 94.4131665748) rotate(-161.4042963553)"/><rect class="f" x="149.5861788375" y="16.56760457" width="1.1269162449" height="13.1017231977" rx=".4999995053" ry=".4999995053" transform="translate(285.0881034487 92.9109243493) rotate(-161.4042963553)"/><rect class="f" x="148.0442001038" y="16.0488001117" width="1.1269162449" height="13.1017231977" rx=".4999995053" ry=".4999995053" transform="translate(282.2500897466 91.4086821237) rotate(-161.4042963553)"/><rect class="f" x="146.50222137" y="15.5299956534" width="1.1269162449" height="13.1017231977" rx=".4999995053" ry=".4999995053" transform="translate(279.4120760445 89.9064398981) rotate(-161.4042963553)"/><path class="f" d="M141.6063897258,33.6783262957h51.0478699769v6.568493821h-54.2768844364v-3.3394793615c0-1.7821415945,1.446872865-3.2290144595,3.2290144595-3.2290144595Z" transform="translate(310.6035090216 124.776464021) rotate(-161.4042963603)"/><path class="f" d="M100.6706156632,.220532749c.306828171,.5156587349,2.5669492023,5.194320142,11.5555773997,8.2185774035s12.5659655272-.1027949111,13.3725784763,.1685930043l3.4298761183,1.1539945283c.6971844731,.2345702992,3.2990589131,3.4993728241,8.2664587064,5.1706728896s8.1213171285,.3430550097,8.9206333525,.6119879149,1.107068685,.80569987,.9455495921,1.2857632204l-4.9732135213,14.7812713847c-.1615190929,.4800633505-.8467302563,.6827440249-1.5304619692,.4526999567,0,0-23.4226209893-7.8806276142-34.6340644652-11.652759312-11.2114434759-3.7721316979-12.3734503984-3.4206860226-9.2790712182-12.6177289815s2.3956755593-7.1203720523,2.3956755593-7.1203720523c.161519093-.4800633504,1.2236337983-.9683586915,1.5304619693-.4526999566Z"/></g><g id="d"><path class="f" d="M60.8315429688,56.541015625c0,2.4389648438-.8833007812,4.5844726562-2.6499023438,6.4365234375-1.0947265625,.9248046875-2.1889648438,.9248046875-3.2817382812,0L19.18359375,27.38671875c-1.5146484375,.587890625-3.1987304688,.8837890625-5.0483398438,.8837890625-4.0385742188-.0849609375-7.3618164062-1.4731445312-9.970703125-4.1650390625C1.4731445312,21.4965820312,.0844726562,18.173828125,0,14.1352539062,.0844726562,10.0966796875,1.4731445312,6.7719726562,4.1645507812,4.1650390625,6.7734375,1.4711914062,10.0966796875,.0830078125,14.1352539062,0c4.0385742188,.0830078125,7.4028320312,1.4711914062,10.0961914062,4.1650390625,2.6918945312,2.6069335938,4.080078125,5.931640625,4.1650390625,9.9702148438-.0849609375,1.849609375-.4633789062,3.5751953125-1.1357421875,5.1743164062l5.1743164062,4.7958984375,4.7958984375-4.7958984375c-.5893554688-1.5991210938-.8833007812-3.3247070312-.8833007812-5.1743164062,.0825195312-4.0385742188,1.4711914062-7.36328125,4.1645507812-9.9702148438C43.119140625,1.4711914062,46.4443359375,.0830078125,50.4829101562,0c4.0385742188,.0830078125,7.361328125,1.4711914062,9.9702148438,4.1650390625,2.6918945312,2.6069335938,4.080078125,5.931640625,4.1650390625,9.9702148438-.0849609375,4.0385742188-1.4731445312,7.361328125-4.1650390625,9.9702148438-2.6088867188,2.6918945312-5.931640625,4.080078125-9.9702148438,4.1650390625-1.8520507812,0-3.5771484375-.2958984375-5.1748046875-.8837890625l-4.7958984375,4.7958984375,17.6694335938,17.921875c1.7666015625,1.849609375,2.6499023438,3.9951171875,2.6499023438,6.4365234375Zm-31.4252929688-13.251953125L9.7177734375,62.9775390625c-1.0942382812,.9248046875-2.1870117188,.9248046875-3.28125,0-1.7670898438-1.8520507812-2.650390625-3.9975585938-2.650390625-6.4365234375,0-2.44140625,.8833007812-4.5869140625,2.650390625-6.4365234375l14.892578125-14.892578125,8.0771484375,8.0771484375ZM9.8442382812,18.4262695312c1.1772460938,1.0922851562,2.6069335938,1.6821289062,4.291015625,1.7670898438,1.6821289062-.0849609375,3.1118164062-.6748046875,4.291015625-1.7670898438,1.0922851562-1.1791992188,1.6821289062-2.6088867188,1.7666015625-4.291015625-.0844726562-1.6840820312-.6743164062-3.1137695312-1.7666015625-4.291015625-1.1791992188-1.0947265625-2.6088867188-1.6840820312-4.291015625-1.7670898438-1.6840820312,.0830078125-3.1137695312,.6723632812-4.291015625,1.7670898438-1.0947265625,1.1772460938-1.6840820312,2.6069335938-1.7670898438,4.291015625,.0830078125,1.6821289062,.6723632812,3.1118164062,1.7670898438,4.291015625Zm45.0556640625,0c1.0927734375-1.1791992188,1.6821289062-2.6088867188,1.7670898438-4.291015625-.0849609375-1.6840820312-.6743164062-3.1137695312-1.7670898438-4.291015625-1.1791992188-1.0947265625-2.6088867188-1.6840820312-4.291015625-1.7670898438-1.7666015625,.0830078125-3.1982421875,.6723632812-4.291015625,1.7670898438-1.1791992188,1.1772460938-1.7670898438,2.6069335938-1.7670898438,4.291015625,0,1.6821289062,.587890625,3.1118164062,1.7670898438,4.291015625,1.0927734375,1.0922851562,2.5244140625,1.6821289062,4.291015625,1.7670898438,1.6821289062-.0849609375,3.1118164062-.6748046875,4.291015625-1.7670898438Z"/></g><g id="e"><path class="g" d="M189.4663085938,122.3950195312c0,2.4389648438-.8828125,4.5844726562-2.6494140625,6.4365234375-1.0947265625,.9248046875-2.1889648438,.9248046875-3.2817382812,0l-35.7163085938-35.5908203125c-1.5146484375,.587890625-3.1987304688,.8837890625-5.0483398438,.8837890625-4.0385742188-.0849609375-7.3618164062-1.4731445312-9.970703125-4.1650390625-2.69140625-2.6088867188-4.080078125-5.931640625-4.1645507812-9.9702148438,.0844726562-4.0385742188,1.4731445312-7.36328125,4.1645507812-9.9702148438,2.6088867188-2.6938476562,5.9321289062-4.08203125,9.970703125-4.1650390625,4.0385742188,.0830078125,7.4028320312,1.4711914062,10.0961914062,4.1650390625,2.6918945312,2.6069335938,4.080078125,5.931640625,4.1650390625,9.9702148438-.0849609375,1.849609375-.4633789062,3.5751953125-1.1357421875,5.1743164062l5.1743164062,4.7958984375,4.7958984375-4.7958984375c-.5893554688-1.5991210938-.8833007812-3.3247070312-.8833007812-5.1743164062,.0825195312-4.0385742188,1.4711914062-7.36328125,4.1645507812-9.9702148438,2.6069335938-2.6938476562,5.9321289062-4.08203125,9.970703125-4.1650390625,4.0385742188,.0830078125,7.361328125,1.4711914062,9.9702148438,4.1650390625,2.69140625,2.6069335938,4.080078125,5.931640625,4.1650390625,9.9702148438-.0849609375,4.0385742188-1.4736328125,7.361328125-4.1650390625,9.9702148438-2.6088867188,2.6918945312-5.931640625,4.080078125-9.9702148438,4.1650390625-1.8520507812,0-3.5771484375-.2958984375-5.1748046875-.8837890625l-4.7958984375,4.7958984375,17.6694335938,17.921875c1.7666015625,1.849609375,2.6494140625,3.9951171875,2.6494140625,6.4365234375Zm-31.4248046875-13.251953125l-19.6884765625,19.6884765625c-1.0942382812,.9248046875-2.1870117188,.9248046875-3.28125,0-1.7670898438-1.8520507812-2.650390625-3.9975585938-2.650390625-6.4365234375,0-2.44140625,.8833007812-4.5869140625,2.650390625-6.4365234375l14.892578125-14.892578125,8.0771484375,8.0771484375Zm-19.5620117188-24.8627929688c1.1772460938,1.0922851562,2.6069335938,1.6821289062,4.291015625,1.7670898438,1.6821289062-.0849609375,3.1118164062-.6748046875,4.291015625-1.7670898438,1.0922851562-1.1791992188,1.6821289062-2.6088867188,1.7666015625-4.291015625-.0844726562-1.6840820312-.6743164062-3.1137695312-1.7666015625-4.291015625-1.1791992188-1.0947265625-2.6088867188-1.6840820312-4.291015625-1.7670898438-1.6840820312,.0830078125-3.1137695312,.6723632812-4.291015625,1.7670898438-1.0947265625,1.1772460938-1.6840820312,2.6069335938-1.7670898438,4.291015625,.0830078125,1.6821289062,.6723632812,3.1118164062,1.7670898438,4.291015625Zm45.0556640625,0c1.0927734375-1.1791992188,1.6821289062-2.6088867188,1.7670898438-4.291015625-.0849609375-1.6840820312-.6743164062-3.1137695312-1.7670898438-4.291015625-1.1791992188-1.0947265625-2.6088867188-1.6840820312-4.291015625-1.7670898438-1.7666015625,.0830078125-3.1982421875,.6723632812-4.291015625,1.7670898438-1.1791992188,1.1772460938-1.7670898438,2.6069335938-1.7670898438,4.291015625,0,1.6821289062,.587890625,3.1118164062,1.7670898438,4.291015625,1.0927734375,1.0922851562,2.5244140625,1.6821289062,4.291015625,1.7670898438,1.6821289062-.0849609375,3.1118164062-.6748046875,4.291015625-1.7670898438Z"/></g></svg>